<svg width="152" height="26" viewBox="0 0 152 26" fill="none" xmlns="http://www.w3.org/2000/svg">
<g clip-path="url(#clip0_2529_2196)">
<path d="M20.337 19.8071C20.337 18.7098 21.731 17.3515 24.6425 17.3515C24.8166 17.3515 24.9907 17.3515 25.1622 17.3684C24.9387 19.4785 23.2641 20.9226 21.6271 20.9226C20.8424 20.9226 20.337 20.5564 20.337 19.8071ZM14.6894 8.2745H14.7245L13.8151 16.6022C12.833 16.3089 11.8309 16.0876 10.8166 15.9399L14.6894 8.2745ZM8.3806 15.7659C6.22008 15.7659 3.9543 16.3062 2.78634 17.5943C2.13389 16.3611 1.80406 14.983 1.82754 13.5883C1.82754 9.87694 4.25052 6.42793 8.90416 4.23854L8.31175 2.98412C2.8565 5.454 0.398438 9.52894 0.398438 13.5883C0.398438 15.505 0.851854 17.3541 2.0536 19.1098C2.01882 19.3057 2.00143 19.5043 2.00163 19.7033C2.00163 21.1836 2.92535 22.2459 4.84294 22.2459C6.84759 22.2459 8.55469 20.8694 9.58366 18.1527H8.08439C7.33476 19.9642 6.11485 20.907 4.84294 20.907C3.84907 20.907 3.41385 20.4538 3.41385 19.7059C3.41385 18.4163 4.98196 17.1086 8.39883 17.1086C10.1913 17.1146 11.9722 17.3967 13.6787 17.9449L13.4358 20.2266H14.8298L16.1367 7.94469C16.939 7.77478 17.7566 7.68774 18.5766 7.68495C21.644 7.68495 22.4807 8.76538 22.4807 9.93278C22.4807 11.4833 21.2088 12.5624 18.1583 12.9117L18.6117 8.71344L17.2177 8.76538L15.9977 20.2279H17.3918L18.0011 14.4271C19.0401 14.1464 20.1094 13.9933 21.1854 13.9714C23.242 13.9714 24.6373 14.8076 25.0556 16.049C24.9167 16.035 24.777 16.0295 24.6373 16.0322C20.68 16.0322 18.9209 18.0528 18.9209 19.8305C18.9209 21.3979 20.0901 22.2692 21.605 22.2692C23.8136 22.2692 26.2067 20.4914 26.5419 17.5826C27.5508 17.8178 28.5156 18.2125 29.4001 18.7514C27.0122 22.2874 22.1845 24.6041 16.3979 24.6041C13.5566 24.6041 10.002 23.995 7.6492 22.3744L6.91644 23.5431C9.23547 25.2156 12.9472 26 16.4005 26C25.7949 26 32.4181 20.459 32.4181 13.613C32.4181 6.41884 25.2194 1.22715 16.4187 1.22715C15.8782 1.22715 15.495 1.24403 14.9714 1.2791L15.1104 2.65558C15.5287 2.63869 15.9821 2.62052 16.4005 2.62052C24.2605 2.62052 30.9891 7.35898 30.9891 13.613C30.9923 14.989 30.6813 16.3476 30.0796 17.5852C29.1909 17.01 27.9009 16.488 26.5237 16.2269C26.2275 14.5544 24.8517 13.126 22.1845 12.8507C22.7072 12.5625 23.1434 12.1397 23.4474 11.6261C23.7515 11.1125 23.9125 10.5269 23.9137 9.93018C23.9137 7.78752 22.3975 6.34093 18.5805 6.34093C17.8157 6.34281 17.0523 6.40709 16.2979 6.53308L16.4499 5.06443L15.039 4.68135L13.819 7.0902C11.8494 7.66155 9.93184 8.50174 8.79899 9.14582L9.42644 10.3483C10.5711 9.76098 11.7529 9.24865 12.9642 8.81471L9.44467 15.801C9.07826 15.7828 8.72878 15.7659 8.3806 15.7659ZM13.8372 3.31006C13.8372 1.79462 12.1119 0.435022 10.1995 0C10.0076 0.781761 9.90131 1.58205 9.8825 2.38677C9.8825 4.51253 10.9803 5.13844 12.0092 5.13844C13.1045 5.13844 13.8359 4.40735 13.8359 3.31006H13.8372Z" fill="#BEBEBE"/>
<path d="M45.4884 10.9338C44.1952 10.9338 43.4562 11.5817 43.3087 12.5445H41.4601C41.7563 10.3976 43.1972 9.26777 45.4884 9.26777C47.9836 9.26777 49.3321 10.5264 49.3321 13.0977V18.7084H47.4846V16.4893C47.0227 17.8404 46.0438 18.8957 44.14 18.8957C42.403 18.8957 41.3125 17.9702 41.3125 16.3031C41.3125 14.1924 43.2535 13.0636 47.4846 13.0636V12.9147C47.4846 11.5817 46.7456 10.9338 45.4884 10.9338ZM44.5647 17.3031C46.4685 17.3031 47.4846 15.9892 47.4846 14.3967C44.4352 14.3967 43.2534 15.0998 43.2534 16.2052C43.2534 16.9148 43.7525 17.3031 44.5647 17.3031ZM50.9216 15.6744H52.8434C53.0653 16.6318 53.6928 17.2297 55.0986 17.2297C56.7614 17.2297 57.1861 16.6371 57.1861 15.9701C57.1861 15.3403 56.7062 14.8594 55.431 14.8594H53.8786V13.286H55.1527C56.4641 13.286 56.8899 12.8413 56.8899 12.1742C56.8899 11.4891 56.3165 10.9338 55.0785 10.9338C53.6928 10.9338 53.1938 11.6381 53.0271 12.3966H51.1053C51.2911 10.4902 52.7701 9.26777 55.1135 9.26777C57.7011 9.26777 58.8297 10.471 58.8297 11.8785C58.8297 12.8222 58.2574 13.6189 57.2041 13.8998C58.3859 14.1594 59.1259 14.9924 59.1259 16.0275C59.1259 17.5276 57.9431 18.8999 55.0975 18.8999C52.4006 18.8957 51.1063 17.5808 50.9216 15.6744ZM61.4183 16.8031C60.8078 15.8594 60.605 14.5999 60.605 13.0072C60.605 8.52736 62.2316 6.6018 66.1113 6.13899C67.3685 5.99005 68.0332 5.84217 68.1627 5.37939H69.8997C69.6047 7.13792 68.3069 7.52733 66.4076 7.76777C63.2658 8.17519 62.4525 9.34122 62.3792 12.1009C62.9887 10.6561 64.4116 9.654 66.1487 9.654C68.7732 9.654 70.3808 11.7285 70.3808 14.2647C70.3808 16.8382 68.4216 18.8936 65.484 18.8936C63.5981 18.8957 62.1393 17.951 61.4183 16.8031ZM68.4396 14.2669C68.4396 12.5647 67.221 11.3231 65.484 11.3231C63.7648 11.3231 62.5459 12.5636 62.5459 14.2669C62.5459 16.0073 63.7659 17.2297 65.4846 17.2297C67.2178 17.2297 68.4396 16.0105 68.4396 14.2669ZM71.7836 22.4139V20.7468C73.7235 20.7468 74.0926 20.3957 74.6845 18.7478L70.9534 9.45289H72.9313L75.6841 16.3595L78.4001 9.45289H80.1926L76.276 19.1915C75.2777 21.6915 74.557 22.4139 71.7836 22.4139ZM81.283 9.45289H83.1314V13.6189L87.1794 9.45289H89.3969L85.1087 13.8594L89.7467 18.7106H87.2522L83.1314 14.3594V18.7106H81.283V9.45289ZM94.3305 10.9338C93.0359 10.9338 92.2972 11.5817 92.1497 12.5445H90.3018C90.5968 10.3976 92.0389 9.26777 94.3305 9.26777C96.8243 9.26777 98.1736 10.5264 98.1736 13.0977V18.7084H96.3252V16.4893C95.8634 17.8404 94.8844 18.8957 92.9805 18.8957C91.2435 18.8957 90.1531 17.9702 90.1531 16.3031C90.1531 14.1924 92.0943 13.0636 96.3252 13.0636V12.9147C96.3252 11.5817 95.5864 10.9338 94.3305 10.9338ZM93.4056 17.3031C95.3095 17.3031 96.3252 15.9892 96.3252 14.3967C93.2768 14.3967 92.0943 15.0998 92.0943 16.2052C92.0943 16.9148 92.5941 17.3031 93.4056 17.3031ZM105.325 9.45289H109.501C111.552 9.45289 112.68 10.3231 112.68 11.8593C112.68 12.8168 112.089 13.6371 110.906 13.9519C112.255 14.1743 113.086 14.8775 113.086 16.1169C113.086 17.3765 112.273 18.7095 109.742 18.7095H105.325V9.45289ZM110.776 12.1742C110.776 11.5264 110.369 11.0263 109.409 11.0263H107.14V13.3041H109.413C110.37 13.3041 110.776 12.804 110.776 12.1742ZM107.14 14.785V17.1371H109.635C110.745 17.1371 111.15 16.6052 111.15 15.9329C111.15 15.3403 110.745 14.785 109.542 14.785H107.14ZM114.901 9.45289H116.75V13.6189L120.796 9.45289H123.014L118.726 13.8594L123.366 18.7106H120.871L116.75 14.3594V18.7106H114.901V9.45289ZM124.178 22.4139V20.7468C126.119 20.7468 126.488 20.3957 127.079 18.7478L123.346 9.45289H125.324L128.078 16.3595L130.794 9.45289H132.586L128.669 19.1915C127.667 21.6915 126.946 22.4139 124.173 22.4139H124.178ZM140.423 15.2861H142.27C141.827 17.6382 140.219 18.8967 137.873 18.8967C135.006 18.8967 133.068 16.769 133.068 14.0828C133.068 11.4168 135.008 9.26888 137.835 9.26888C140.278 9.26888 141.846 10.62 142.196 12.787H140.348C139.997 11.6019 139.203 10.9348 137.835 10.9348C136.137 10.9348 135.008 12.1945 135.008 14.0828C135.008 15.9903 136.176 17.2308 137.835 17.2308C139.198 17.2297 140.084 16.5818 140.418 15.285L140.423 15.2861ZM147.759 10.9348C146.466 10.9348 145.726 11.5827 145.578 12.5455H143.73C144.025 10.3986 145.468 9.26888 147.759 9.26888C150.254 9.26888 151.602 10.5274 151.602 13.0987V18.7095H149.755V16.4893C149.293 17.8404 148.313 18.8957 146.41 18.8957C144.673 18.8957 143.583 17.9702 143.583 16.3031C143.583 14.1924 145.523 13.0636 149.755 13.0636V12.9147C149.75 11.5817 149.011 10.9338 147.753 10.9338L147.759 10.9348ZM146.835 17.3042C148.739 17.3042 149.755 15.9903 149.755 14.3977C146.705 14.3977 145.523 15.1009 145.523 16.2063C145.518 16.9148 146.016 17.3031 146.83 17.3031L146.835 17.3042Z" fill="#BEBEBE"/>
</g>
<defs>
<clipPath id="clip0_2529_2196">
<rect width="152" height="26" fill="white"/>
</clipPath>
</defs>
</svg>
