<svg width="153" height="21" viewBox="0 0 153 21" fill="none" xmlns="http://www.w3.org/2000/svg">
<path d="M7.26308 0.977531C7.85748 0.518814 8.6217 0.29176 9.37023 0.351753C10.3283 0.417284 11.2346 0.967373 11.7441 1.77959C12.3219 2.67026 12.4068 3.85444 11.9693 4.82079C11.7792 5.25182 11.4801 5.62469 11.1423 5.94866C10.4723 6.62704 9.80679 7.30819 9.13672 7.98565C8.39557 7.23989 7.65996 6.48859 6.92435 5.73914C6.34657 5.14752 6.01707 4.32607 6.02353 3.50093C6.01799 2.5272 6.48594 1.5627 7.26308 0.977531Z" fill="#BEBEBE"/>
<path d="M23.4565 1.68164C27.0367 1.68257 30.616 1.68257 34.1962 1.68164C34.1999 6.47187 34.2009 11.2602 34.1962 16.0505C33.2484 16.0459 32.3005 16.0523 31.3535 16.0468C31.3544 12.1574 31.3544 8.26797 31.3535 4.37949C29.6672 4.3758 27.9809 4.37764 26.2947 4.37857C26.2938 8.26889 26.2956 12.1583 26.2938 16.0495C25.3477 16.0495 24.4026 16.0486 23.4565 16.0495C23.4565 11.2602 23.4556 6.47187 23.4565 1.68164ZM100.05 1.7241C100.773 1.51458 101.564 2.03422 101.725 2.75598C101.917 3.46667 101.462 4.28165 100.741 4.45886C100.006 4.67576 99.1735 4.15983 99.0249 3.41406C98.8412 2.69415 99.3322 1.89762 100.05 1.7241ZM103.985 1.71579C104.772 1.51182 105.602 2.15605 105.657 2.9535C105.762 3.71218 105.14 4.47455 104.371 4.50316C103.588 4.57146 102.854 3.86816 102.888 3.08456C102.888 2.44771 103.365 1.85332 103.985 1.71579ZM38.1927 6.25496C40.1033 4.93788 42.9202 4.97019 44.6877 6.52909C46.2078 7.83325 46.7985 9.98747 46.4533 11.9248C43.8708 11.9442 41.2865 11.9248 38.7031 11.9349C38.8877 12.6069 39.3234 13.2216 39.9574 13.5335C41.2348 14.163 42.9829 13.9969 43.9188 12.8487C44.6157 13.2834 45.3337 13.6821 46.0389 14.1048C45.4334 14.9955 44.5418 15.6905 43.5183 16.0311C41.5597 16.6615 39.22 16.3523 37.6602 14.9521C36.4197 13.8492 35.841 12.1371 35.9388 10.5025C36.0007 8.84667 36.8064 7.19639 38.1927 6.25496ZM39.9814 8.04738C39.28 8.3898 38.8369 9.10141 38.6597 9.84348C40.4051 9.84533 42.1504 9.84533 43.8948 9.84348C43.7545 9.23155 43.4518 8.63993 42.9451 8.25597C42.1089 7.61912 40.9072 7.5942 39.9814 8.04738ZM51.0396 6.83367C52.2607 5.20278 54.6871 4.91943 56.4389 5.79717C58.236 6.6703 59.3325 8.64085 59.3768 10.6077C59.4737 12.6382 58.4621 14.7519 56.6503 15.7459C54.8773 16.7529 52.317 16.5156 51.0405 14.8229C51.0488 16.6209 51.0414 18.4188 51.0451 20.2177C50.159 20.2168 49.2739 20.2232 48.3888 20.214C48.3943 15.3453 48.3906 10.4766 48.3906 5.60705C49.2739 5.60335 50.159 5.60612 51.0442 5.60612C51.0433 6.01592 51.0442 6.42479 51.0396 6.83367ZM53.5002 7.91078C52.5772 8.00585 51.7226 8.60116 51.3414 9.45029C50.8568 10.5209 50.9611 11.8833 51.7216 12.8016C52.6686 13.9553 54.5524 14.079 55.696 13.1514C57.0555 12.0485 57.0776 9.69858 55.7578 8.55594C55.1468 8.02154 54.2967 7.81571 53.5002 7.91078ZM63.2505 6.07961C65.1038 4.97666 67.6614 5.03479 69.3513 6.42756C70.9462 7.71049 71.6034 9.92656 71.2323 11.9063C68.6609 11.97 66.0665 11.9119 63.4868 11.9349C63.687 12.665 64.191 13.3231 64.9054 13.612C66.1551 14.1344 67.8081 13.9627 68.6886 12.8515C69.3993 13.2696 70.1128 13.6858 70.8235 14.1048C70.2171 14.9955 69.3255 15.6914 68.3001 16.0311C66.3009 16.6762 63.8938 16.3366 62.3404 14.8552C60.9726 13.5668 60.4843 11.5464 60.8101 9.72996C61.0584 8.24212 61.9417 6.85029 63.2505 6.07961ZM64.778 8.04092C64.0719 8.38242 63.6206 9.09587 63.4471 9.84348C65.1924 9.8444 66.9378 9.84717 68.6813 9.84256C68.541 9.25739 68.2641 8.68515 67.7878 8.3012C66.9562 7.62281 65.724 7.58405 64.778 8.04092ZM87.3668 6.83182C88.5944 5.19262 91.0402 4.91851 92.7948 5.81194C94.5771 6.69523 95.6625 8.66116 95.7013 10.6206C95.7936 12.6336 94.7968 14.726 93.0117 15.7265C91.2378 16.7547 88.6544 16.5304 87.3696 14.8285C87.3705 16.6264 87.3687 18.4234 87.3705 20.2214C86.4845 20.2195 85.6003 20.2214 84.7151 20.2195C84.716 15.349 84.7133 10.4794 84.716 5.60888C85.6003 5.60796 86.4845 5.6098 87.3696 5.60796C87.3677 6.01407 87.3714 6.42202 87.3668 6.83182ZM89.5672 7.95231C89.1398 8.04276 88.7319 8.23013 88.3941 8.50702C87.0235 9.63304 87.0244 12.0291 88.3996 13.1514C89.5395 14.0836 91.4233 13.9479 92.3739 12.8025C93.3855 11.5861 93.2729 9.5306 92.0297 8.51164C91.3541 7.95324 90.4163 7.77971 89.5672 7.95231ZM99.9654 5.86824C101.826 4.96373 104.249 5.14094 105.818 6.54755C107.324 7.85448 107.912 10.0032 107.558 11.9331C104.976 11.9331 102.395 11.9285 99.8122 11.9349C100.011 12.6715 100.525 13.3277 101.242 13.6166C102.49 14.1298 104.136 13.959 105.013 12.8496C105.724 13.2677 106.438 13.683 107.148 14.1048C106.533 15.0057 105.627 15.709 104.585 16.0431C102.557 16.6809 100.111 16.3117 98.5772 14.7675C97.1402 13.3406 96.7331 11.1024 97.2555 9.18725C97.6349 7.76495 98.6289 6.50417 99.9654 5.86824ZM101.079 8.05292C100.384 8.39904 99.946 9.10602 99.7716 9.84348C101.516 9.84533 103.26 9.8444 105.007 9.84348C104.857 9.19278 104.517 8.56147 103.954 8.18305C103.115 7.61635 101.97 7.61174 101.079 8.05292ZM110.302 7.03673C111.481 5.71503 113.348 5.1114 115.087 5.36984C116.681 5.58304 118.167 6.57431 118.913 8.00953C118.152 8.46179 117.394 8.91682 116.633 9.36539C115.947 7.90709 113.875 7.54621 112.635 8.50149C111.197 9.56198 111.171 12.0069 112.589 13.097C113.828 14.0836 115.946 13.7569 116.66 12.2847C117.421 12.7388 118.194 13.1736 118.957 13.6267C118.089 15.2253 116.344 16.2868 114.527 16.3329C112.722 16.4326 110.88 15.5742 109.865 14.0652C108.424 11.9829 108.579 8.91498 110.302 7.03673ZM134.439 5.41506C136.333 5.02834 138.408 5.72611 139.648 7.21948C141.137 8.95374 141.358 11.623 140.226 13.6009C139.366 15.1524 137.696 16.2101 135.928 16.3246C134.241 16.4695 132.505 15.7745 131.408 14.4805C129.952 12.8118 129.678 10.257 130.67 8.28827C131.389 6.81244 132.825 5.71687 134.439 5.41506ZM134.68 8.06768C134.201 8.21074 133.762 8.48856 133.434 8.86513C132.412 10.0345 132.508 12.0355 133.701 13.0545C134.731 13.9535 136.436 13.9129 137.418 12.9613C138.642 11.8113 138.572 9.5749 137.237 8.53656C136.532 7.9717 135.542 7.81663 134.68 8.06768ZM73.1807 5.60888C74.0659 5.60704 74.9501 5.60704 75.8352 5.60888C75.8324 7.02011 75.8352 8.43133 75.8343 9.84533C76.1324 9.8444 76.4314 9.8444 76.7323 9.84533C77.719 8.43226 78.7066 7.02103 79.6942 5.60796C80.75 5.60611 81.8078 5.60889 82.8655 5.60705C81.5992 7.32931 80.3227 9.04603 79.0601 10.7701C80.3735 12.5266 81.6785 14.2894 82.9901 16.0468C81.9554 16.0246 80.9005 16.0985 79.8797 16.0126C78.8912 14.6596 77.9174 13.2935 76.9354 11.9331C76.5671 11.9322 76.2007 11.9312 75.8343 11.9322C75.8343 13.3037 75.8334 14.6752 75.8352 16.0468C74.9492 16.0468 74.0649 16.0486 73.1807 16.0459C73.1817 12.5672 73.1817 9.08756 73.1807 5.60888ZM120.119 5.60796C123.155 5.61627 126.192 5.5895 129.227 5.62088C129.202 6.48017 129.223 7.33946 129.215 8.2006C128.142 8.19875 127.069 8.20059 125.997 8.19967C125.993 10.8163 125.998 13.4329 125.995 16.0495C125.109 16.0495 124.225 16.0496 123.342 16.0477C123.343 13.4338 123.341 10.82 123.342 8.2052C122.268 8.19228 121.194 8.20429 120.119 8.19875C120.12 7.33392 120.12 6.47186 120.119 5.60796ZM142.508 5.60612C143.395 5.60889 144.281 5.60427 145.17 5.60796C145.168 7.02011 145.168 8.43226 145.168 9.8444C145.465 9.8444 145.766 9.8444 146.068 9.84348C147.059 8.42949 148.037 7.00534 149.043 5.60058C150.092 5.61442 151.144 5.60243 152.198 5.60705C150.93 7.3247 149.664 9.04511 148.393 10.7609C149.697 12.5284 151.017 14.2839 152.324 16.0495C151.287 16.0246 150.238 16.0938 149.215 16.0154C148.228 14.6605 147.252 13.2963 146.272 11.9349C145.904 11.9303 145.535 11.9303 145.171 11.9322C145.169 13.3037 145.169 14.6752 145.169 16.0468C144.282 16.0486 143.393 16.0468 142.509 16.0468C142.51 12.5672 142.508 9.08665 142.508 5.60612ZM6.94457 12.0162C7.67372 11.2732 8.40564 10.532 9.13386 9.7881C9.91839 10.5883 10.7168 11.3765 11.4865 12.1915C12.4953 13.3342 12.4953 15.1967 11.4902 16.3412C10.5811 17.4506 8.86712 17.7663 7.62849 17.0371C6.72767 16.5387 6.11759 15.5724 6.03636 14.5506C5.95145 13.6267 6.28834 12.6733 6.94457 12.0162Z" fill="#BEBEBE"/>
<path d="M1.27265 7.1134C1.81813 6.27534 2.78725 5.73263 3.78867 5.72525C4.61842 5.69941 5.44541 6.03998 6.03334 6.62607C6.77541 7.37737 7.51287 8.13421 8.25678 8.88551C7.46579 9.68572 6.68865 10.4989 5.88474 11.2852C4.75687 12.3227 2.85924 12.294 1.75813 11.2317C0.621955 10.2164 0.407826 8.36403 1.27265 7.1134Z" fill="#BEBEBE"/>
<path d="M12.2561 6.61865C12.893 5.97996 13.8169 5.64676 14.7158 5.73629C15.7431 5.82397 16.6947 6.47005 17.17 7.38471C17.9139 8.73225 17.5032 10.5856 16.2341 11.467C15.0933 12.3263 13.3664 12.2211 12.3364 11.2326C11.5565 10.461 10.7987 9.66723 10.0234 8.89193C10.7637 8.12956 11.5103 7.37457 12.2561 6.61865Z" fill="#BEBEBE"/>
</svg>
