<svg width="123" height="16" viewBox="0 0 123 16" fill="none" xmlns="http://www.w3.org/2000/svg">
<path d="M3.73386 14.9693L0 1.14666H2.44931L5.31865 11.7636L8.39341 1.14564L10.6765 1.14666L13.762 11.8196L16.6441 1.14921L19.0934 1.14564L15.3575 14.9673L12.5182 14.9642L9.53625 4.64145L6.55018 14.9668L3.73386 14.9693ZM20.7827 1.1538H23.1142V14.9607H20.7827V1.1538ZM28.0995 12.7948H33.7755V14.9607H25.8159V1.1538H28.0995V12.7948ZM40.9476 1.1696C42.8611 1.1696 44.4531 1.83838 45.7075 3.16014C46.9778 4.4819 47.6206 6.12225 47.6206 8.06488C47.6206 9.9917 46.9778 11.632 45.707 12.9701C44.4531 14.2919 42.8611 14.9607 40.9476 14.9607H35.4643V1.1538H40.9476V1.1696ZM40.9476 12.8106C42.2663 12.8106 43.3433 12.3651 44.1477 11.473C44.9837 10.581 45.4017 9.43455 45.4017 8.08119C45.4017 6.69571 44.9837 5.5809 44.1477 4.68886C43.327 3.79681 42.25 3.35129 40.9476 3.35129H37.7637V12.8106H40.9476ZM59.9222 11.0163C59.9222 12.1479 59.5205 13.0879 58.7003 13.8367C57.8802 14.5855 56.9152 14.9678 55.7255 14.9678H49.7595V1.1538H55.2912C56.433 1.1538 57.3974 1.5361 58.1855 2.25331C58.9899 2.98581 59.3758 3.89468 59.3758 4.97788C59.3758 6.18852 58.893 7.11268 57.9607 7.79777C59.1826 8.43495 59.9222 9.58238 59.9222 11.0163ZM52.0589 3.2886V6.92153H55.307C56.3204 6.92153 57.0921 6.1248 57.0921 5.10532C57.0921 4.08583 56.3204 3.2886 55.307 3.2886H52.0589ZM55.7413 12.8325C56.8026 12.8325 57.6391 11.9884 57.6391 10.9046C57.6391 9.82145 56.8026 8.9768 55.7413 8.9768H52.0589V12.8488H55.7413V12.8325ZM64.3763 12.8009H70.5513V14.9678H62.0932V1.1538H70.455V3.3202H64.3763V6.90572H69.9565V9.05684H64.3763V12.8009ZM80.5535 14.9678L77.5944 9.93308H74.8928V14.9678H72.6097V1.1538H78.1893C79.4438 1.1538 80.5051 1.58402 81.3573 2.46026C82.2254 3.30491 82.676 4.35651 82.676 5.59926C82.676 7.35175 81.5663 8.961 79.9102 9.59818L83.0777 14.9678H80.5535ZM74.8928 3.2886V7.90941H78.1735C79.3953 7.90941 80.3603 6.88992 80.3603 5.59926C80.3603 4.32439 79.3795 3.2886 78.1735 3.2886H74.8928ZM92.7582 14.9678L89.8155 9.93053H87.1139V14.9678H84.8307V1.14666H90.4104C91.6648 1.14666 92.7261 1.57688 93.5784 2.45364C94.4465 3.29879 94.8971 4.3509 94.8971 5.59416C94.8971 7.34767 93.7874 8.95794 92.1312 9.59563L95.2988 14.9678H92.7582ZM87.1139 3.28248V7.90584H90.3946C91.6164 7.90584 92.5814 6.88533 92.5814 5.59416C92.5814 4.31878 91.6006 3.28248 90.3946 3.28248H87.1139ZM96.9712 1.14819H99.2549V14.9678H96.9712V1.14819ZM104.24 12.8009H110.415V14.9673H101.956V1.1538H110.318V3.32122H104.24V6.90623H109.819V9.05734H104.24V12.8014V12.8009ZM112.007 11.8232L113.984 10.6768C114.547 12.2376 115.689 13.0017 117.441 13.0017C119.178 13.0017 120.03 12.2692 120.03 11.1865C120.03 10.6131 119.789 10.1992 119.339 9.91218C118.889 9.6099 118.053 9.275 116.863 8.92532C115.528 8.52721 114.869 8.27234 113.936 7.66728C113.036 7.0301 112.585 6.12276 112.585 4.88001C112.585 3.65408 113.019 2.69831 113.904 1.98162C114.772 1.24912 115.834 0.898926 117.072 0.898926C119.307 0.898926 121.027 2.04584 121.928 3.94055L119.998 5.03956C119.419 3.7652 118.439 3.11273 117.072 3.11273C115.737 3.11273 114.885 3.78152 114.885 4.8326C114.885 5.85158 115.56 6.32921 117.699 6.98218C118.23 7.15754 118.615 7.28497 118.857 7.38029C119.114 7.45981 119.451 7.60356 119.886 7.7784C120.336 7.95375 120.69 8.16071 120.899 8.33606C121.639 8.90901 122.426 9.84897 122.33 11.1702C122.33 12.4125 121.88 13.4161 120.963 14.1486C120.063 14.8811 118.873 15.2313 117.394 15.2313C114.692 15.2155 112.73 13.9417 112.007 11.8237V11.8232Z" fill="#BEBEBE"/>
</svg>
