<svg width="66" height="15" viewBox="0 0 66 15" fill="none" xmlns="http://www.w3.org/2000/svg">
<g clip-path="url(#clip0_2529_2220)">
<path fill-rule="evenodd" clip-rule="evenodd" d="M7.9314 0.041019C6.44762 -0.12126 4.95186 0.197596 3.6497 0.95376C2.34754 1.70992 1.30291 2.86628 0.659399 4.26387C0.0158867 5.66147 -0.194919 7.2317 0.055958 8.75873C0.306835 10.2858 1.00708 11.6946 2.06044 12.7917C3.1138 13.8888 4.46856 14.6202 5.93852 14.8854C7.40848 15.1506 8.92147 14.9366 10.2695 14.2727C11.6176 13.6089 12.7345 12.5279 13.4668 11.1782C14.1992 9.82859 14.5109 8.27656 14.3592 6.7355C14.1922 5.02251 13.4619 3.42156 12.2911 2.20222C11.1204 0.982888 9.58072 0.219648 7.9314 0.041019ZM7.69738 11.466C6.89936 11.5771 6.08786 11.4258 5.37692 11.0334C4.66598 10.641 4.09134 10.0271 3.73377 9.27808C3.37621 8.52905 3.25368 7.68252 3.38342 6.85746C3.51316 6.0324 3.88863 5.27028 4.45708 4.67823C5.02553 4.08617 5.75837 3.69394 6.55261 3.55665C7.34684 3.41937 8.16255 3.54394 8.88508 3.91284C9.60761 4.28175 10.2006 4.87646 10.5808 5.61338C10.961 6.3503 11.1092 7.19239 11.0047 8.0213C10.895 8.89317 10.5115 9.70317 9.91358 10.3259C9.31569 10.9486 8.53676 11.3493 7.69738 11.466ZM18.2218 0.337655C17.9713 0.338277 17.7241 0.39687 17.4982 0.509168C17.2723 0.621467 17.0733 0.784647 16.9158 0.986835C16.7583 1.18902 16.6461 1.42513 16.5875 1.67798C16.529 1.93083 16.5254 2.19406 16.5771 2.44851C16.7356 3.27286 17.4772 3.83612 18.2851 3.83612H22.9733L15.6773 13.8608C15.6234 13.9349 15.5903 14.023 15.5819 14.1154C15.5735 14.2078 15.5901 14.3008 15.6297 14.384C15.6694 14.4672 15.7305 14.5373 15.8064 14.5864C15.8823 14.6356 15.9698 14.6618 16.0592 14.6621H27.5036C28.3109 14.6621 29.053 14.099 29.2115 13.2745C29.2632 13.0201 29.2597 12.7569 29.2012 12.5041C29.1426 12.2513 29.0306 12.0152 28.8731 11.813C28.7157 11.6108 28.5168 11.4475 28.2909 11.3352C28.0651 11.2228 27.818 11.1641 27.5675 11.1634H21.8553L29.1456 1.14643C29.2001 1.0717 29.2335 0.982691 29.2419 0.88938C29.2504 0.796069 29.2337 0.702151 29.1936 0.618162C29.1536 0.534173 29.0917 0.463437 29.0151 0.413889C28.9385 0.364341 28.8501 0.337943 28.7598 0.337655H18.2218ZM63.9528 0.378009C63.5739 0.471553 63.2371 0.696551 62.9981 1.0158C62.759 1.33506 62.6321 1.72944 62.6383 2.13375V7.95857L53.5478 0.447672C53.4765 0.388918 53.3907 0.352253 53.3002 0.341894C53.2098 0.331534 53.1183 0.347902 53.0364 0.389113C52.9545 0.430325 52.8855 0.494706 52.8373 0.574851C52.789 0.654995 52.7636 0.747647 52.7638 0.842148V12.8691C52.7576 13.2735 52.8845 13.6679 53.1236 13.9871C53.3626 14.3064 53.6994 14.5314 54.0783 14.6249C54.3243 14.6811 54.5794 14.6792 54.8246 14.6194C55.0699 14.5597 55.2991 14.4435 55.4953 14.2794C55.6916 14.1154 55.8498 13.9077 55.9585 13.6717C56.0671 13.4357 56.1233 13.1774 56.1229 12.9159V7.04063L65.2135 14.5517C65.2848 14.6104 65.3706 14.647 65.461 14.6574C65.5514 14.6677 65.6428 14.6514 65.7247 14.6102C65.8066 14.569 65.8756 14.5046 65.9238 14.4245C65.972 14.3444 65.9975 14.2518 65.9973 14.1573V2.08646C65.9975 1.82496 65.9413 1.56673 65.8326 1.33081C65.724 1.09489 65.5657 0.887295 65.3695 0.723336C65.1733 0.559378 64.9441 0.443233 64.6989 0.383466C64.4537 0.323699 64.1987 0.321834 63.9528 0.378009ZM40.2837 3.50125C44.1287 3.50125 47.0017 5.61098 47.0017 7.49812C47.0017 9.38526 44.1287 11.495 40.2837 11.495C36.4387 11.495 33.5657 9.38526 33.5657 7.49812C33.5657 5.61098 36.4387 3.50125 40.2837 3.50125ZM40.2837 0.00293071C34.7182 0.00293071 30.2066 3.35867 30.2066 7.49812C30.2066 11.6376 34.7182 14.9933 40.2837 14.9933C45.8492 14.9933 50.3607 11.6376 50.3607 7.49812C50.3607 3.35867 45.8491 0.00293071 40.2837 0.00293071Z" fill="#BEBEBE"/>
</g>
<defs>
<clipPath id="clip0_2529_2220">
<rect width="66" height="15" fill="white"/>
</clipPath>
</defs>
</svg>
