<svg width="110" height="26" viewBox="0 0 110 26" fill="none" xmlns="http://www.w3.org/2000/svg">
<path d="M37.6516 21.6077H40.3541L44.1314 7.5734V21.6077H47.1716V3.05908H42.9951L39.2178 16.6635L35.4405 3.05908H31.1719V21.6077H33.7822V7.5734L37.6516 21.6077ZM59.8854 12.4255C59.8854 9.1396 58.2578 7.91121 54.8798 7.91121C52.7608 7.91121 51.1025 8.55612 50.1198 9.1396V11.7499C50.9489 11.105 52.8222 10.4294 54.4805 10.4294C56.0467 10.4294 56.6916 11.0129 56.6916 12.3948V13.1319H56.2003C51.3481 13.1319 49.137 14.7595 49.137 17.4926C49.137 20.2258 50.7647 21.7613 53.2521 21.7613C55.1254 21.7613 55.9546 21.1778 56.5381 20.5329H56.6916C56.6916 20.8707 56.8452 21.3621 56.9373 21.6077H60.0697C59.9776 20.5329 59.9161 19.3966 59.9161 18.3218C59.8854 18.3218 59.8854 12.4255 59.8854 12.4255ZM56.6916 18.4139C56.2924 18.9974 55.5554 19.4888 54.3884 19.4888C53.0679 19.4888 52.423 18.6596 52.423 17.5233C52.423 15.9571 53.4978 15.4044 56.2924 15.4044H56.7837V18.4446H56.6916V18.4139ZM65.3825 8.15689H62.4343V25.4771H65.6281V20.0722C66.4573 21.3006 67.5936 21.8841 69.0062 21.8841C72.1386 21.8841 74.2576 19.4273 74.2576 14.913C74.2576 10.3987 72.2 7.94192 69.1598 7.94192C67.6857 7.94192 66.4573 8.58683 65.536 9.90734C65.5667 9.87663 65.3825 8.15689 65.3825 8.15689ZM68.1156 19.3966C66.488 19.3966 65.5667 18.0147 65.5667 14.9744C65.5667 11.8421 66.4573 10.4601 68.2692 10.4601C69.9889 10.4601 70.8795 11.8421 70.8795 14.8823C70.8795 18.0147 69.9889 19.3966 68.1156 19.3966ZM84.1768 21.6077H87.8005L82.7027 14.391L87.217 8.15689H84.0232L79.5089 14.391V8.15689H76.3151V21.6077H79.5089V15.0359L84.1768 21.6077ZM98.4568 20.7171V18.1068C97.4741 18.7517 95.8465 19.3352 94.2803 19.3352C91.9771 19.3352 91.0865 18.2604 90.9022 15.9571H98.5182V14.2374C98.5182 9.56954 96.4607 7.84979 93.2669 7.84979C89.3974 7.84979 87.5241 10.7979 87.5241 14.913C87.5241 19.5809 89.8274 21.8841 93.8503 21.8841C96.0921 21.8534 97.5662 21.3621 98.4568 20.7171ZM93.2976 10.4601C94.8638 10.4601 95.3551 11.7806 95.3551 13.4082V13.6539H90.9022C90.9943 11.535 91.8235 10.4601 93.2976 10.4601ZM109.942 10.7058V8.15689H99.2859V10.7058H103.063V21.6077H106.257V10.7058H109.942Z" fill="#BEBEBE"/>
<path fill-rule="evenodd" clip-rule="evenodd" d="M23.545 17.6527C21.6172 21.9285 17.3223 24.8938 12.3151 24.8938C8.08051 24.8938 4.31218 22.7538 2.09173 19.4883L6.35753 13.8386L5.52837 19.6734L10.0427 21.2396L15.5397 12.4566C15.294 14.0842 14.8948 17.8615 18.4879 19.0285C20.2637 19.569 21.9698 18.9356 23.545 17.6527ZM24.4054 10.22C22.6365 12.8891 20.932 14.7765 20.0233 14.5449C18.4841 14.1525 19.8221 9.31074 20.714 6.08332C20.7296 6.02686 20.7451 5.97089 20.7604 5.91545V5.82332L15.7547 4.10358L9.7663 13.8693L10.5955 8.52577L6.2654 7.021L0.210332 14.9458C0.0656369 14.1802 -0.00679417 13.389 0.000501418 12.5792C0.000501418 5.76168 5.49754 0.264648 12.3151 0.264648C18.3254 0.264648 23.3094 4.53701 24.4054 10.22Z" fill="#BEBEBE"/>
</svg>
