<svg width="109" height="22" viewBox="0 0 109 22" fill="none" xmlns="http://www.w3.org/2000/svg">
<g clip-path="url(#clip0_2529_2209)">
<path fill-rule="evenodd" clip-rule="evenodd" d="M12.6691 0C19.1191 0 23.9103 4.16989 25.0505 9.30179C26.762 17.0057 21.0796 21.8954 15.2133 21.8954C8.64839 21.8257 5.3556 16.4458 5.36396 12.2431L0.0807608 12.149C0.0805307 12.1207 -0.100067 19.5803 0.0796105 12.0643C0.259288 4.54827 6.2191 7.43388e-05 12.6691 7.43388e-05V0ZM15.2851 7.57602C17.9606 7.57602 20.1294 9.67847 20.1294 12.272C20.1294 14.8655 17.9606 16.968 15.2851 16.968C12.6097 16.968 10.4408 14.8655 10.4408 12.272C10.4408 9.67847 12.6097 7.57602 15.2851 7.57602Z" fill="#BEBEBE"/>
<path fill-rule="evenodd" clip-rule="evenodd" d="M35.9434 12.0024C38.3732 12.0024 40.4089 13.6372 40.9443 15.8342H38.2473C37.835 14.928 36.9503 14.3015 35.9255 14.3015C34.5064 14.3015 33.3561 15.5024 33.3561 16.9837C33.3561 18.4652 34.5064 19.666 35.9255 19.666C36.9372 19.666 37.8122 19.0555 38.2311 18.168H40.9354C40.3871 20.3473 38.3603 21.965 35.9433 21.965C33.1053 21.965 30.8047 19.7348 30.8047 16.9837C30.8047 14.2326 33.1053 12.0024 35.9433 12.0024H35.9434Z" fill="#BEBEBE"/>
<path fill-rule="evenodd" clip-rule="evenodd" d="M72.3105 12.0376C75.1485 12.0376 77.4491 14.2678 77.4491 17.0189C77.4491 19.7699 75.1485 22.0001 72.3105 22.0001C69.4725 22.0001 67.1719 19.7699 67.1719 17.0189C67.1719 14.2678 69.4725 12.0376 72.3105 12.0376ZM72.2926 14.3366C73.7115 14.3366 74.8618 15.5375 74.8618 17.0188C74.8618 18.5002 73.7115 19.701 72.2926 19.701C70.8736 19.701 69.7233 18.5003 69.7233 17.0188C69.7233 15.5375 70.8736 14.3366 72.2926 14.3366Z" fill="#BEBEBE"/>
<path fill-rule="evenodd" clip-rule="evenodd" d="M93.4277 12.0376C94.549 12.0376 95.5763 12.4723 96.3744 13.1942V12.2118H99.0694V21.8608H96.3744V20.8435C95.5763 21.5655 94.549 22.0002 93.4277 22.0002C90.8874 22.0002 88.8281 19.77 88.8281 17.019C88.8281 14.2678 90.8874 12.0377 93.4277 12.0377V12.0376ZM94.0207 14.3366C95.4396 14.3366 96.5899 15.5375 96.5899 17.0188C96.5899 18.5002 95.4396 19.701 94.0207 19.701C92.6017 19.701 91.4514 18.5003 91.4514 17.0188C91.4514 15.5375 92.6017 14.3366 94.0207 14.3366Z" fill="#BEBEBE"/>
<path fill-rule="evenodd" clip-rule="evenodd" d="M49.6712 12.177H52.3663V21.8261H49.6712V20.8088C48.8732 21.5307 47.8459 21.9654 46.7246 21.9654C44.1843 21.9654 42.125 19.7353 42.125 16.9842C42.125 14.2331 44.1843 12.0029 46.7246 12.0029C47.8459 12.0029 48.8732 12.4376 49.6712 13.1596V12.1771V12.177ZM47.3268 14.3287C48.7294 14.3287 49.8662 15.514 49.8662 16.976C49.8662 18.4381 48.7293 19.6234 47.3268 19.6234C45.9243 19.6234 44.7875 18.4381 44.7875 16.976C44.7875 15.514 45.9244 14.3287 47.3268 14.3287Z" fill="#BEBEBE"/>
<path fill-rule="evenodd" clip-rule="evenodd" d="M63.05 12.2468H65.4044V21.8958H62.7813V16.2527L62.6326 16.2852L59.9037 19.5276L57.0762 16.3223V21.8958H54.4531V12.2468L56.8435 12.2119L59.8688 16.2424L59.9106 16.2284L63.0501 12.2468H63.05Z" fill="#BEBEBE"/>
<path fill-rule="evenodd" clip-rule="evenodd" d="M79.3047 12.2467H81.7284V16.0358L81.9073 16.0361L85.2821 12.2467H88.3754L84.316 16.9168L89.3157 21.8957H85.7523L81.8892 17.9648L81.7284 17.9462V21.8956H79.3047V12.2466V12.2467Z" fill="#BEBEBE"/>
<path fill-rule="evenodd" clip-rule="evenodd" d="M106.109 14.4413V21.8958H103.541V14.4413H100.711V12.2388H109.003V14.4413H106.109Z" fill="#BEBEBE"/>
</g>
<defs>
<clipPath id="clip0_2529_2209">
<rect width="109" height="22" fill="white"/>
</clipPath>
</defs>
</svg>
