<svg width="56" height="56" viewBox="0 0 56 56" fill="none" xmlns="http://www.w3.org/2000/svg">
<path d="M54.9772 27.9886C54.9772 13.0887 42.8886 1 27.9886 1C13.0887 1 1 13.0887 1 27.9886C1 42.8886 13.0887 54.9772 27.9886 54.9772C42.8886 54.9772 54.9772 42.8886 54.9772 27.9886Z" stroke="#585757" stroke-width="0.915258" stroke-miterlimit="10"/>
<path d="M16.4946 3.5614C22.3671 4.1549 25.3034 4.52974 21.3988 7.37229C17.463 10.2148 16.682 9.80877 15.7137 10.7146C14.7453 11.5893 15.4326 7.90332 14.0581 8.9029C12.6837 9.93371 12.4963 13.3698 10.341 13.932C8.18562 14.5255 9.40385 15.0253 6.71749 15.3065C4.03112 15.5876 3.71875 16.2436 3.71875 16.2436" stroke="#585757" stroke-width="0.915258" stroke-miterlimit="10"/>
<path d="M1.0625 25.9895C4.43608 26.8017 2.65558 31.6121 5.02958 32.6742C7.37234 33.7675 9.43397 34.4547 8.96542 36.8912C8.46563 39.3589 9.84005 37.6721 8.96542 41.0144C8.09079 44.3568 7.84089 45.9186 7.84089 45.9186" stroke="#585757" stroke-width="0.915258" stroke-miterlimit="10"/>
<path d="M41.9244 4.87329C41.9244 4.87329 40.7999 5.49803 38.7383 5.62297C36.6766 5.71669 37.7699 6.02905 35.4896 5.12319C33.2406 4.24855 33.2406 5.8104 32.9282 8.49676C32.6471 11.1831 30.7729 9.24645 29.8982 8.90284C29.0236 8.55924 25.2752 8.15316 24.9003 8.90284C24.4943 9.65253 24.8066 12.089 23.7133 12.6825C22.6201 13.276 23.2135 11.2144 21.9328 11.2144C20.6521 11.2144 20.1523 12.9949 20.2773 14.6504C20.4022 16.306 22.0266 15.9311 21.4331 16.8995C20.8396 17.8678 18.6842 16.8995 18.8716 18.3676C19.0278 19.8357 19.9649 20.1481 18.8716 20.7104C17.7783 21.3039 17.5284 21.585 16.5289 22.9594C15.5605 24.3338 12.9054 27.5825 14.1861 30.3313C15.4668 33.1114 16.9349 33.6424 18.8716 33.0489C20.8083 32.4554 22.5263 34.9231 23.1511 36.5787C23.7446 38.2342 23.932 47.2304 26.7433 47.4803C30.1794 47.7615 30.7729 46.2933 31.8349 44.5441C32.9282 42.7636 33.2093 40.7332 34.2714 38.6715C35.3647 36.6099 37.3014 33.2676 38.4884 31.8931C39.6754 30.5187 38.8944 29.9877 38.0823 30.3313C37.3014 30.7061 36.2393 31.0185 36.1144 30.3313C35.9894 29.6441 37.52 28.7382 38.7695 28.4571C40.019 28.2072 40.2064 27.7074 40.6125 26.864C41.0185 26.0206 41.0185 25.802 41.0185 25.146C41.0185 24.49 40.9873 23.834 41.8619 24.0215C42.7053 24.2089 42.9865 25.2085 43.6737 25.8332C44.3609 26.4579 44.6733 25.7707 44.9231 26.208C45.173 26.6141 45.3605 27.5512 45.7978 28.3009C46.2351 29.0818 46.9848 31.0498 47.4846 31.1122C47.9844 31.1435 48.0781 31.1435 48.3592 30.2064C48.6403 29.238 47.4533 28.3634 47.9531 26.864C48.4841 25.3646 48.6403 24.1776 49.2338 24.1776C49.8273 24.1776 50.2334 25.2085 50.702 26.0519C51.1705 26.8953 51.7015 26.6141 51.5141 28.0198C51.3267 29.4254 50.4521 27.8948 51.0456 30.0814C51.6391 32.2992 51.4516 33.4238 52.4825 33.986C53.5133 34.5483 54.0755 34.6732 54.0755 34.6732" stroke="#585757" stroke-width="0.915258" stroke-miterlimit="10"/>
<path d="M53.7296 19.8358C53.2298 21.4601 52.3239 22.5222 52.9799 23.8341C53.6359 25.1461 53.1985 28.2698 52.9174 28.832C52.6363 29.3943 52.6988 31.1748 53.261 30.9561C53.8233 30.7375 55.0103 27.9886 55.0103 27.9886" stroke="#585757" stroke-width="0.915258" stroke-miterlimit="10"/>
<path d="M49.6359 44.1381C48.5426 44.263 47.0433 44.8877 47.4181 44.1381C47.8242 43.3884 49.9171 41.3892 50.4169 40.2022C50.9166 39.0152 51.6976 37.7033 52.1349 37.6408C52.5722 37.5783 53.1969 37.6408 53.1969 37.6408" stroke="#585757" stroke-width="0.915258" stroke-miterlimit="10"/>
</svg>
