<svg width="56" height="37" viewBox="0 0 56 37" fill="none" xmlns="http://www.w3.org/2000/svg">
<path d="M43.128 19.8765C43.4091 19.6266 44.4087 18.6895 45.502 17.6274C47.0326 16.1905 48.7818 14.4725 49.063 13.9727C50.0001 12.3797 47.7823 11.5675 45.7831 12.3797C43.7527 13.1918 44.6898 14.1914 40.2542 16.6591C35.8186 19.1268 34.288 20.5949 33.1634 21.657C32.0389 22.719 27.0098 27.5608 29.9148 35.9947H34.2567H39.2546C39.2546 35.9947 38.8173 30.4658 42.1596 27.3733C44.6273 25.093 45.4083 24.4371 46.5328 23.2501C48.4382 21.2509 52.7489 16.3467 52.7489 16.3467C55.1854 5.75743 55.0604 8.31888 54.7793 6.22602C54.4982 4.16438 54.0609 0.322256 52.6552 1.10318C51.2183 1.8841 50.9997 5.25767 51.2808 7.00694C51.5619 8.88115 49.2192 12.8482 49.2192 12.8482" stroke="#585757" stroke-width="0.846614" stroke-miterlimit="10"/>
<path d="M12.798 19.8765C12.5168 19.6266 11.5173 18.6895 10.424 17.6274C8.89337 16.1905 7.14411 14.4725 6.86298 13.9727C5.92587 12.3797 8.14369 11.5675 10.1428 12.3797C12.1732 13.1918 11.2361 14.1914 15.6718 16.6591C20.1074 19.1268 21.638 20.5949 22.7625 21.657C23.887 22.719 28.9162 27.5608 26.0112 35.9947H21.0757H16.6713C16.6713 35.9947 17.1087 30.4658 13.7663 27.3733C11.2986 25.093 10.5177 24.4371 9.39316 23.2501C7.48772 21.2509 3.17703 16.3467 3.17703 16.3467C0.740561 5.75743 0.865508 8.31888 1.14664 6.22602C1.42777 4.16438 1.86509 0.322256 3.27074 1.10318C4.70764 1.8841 4.9263 5.25767 4.64516 7.00694C4.36403 8.88115 6.70679 12.8482 6.70679 12.8482" stroke="#585757" stroke-width="0.846614" stroke-miterlimit="10"/>
<path d="M29.4387 3.17877C32.3437 0.273744 37.0605 0.273744 39.9655 3.17877C42.8705 6.08379 42.8705 10.8005 39.9655 13.7056L27.9393 25.7317C23.941 21.7334 19.9115 17.7039 15.9131 13.7056C13.0081 10.8005 13.0081 6.08379 15.9131 3.17877C18.8182 0.273744 23.5349 0.273744 26.44 3.17877C26.9397 3.67856 27.4395 4.1783 27.9081 4.64686C28.4079 4.14707 28.9077 3.64732 29.3762 3.17877H29.4387Z" stroke="#585757" stroke-width="0.846614" stroke-miterlimit="10"/>
</svg>
