<svg width="38" height="56" viewBox="0 0 38 56" fill="none" xmlns="http://www.w3.org/2000/svg">
<path d="M13.7446 47.3867C13.7446 39.2026 7.15365 33.0177 5.87294 31.6433C2.84297 28.3947 1 24.0215 1 19.2423C1 9.1528 9.18405 1 19.2423 1C29.3318 1 37.4846 9.18404 37.4846 19.2423C37.4846 24.0215 35.6416 28.3947 32.6117 31.6433C31.3622 32.9865 24.74 39.2026 24.74 47.3867" stroke="#585757" stroke-width="0.915258" stroke-miterlimit="10"/>
<path d="M25.0578 47.3867V52.8844L22.8088 54.9773H19.5602H19.5289H16.2491L14 52.8844V47.3867" stroke="#585757" stroke-width="0.915258" stroke-miterlimit="10"/>
<path d="M21.2761 46.6682L25.9303 26.3955C26.0865 25.7707 25.5867 25.2085 25.0869 25.3959L23.0253 26.1768C22.463 26.3955 21.8383 26.3018 21.3385 25.9269L20.6201 25.3959C20.214 25.1148 19.7142 25.1148 19.3394 25.3959L18.6209 25.9269C18.1211 26.3018 17.4964 26.3955 16.9341 26.1768L14.8725 25.3959C14.3727 25.2085 13.8729 25.7707 14.0291 26.3955L18.6834 46.6682" stroke="#585757" stroke-width="0.915258" stroke-miterlimit="10"/>
<path d="M14 46.6682H24.9954" stroke="#585757" stroke-width="0.915258" stroke-miterlimit="10"/>
<path d="M14 50.1667L25.0266 48.3862" stroke="#585757" stroke-width="0.915258" stroke-miterlimit="10"/>
<path d="M14 52.978L25.0266 51.1975" stroke="#585757" stroke-width="0.915258" stroke-miterlimit="10"/>
</svg>
