<svg width="72" height="76" viewBox="0 0 72 76" fill="none" xmlns="http://www.w3.org/2000/svg">
<path d="M66.0499 45.7119L66.06 45.6698L66.0625 45.6597C66.5189 43.5371 67.0268 41.157 67.0715 38.6842C67.1162 36.2147 66.7028 33.6283 65.3184 31.0679C64.2107 29.0169 62.639 27.2733 60.621 25.8462C58.5954 24.414 56.1143 23.2976 53.1978 22.5095L47.7108 21.7855C45.8919 21.7871 44.2299 22.0136 42.7223 22.3293C41.2105 22.6459 39.8312 23.0585 38.602 23.4281L38.5876 23.4331C35.3211 24.4123 29.2426 26.2343 24.4684 32.0067C22.9651 33.8244 21.7469 35.8291 20.8239 38.0039C19.9018 40.1761 19.2716 42.5243 18.9418 45.0299L18.9409 45.0375L18.9401 45.0409L18.9392 45.0484L18.9375 45.0594C18.7384 46.5665 18.5275 48.178 18.584 49.8425C18.6397 51.4919 18.9603 53.212 19.8183 54.9674C20.6147 56.5974 21.6633 57.8334 22.771 58.8286C23.8838 59.828 25.0666 60.5933 26.122 61.2744L29.0924 62.8725C29.5809 62.4751 29.9471 62.1332 30.2516 61.8503C30.9712 61.1793 31.3855 60.7954 32.2114 60.6935C32.2612 60.6851 32.3135 60.6859 32.3658 60.6952L34.0826 61.0387C34.1222 61.0463 34.1585 61.0597 34.1931 61.0774C34.8807 61.3645 35.4054 61.767 35.7893 62.1433C36.1799 62.5264 36.4228 62.8809 36.5485 63.0695C36.9029 63.6024 37.1197 64.1227 37.2581 64.601C37.2969 64.7332 37.3298 64.862 37.3576 64.9857L39.9071 65.1146L40.6124 65.1019C40.7904 64.8199 40.9574 64.5227 41.1219 64.2305L41.1591 64.1674L41.1641 64.1573L41.1692 64.148H41.17L41.1751 64.1387C41.4265 63.6908 41.6273 63.3355 41.7496 63.0232C41.8542 62.7563 41.9082 62.5079 41.8989 62.2309L40.8984 59.828L40.8714 59.7278L40.7862 59.2605L39.9408 59.2874L39.9299 59.2883H39.9189H39.918H39.897H39.8868H39.886L39.875 59.2874C39.2474 59.2571 38.375 59.2672 37.7845 59.1805C36.2735 59.0273 32.8222 58.661 29.3152 56.3928L29.2958 56.3794C28.4116 55.8094 27.5874 55.2756 26.8754 54.6668C26.1346 54.0337 25.5112 53.3197 25.0632 52.4113C24.6093 51.4818 24.4313 50.5354 24.417 49.4501C24.4035 48.3994 24.5435 47.2232 24.73 45.7995C24.9873 43.8436 25.4732 42.0174 26.1802 40.3369C26.8872 38.6539 27.8194 37.1106 28.9693 35.7222C30.7983 33.5121 32.8711 32.0597 34.868 31.0469C36.8531 30.0399 38.7564 29.4682 40.2699 29.0144L40.3011 29.0051C42.5958 28.3198 44.9597 27.6142 47.7319 27.6142C48.8986 27.7313 50.5252 27.9098 51.6556 28.1329C53.7496 28.6953 55.5153 29.4556 56.936 30.4002C58.3753 31.3559 59.4619 32.5068 60.1823 33.8404C61.9363 37.076 61.166 40.6695 60.3502 44.4692V44.4717L60.3485 44.4793L60.3468 44.4869L60.346 44.4885L60.3443 44.497L60.3418 44.5071C59.8035 47.0034 58.9869 50.7552 55.9515 53.6557C55.1888 54.3848 54.4068 54.9405 53.5471 55.4195C52.8469 55.8094 52.0935 56.1495 51.2532 56.4939C51.8075 57.2137 52.1542 57.9328 52.3845 58.6038L52.3913 58.6265C52.6174 59.29 52.7313 59.9021 52.8233 60.4199C52.9253 60.9966 52.976 61.5498 52.9886 62.076C54.1503 61.6112 55.2597 61.1313 56.3362 60.5377C57.5772 59.8541 58.781 59.0147 59.9815 57.8704C64.3263 53.7247 65.4483 48.5206 66.0524 45.7127L66.0499 45.7119ZM71.9942 52.2698V52.2909L71.9596 53.0335C71.8187 56.1099 71.7579 57.4141 70.9455 60.3761C70.7084 61.2357 70.2723 62.2646 69.7079 63.2968C69.1764 64.2701 68.5251 65.2535 67.8165 66.1038L67.7987 66.1241C67.4486 66.5374 66.4852 67.5798 65.1573 68.7375C64.3204 69.4674 63.3316 70.2488 62.2543 70.9551C59.9259 72.4824 58.0176 73.3943 56.3615 73.9676C54.6995 74.5435 53.2982 74.7776 51.983 74.9527C50.7209 75.1177 49.1399 75.2263 47.6019 75.175C46.4386 75.1363 45.2938 75.0057 44.3244 74.7414L43.8207 75.0091C43.7937 75.0234 43.7651 75.0352 43.7364 75.0428C43.0066 75.3055 42.0508 75.6473 40.9144 75.8426C39.7493 76.043 38.4012 76.0919 36.9248 75.75C36.5081 75.6541 35.9327 75.4899 35.2595 75.2002C34.6571 74.9401 33.9797 74.5789 33.2761 74.072C31.6326 74.9839 29.9825 75.1455 28.4471 75.2878L28.404 75.2937C27.1462 75.4099 26.0317 75.3577 25.1324 75.2491C24.244 75.1421 23.5548 74.9788 23.138 74.8685L23.1169 74.8635C22.593 74.7237 21.881 74.5275 21.0627 74.1874L21.039 74.1781C20.2123 73.8321 19.2792 73.3353 18.331 72.5978C17.6324 72.053 17.0714 71.4906 16.6065 70.9391C16.2581 70.9695 15.8633 71.0057 15.5942 70.9863C13.9263 70.8423 11.9454 70.6697 9.74099 69.39C8.64004 68.7501 7.80062 68.0159 7.12318 67.2784C6.44995 66.545 5.94714 65.8201 5.50422 65.1785C5.0824 64.5698 4.48932 63.6976 3.95445 62.5677C3.41537 61.4302 2.93534 60.03 2.74467 58.3731C2.67128 57.7138 2.58354 56.8769 2.63753 55.918C2.69237 54.9472 2.894 53.8569 3.39934 52.7135C3.5512 52.3692 3.89287 51.5996 4.51548 50.7712C5.13555 49.9469 6.03404 49.0746 7.29191 48.5349L7.33999 48.5139L6.86165 47.9978L6.85405 47.9902L6.83971 47.975C4.66734 45.6336 2.96655 42.8737 1.80823 39.873C0.650757 36.8765 0.0298319 33.6333 0.0104281 30.3211L0.00958365 30.3102V30.3017V30.3001V30.2916L0.00283822 28.7004L0.00199376 28.6894L0.000304825 28.6574C-0.00981888 26.5105 0.232304 24.3778 0.714867 22.3167C1.19659 20.254 1.92044 18.2543 2.87291 16.3684L2.90412 16.3153L3.60941 14.9202L3.61446 14.9101L3.61953 14.9017V14.9009L3.62459 14.8924C4.46148 13.2338 5.48988 11.7082 6.67604 10.3476C7.85714 8.99375 9.20191 7.79735 10.6766 6.79627L10.7087 6.7727L13.2421 5.06355L13.2505 5.05765L13.2683 5.04502C14.8855 3.95723 16.6006 3.05466 18.3816 2.35416C20.1583 1.65535 22.0016 1.15523 23.8821 0.86981L23.9125 0.866442L27.5393 0.313283L27.5781 0.305706C29.3649 0.0337568 31.172 -0.0563315 32.9724 0.0337569C34.7524 0.122161 36.5283 0.3899 38.2763 0.834448L38.3227 0.84371L39.9012 1.25037L39.9223 1.25626L39.9324 1.25963C41.8939 1.76312 43.8123 2.43246 45.6666 3.25673C47.521 4.08268 49.3162 5.06607 51.0305 6.19596L51.071 6.21954C52.4537 7.13389 53.7141 8.24105 54.821 9.5065C55.9152 10.7576 56.8601 12.1637 57.6244 13.6893L57.6514 13.7356L58.6326 15.7159L58.6376 15.7251L58.6427 15.7344V15.7361L58.6477 15.7445V15.7462L58.6562 15.7638V15.7655L58.6604 15.774L61.4132 22.9473C63.7585 24.4485 66.1351 26.6073 67.8198 29.7208C68.0577 30.162 68.2729 30.6032 68.4644 31.0435C69.4531 32.7375 70.209 35.8468 70.7599 39.1826C71.6786 44.7327 72.0482 50.9606 71.995 52.2597V52.2707L71.9942 52.2698ZM43.9228 74.008C43.9903 73.9297 44.0856 73.8801 44.1877 73.8674L47.0586 72.3452C47.467 72.048 47.9504 71.6918 48.4641 71.2246C48.9703 70.7632 49.4993 70.1966 49.9928 69.4767L51.4329 66.3808C51.6236 65.789 51.8758 64.9756 52.0252 63.9914C52.1753 63.0046 52.2217 61.8428 51.9956 60.563C51.9096 60.0755 51.8024 59.5013 51.5974 58.8959L51.5898 58.8749C51.3831 58.2729 51.0735 57.6297 50.58 56.9906L50.5707 56.9797C50.4703 56.8525 50.2198 56.541 49.8241 56.179C49.4259 55.8136 48.8733 55.3901 48.1697 55.0373L48.1621 55.0331C47.4012 54.6517 46.3087 54.1053 45.0415 54.3149L43.0741 55.1661L41.5227 56.3406L41.2957 57.4124L41.688 59.5476L42.6928 61.9606C42.7139 62.0069 42.7282 62.0575 42.7316 62.1105C42.7611 62.5491 42.6869 62.9263 42.5291 63.3271C42.384 63.6967 42.1706 64.0756 41.9031 64.5505L41.8998 64.5572L41.8981 64.5597L41.8947 64.5665L41.8897 64.5757L41.888 64.5774L41.8534 64.6397C41.1591 65.8765 40.4116 67.2051 38.9386 67.4164C38.4248 67.488 37.9608 67.4215 37.5812 67.3112L37.5727 67.3087C37.5584 67.6126 37.5272 67.8947 37.4884 68.1523C37.3914 68.788 37.2403 69.2712 37.1484 69.5373C36.7519 70.6748 36.1571 71.5538 35.5978 72.1945C35.0359 72.8361 34.512 73.241 34.2555 73.4338L34.0429 73.5896C34.5913 73.9575 35.1177 74.2312 35.5919 74.4357C36.1968 74.6959 36.7282 74.8466 37.1138 74.9359C38.4653 75.2491 39.7038 75.2036 40.7752 75.0192C41.8424 74.8357 42.7535 74.5107 43.4495 74.2606L43.9245 74.0089L43.9228 74.008ZM45.4633 74.1343C46.1433 74.2505 46.8798 74.3154 47.6281 74.3406C49.1171 74.3903 50.65 74.285 51.8742 74.1251C53.1489 73.9567 54.5021 73.7302 56.089 73.1804C57.6835 72.6273 59.531 71.744 61.7962 70.258C62.8364 69.576 63.794 68.8191 64.6072 68.1094C65.9039 66.9795 66.8285 65.9784 67.1618 65.5869L67.1744 65.5709C67.846 64.7652 68.4652 63.8289 68.9739 62.8986C69.5096 61.9202 69.9205 60.9528 70.1407 60.1555C70.9261 57.2929 70.9869 56.0131 71.1244 52.9973L71.1581 52.2968V52.2858V52.285V52.2538C71.218 51.0524 70.8519 44.8565 69.9348 39.3165L69.9002 39.1085C69.8091 41.7404 69.2835 44.1821 68.8288 46.2928C68.5049 47.8151 68.0291 50.0269 67.0142 52.4525C65.995 54.89 64.4326 57.5396 61.9388 59.9197C60.4008 61.3864 58.8502 62.4229 57.2751 63.248C55.7481 64.0487 54.2068 64.649 52.6275 65.2577C52.4934 65.805 52.3441 66.2781 52.2209 66.6612C51.9062 67.4863 51.1351 69.1509 50.7032 69.9196C50.1607 70.7135 49.582 71.3382 49.0285 71.8417C48.4903 72.3317 47.9613 72.7182 47.5184 73.0406L45.4633 74.1335V74.1343ZM23.9774 1.70081C22.167 1.97781 20.3928 2.45941 18.6853 3.13128C16.9744 3.80315 15.3217 4.67204 13.7626 5.71858L13.7542 5.72447L13.7365 5.7371L11.176 7.46394L11.1667 7.46983L11.1583 7.47488C9.74268 8.4347 8.44853 9.58648 7.30709 10.8949C6.16648 12.2033 5.17858 13.6674 4.37543 15.2562L4.37037 15.2663L4.36531 15.2747V15.2755L4.36025 15.2839L3.62291 16.7447L3.59254 16.7961C2.68562 18.6012 1.99299 20.5217 1.53067 22.5036C1.06498 24.4974 0.829608 26.5534 0.836357 28.6204L0.838046 28.6524L0.844791 30.2756L0.845636 30.2866V30.295V30.2967V30.3051C0.863352 33.5163 1.46571 36.6627 2.58776 39.5691C3.70558 42.4662 5.34225 45.1284 7.43111 47.3848L7.4387 47.3924L7.45303 47.4076L8.20303 48.2167C9.15635 47.9481 10.6378 47.7149 11.4257 48.5493L11.4359 48.5602C12.1825 49.3609 12.0492 50.8764 11.9994 51.3748C11.9944 51.4658 11.9724 51.6139 11.9437 51.7697C12.7612 52.4003 13.6184 52.9779 14.505 53.4915C15.18 53.883 15.8717 54.2383 16.5779 54.5565C15.309 50.9092 15.7511 47.517 16.1215 44.6839L16.1248 44.6569C16.2657 43.5767 16.5686 41.4601 17.4477 38.8736C18.3318 36.272 19.8006 33.1905 22.2758 30.2016C24.9426 26.9819 27.9459 24.8712 30.7232 23.434C33.492 22.0001 36.0255 21.2399 37.7752 20.7153L37.7853 20.7128C41.4662 19.6099 47.0662 17.9369 53.8727 19.7564L53.8896 19.7589L53.9436 19.7732C55.0918 20.0822 57.5679 20.7566 60.2481 22.2502L57.8834 16.0888L56.925 14.154L56.898 14.1077C56.1607 12.6259 55.2487 11.2628 54.1908 10.0546C53.1455 8.85904 51.9535 7.80913 50.6441 6.9394L50.6045 6.91583C48.9138 5.79772 47.1472 4.82864 45.3241 4.01701C43.4985 3.20453 41.6138 2.54781 39.6911 2.05611L39.67 2.05022L39.6599 2.04685L38.1599 1.66124L38.1135 1.65198C36.4102 1.21585 34.674 0.952321 32.9319 0.8656C31.2024 0.77888 29.462 0.864758 27.7367 1.12576L27.6996 1.13334L24.0044 1.6966L23.9749 1.69997L23.9774 1.70081ZM33.5435 8.26463C33.5435 7.72494 33.8093 7.24419 34.2361 6.90236C34.6394 6.57905 35.1911 6.37951 35.7943 6.37951C36.3967 6.37951 36.9493 6.57989 37.3534 6.90152C37.7828 7.24335 38.0485 7.72494 38.0485 8.26463C38.0485 8.80263 37.782 9.28507 37.3542 9.62606C36.951 9.94936 36.3984 10.1489 35.7943 10.1489C35.192 10.1489 34.6402 9.94936 34.237 9.62606C33.8084 9.28338 33.5435 8.80179 33.5435 8.26463V8.26463ZM34.7609 7.55234C34.5272 7.73925 34.3821 7.991 34.3821 8.26463C34.3821 8.53658 34.528 8.78916 34.7617 8.97607C35.0216 9.18403 35.3869 9.31285 35.7943 9.31285C36.2035 9.31285 36.5696 9.18403 36.8295 8.97607C37.064 8.78916 37.21 8.53658 37.21 8.26463C37.21 7.99184 37.064 7.73925 36.8312 7.5515C36.5722 7.34354 36.2052 7.21556 35.7952 7.21556C35.3869 7.21556 35.0216 7.34438 34.7617 7.55234H34.7609ZM17.009 55.6477C16.0017 55.2385 15.0256 54.7586 14.0874 54.2156C13.2834 53.75 12.5022 53.2338 11.7489 52.6714C11.6763 53.0402 11.597 53.5218 11.5776 54.0522C11.5523 54.7308 11.6198 55.5029 11.9151 56.2438L13.1063 58.0304L13.9499 58.8766C14.2798 58.1837 14.7472 57.4436 15.3934 56.8845L16.7618 56.0165C16.8031 55.9836 16.8495 55.9584 16.9035 55.9424L17.1127 55.8801L17.009 55.6477V55.6477ZM33.8852 61.852L32.2679 61.5287C31.7364 61.6095 31.3981 61.9236 30.8219 62.4607C30.4693 62.7891 30.0365 63.1932 29.4341 63.6698C29.413 63.6908 29.3894 63.7085 29.3649 63.7245C29.1777 63.8718 28.9752 64.0259 28.7525 64.1859L27.53 64.8485L27.525 64.8569C27.4423 65.0017 27.2854 65.0784 27.1285 65.0657L27.0593 65.1028C27.0179 65.1247 26.9749 65.1398 26.931 65.1466C26.3759 65.2779 25.852 65.2745 25.415 65.2206C24.9772 65.1676 24.6237 65.0624 24.4077 64.9984L22.9026 64.2911C22.8495 64.2667 22.8048 64.2322 22.7685 64.1909L21.0534 62.2688L20.9893 62.1736C20.5852 61.4908 20.2933 60.7735 20.0874 60.1471C20.0714 60.1134 20.0604 60.0772 20.0537 60.0401C19.7896 59.2083 19.6766 58.5541 19.6504 58.384L19.2345 57.0201L18.0365 56.4753L17.2047 56.7229L15.9266 57.5261C15.2728 58.0978 14.8239 58.9161 14.5337 59.6192C14.2368 60.339 14.1052 60.9452 14.0807 61.0564L14.0756 61.0791C13.9145 61.8857 13.9044 62.6199 13.9575 63.2446C14.0107 63.8803 14.1313 64.4048 14.219 64.7811C14.3903 65.5187 14.6265 66.1367 14.888 66.6831C15.1589 67.2472 15.4516 67.7347 15.7368 68.2045L15.7427 68.2129L15.7486 68.223L15.7553 68.2323C16.0894 68.7846 16.4733 69.4178 16.9837 70.0719C17.1946 70.082 17.3692 70.2487 17.3819 70.4643C17.3835 70.4938 17.3827 70.5224 17.3785 70.5502C17.786 71.0174 18.266 71.4873 18.8456 71.9385C19.7196 72.618 20.5894 73.0802 21.3647 73.4044L21.3866 73.4145C22.1527 73.7327 22.8335 73.9205 23.3346 74.0544L23.3532 74.0594C23.7438 74.1621 24.3908 74.3162 25.2319 74.4164C26.0747 74.5183 27.1099 74.5679 28.2674 74.4661C28.2977 74.4593 28.3298 74.4551 28.3619 74.4551C30.0913 74.2951 31.9743 74.1116 33.7502 72.7645C33.9839 72.5877 34.4622 72.2172 34.9659 71.6422C35.4695 71.0638 36.0052 70.2749 36.3562 69.262C36.4363 69.0229 36.5722 68.5901 36.6582 68.0243C36.7072 67.7052 36.7409 67.3432 36.7426 66.9492C36.546 66.833 36.4768 66.5787 36.5907 66.38C36.6219 66.3261 36.6641 66.2815 36.7114 66.2478L36.6776 65.9582C36.6329 65.6307 36.5764 65.2409 36.4558 64.83C36.3377 64.4233 36.1537 63.9796 35.8525 63.5292C35.742 63.3642 35.5303 63.0552 35.2038 62.7352C34.8857 62.4229 34.4521 62.0894 33.8852 61.8503V61.852ZM37.5643 66.4238C37.6411 66.4541 37.7246 66.4836 37.8123 66.5097C38.0949 66.5913 38.44 66.6419 38.8196 66.588C39.2676 66.524 39.6413 66.2832 39.9687 65.9464L39.9451 65.9472L39.886 65.9489L37.5044 65.8294L37.5069 65.8504C37.5339 66.0466 37.5525 66.2386 37.5643 66.4238V66.4238ZM66.8648 45.9064L66.8623 45.9165C66.2388 48.817 65.0738 54.1642 60.5569 58.4741C59.2982 59.6739 58.037 60.5537 56.7386 61.2694C55.5288 61.937 54.2836 62.4616 52.9743 62.9794C52.9523 63.3785 52.911 63.7573 52.8561 64.1152L52.8291 64.2869C54.2102 63.7514 55.5626 63.2059 56.8871 62.5104C58.3989 61.7181 59.8871 60.7238 61.3643 59.3152C63.7585 57.0302 65.2619 54.4799 66.2431 52.1334C67.2293 49.776 67.695 47.6113 68.0122 46.1202C68.4871 43.9135 69.0406 41.3397 69.0785 38.6084C69.1157 35.8956 68.6449 33.0027 67.085 30.1174C65.4627 27.1209 63.1579 25.0438 60.8859 23.6032L60.8775 23.5982L60.8269 23.5653L60.8227 23.5628C57.875 21.7088 54.9922 20.9233 53.7378 20.584L53.6989 20.5764C47.1076 18.8016 41.6323 20.4367 38.0342 21.5135L38.0182 21.5186C36.298 22.0338 33.8084 22.7815 31.1096 24.1783C28.4201 25.5717 25.5095 27.6168 22.9246 30.737C20.5269 33.6333 19.102 36.6214 18.2449 39.1439C17.3894 41.6613 17.095 43.7207 16.9583 44.7689L16.955 44.7959C16.55 47.8892 16.0565 51.6712 17.9243 55.6418L17.9496 55.6342C18.0433 55.6065 18.1462 55.6107 18.2415 55.6536L19.5677 56.2556C19.3939 55.9626 19.2277 55.6561 19.0708 55.3353C18.1529 53.462 17.8113 51.6283 17.7522 49.8711C17.694 48.1359 17.9108 46.4856 18.115 44.9432L18.1158 44.9356L18.1167 44.9323L18.1175 44.9247L18.1192 44.9137C18.46 42.3399 19.1079 39.9227 20.0596 37.6822C21.0146 35.4317 22.2741 33.358 23.8281 31.4796C28.7685 25.5077 35.003 23.6377 38.3531 22.6341C39.5958 22.2612 40.9903 21.8427 42.5561 21.5152C44.1244 21.1868 45.8506 20.9519 47.7336 20.9519C49.409 21.1203 51.7754 21.3813 53.3978 21.7004C56.418 22.5129 58.9953 23.6748 61.1103 25.1692C63.2338 26.6713 64.8907 28.5101 66.06 30.6747C67.522 33.3782 67.9582 36.1028 67.9118 38.6993C67.8645 41.2757 67.3415 43.7097 66.8758 45.8769L66.8682 45.9081L66.8648 45.9064ZM40.6326 58.4303L40.458 57.4815C40.4479 57.4267 40.4496 57.372 40.4597 57.3207L40.7356 56.0165C40.7583 55.907 40.8225 55.8169 40.9077 55.7588L42.6084 54.4707L42.6953 54.4202L44.7563 53.5294L44.8483 53.5024C46.4057 53.2221 47.6618 53.851 48.535 54.288L48.5426 54.2922C49.328 54.6854 49.9431 55.1577 50.3877 55.5644C50.4889 55.657 50.5817 55.7471 50.6661 55.8313C51.5856 55.4608 52.3955 55.1047 53.1388 54.6904C53.9369 54.2459 54.6632 53.7306 55.3702 53.0545C58.2268 50.3258 59.0088 46.718 59.5251 44.321L59.526 44.3151L59.5277 44.3101L59.5285 44.305L59.5302 44.2991L59.5319 44.2941L59.5327 44.2898L59.5344 44.284C60.3165 40.6425 61.053 37.1981 59.4458 34.2345C58.792 33.0263 57.7965 31.9747 56.472 31.094C55.1357 30.2024 53.4602 29.4834 51.4599 28.9437L47.7142 28.4503C45.0668 28.4537 42.7704 29.139 40.5407 29.8058L40.5094 29.8151C39.0297 30.258 37.1695 30.817 35.2493 31.7911C33.3402 32.7602 31.3602 34.1478 29.6147 36.2551C28.5196 37.577 27.6296 39.0504 26.9538 40.6602C26.2738 42.2768 25.8073 44.0314 25.5601 45.9072C25.3779 47.2998 25.2412 48.4457 25.2539 49.4409C25.2665 50.4015 25.4218 51.2359 25.8157 52.0442C26.208 52.8398 26.7606 53.4704 27.4203 54.0337C28.1003 54.6146 28.8967 55.1308 29.7505 55.6814L29.7724 55.6949C33.1141 57.8561 36.4262 58.2055 37.8731 58.3529L39.9138 58.4548L40.6351 58.432L40.6326 58.4303ZM15.0391 68.6667L15.023 68.6389L15.0205 68.6339L15.018 68.6297L15.0129 68.6204C14.7109 68.1245 14.4038 67.6118 14.1338 67.046C13.8478 66.4432 13.5897 65.7679 13.4041 64.9731C13.3096 64.5681 13.1805 64.004 13.1223 63.317C13.0641 62.6325 13.0759 61.8209 13.2581 60.9166L13.2632 60.8838C13.2843 60.7836 13.3864 60.3188 13.604 59.7135L12.4837 58.5895L12.4305 58.5255L11.1963 56.6732L11.1482 56.5755C10.7947 55.6991 10.7129 54.8041 10.7424 54.0228C10.7719 53.249 10.9086 52.5957 10.9963 52.1839L11.1701 51.2915C11.2123 50.8739 11.3186 49.6531 10.8276 49.1285C10.2851 48.5434 9.01293 48.8296 8.24775 49.0729C8.22075 49.0847 8.19291 49.094 8.16507 49.0999C7.92548 49.179 7.74578 49.2498 7.6707 49.2801L7.62261 49.3003C6.52334 49.7718 5.7337 50.5413 5.18449 51.2713C4.626 52.0139 4.30963 52.7287 4.16705 53.0511C3.70811 54.0901 3.52504 55.0819 3.47443 55.9643C3.42381 56.8576 3.50817 57.6532 3.57819 58.2796C3.7562 59.8322 4.20754 61.1456 4.71289 62.2132C5.22076 63.2875 5.78938 64.1219 6.19264 64.7054C6.62374 65.3293 7.1122 66.034 7.73903 66.7176C8.36332 67.3988 9.13948 68.0757 10.1603 68.6693C12.1994 69.8522 14.0807 70.0172 15.665 70.1536L15.9831 70.1342C15.6111 69.6131 15.3099 69.1147 15.0382 68.6676L15.0391 68.6667ZM20.1431 57.1438L20.4755 58.2502C20.4755 58.2527 20.5624 58.8749 20.8256 59.7194L25.0708 62.9718L27.1006 64.132L28.2825 63.4947L28.3711 63.4298L25.6723 61.9758C24.5891 61.277 23.3742 60.4897 22.2142 59.4491C21.4845 58.7932 20.7784 58.038 20.1439 57.1438H20.1431ZM21.4271 61.2332C21.5115 61.4033 21.6026 61.5733 21.7021 61.7417L23.338 63.5755L24.676 64.2086C24.8666 64.265 25.1628 64.3492 25.5163 64.3922C25.6428 64.4073 25.7769 64.4183 25.9178 64.4208L24.6195 63.6782C24.5857 63.6597 24.557 63.6361 24.5309 63.61L21.428 61.2332H21.4271ZM38.4088 10.8839C38.4088 10.3459 38.6745 9.86349 39.1006 9.5225C39.5038 9.19835 40.0556 8.99881 40.6562 8.99881C41.2603 8.99881 41.8146 9.19919 42.2187 9.52081C42.6489 9.86433 42.9147 10.3459 42.9147 10.8839C42.9147 11.4219 42.6472 11.9035 42.2178 12.2462C41.8137 12.5678 41.2603 12.7682 40.6562 12.7682C40.0564 12.7682 39.5047 12.5678 39.1014 12.2445C38.6745 11.9018 38.4088 11.4211 38.4088 10.8831V10.8839ZM39.6253 10.1725C39.3933 10.3594 39.2474 10.6111 39.2474 10.8839C39.2474 11.1559 39.3933 11.4085 39.6262 11.5945C39.886 11.8025 40.2504 11.9313 40.6562 11.9313C41.0688 11.9313 41.4375 11.8025 41.6973 11.5954C41.9301 11.4093 42.0761 11.1567 42.0761 10.8831C42.0761 10.6103 41.931 10.3569 41.6973 10.17C41.4375 9.96283 41.0688 9.83402 40.6562 9.83402C40.2496 9.83402 39.8843 9.96368 39.6253 10.1708V10.1725ZM33.0069 13.494C33.0069 12.956 33.2727 12.476 33.6996 12.1334C34.102 11.8109 34.6537 11.6114 35.2544 11.6114C35.8585 11.6114 36.411 11.8109 36.8152 12.1317L36.8472 12.1595C37.2581 12.5005 37.5128 12.9703 37.5128 13.494C37.5128 14.032 37.2454 14.5136 36.816 14.8562C36.411 15.1795 35.8576 15.3791 35.2544 15.3791C34.6537 15.3791 34.1011 15.1795 33.6987 14.8562C33.2727 14.5136 33.0069 14.032 33.0069 13.494V13.494ZM34.2243 12.7834C33.9915 12.9703 33.8455 13.222 33.8455 13.494C33.8455 13.7668 33.9915 14.0193 34.2235 14.2062C34.4825 14.4142 34.8478 14.543 35.2544 14.543C35.6653 14.543 36.0348 14.4142 36.2955 14.2062C36.5283 14.0202 36.6743 13.7676 36.6743 13.494C36.6743 13.2313 36.5384 12.988 36.3182 12.8027L36.2946 12.785C36.0331 12.5762 35.6644 12.4474 35.2544 12.4474C34.8478 12.4474 34.4825 12.5762 34.2243 12.7834Z" fill="#5B5B5B"/>
</svg>
