<svg width="71" height="61" viewBox="0 0 71 61" fill="none" xmlns="http://www.w3.org/2000/svg">
<path d="M2.30984 47.0864L2.309 47.0855L2.30144 47.0677L2.3006 47.0669L2.29724 47.0584L2.2964 47.0575L2.29388 47.0491L2.29304 47.0474L2.29052 47.0389L2.28968 47.0381L2.28716 47.0296L2.28632 47.0279L2.28464 47.0194L2.2838 47.0177L2.28212 47.0092L2.28128 47.0075L2.2796 46.9999L2.27876 46.9982L2.27708 46.9906V46.9881L2.27541 46.9804L2.27457 46.9779L2.27289 46.9702L2.27205 46.9669L2.27121 46.9601L2.27037 46.9558L2.26953 46.9499L2.26869 46.9448L2.26785 46.9397V46.9347L2.26701 46.9296L2.26617 46.9194V46.9092L0.929982 27.9599C0.457152 26.6472 0.197642 25.464 0.0800639 24.4089C-0.0391933 23.3351 -0.0131583 22.3918 0.0792241 21.5799C0.173286 20.7579 0.338735 20.0612 0.594886 19.4027C0.850197 18.7467 1.19621 18.1306 1.65392 17.4636C2.57943 16.3254 4.46739 14.2897 5.53314 13.2863C6.35199 12.6091 7.2481 11.9735 8.21811 11.382C9.17637 10.7972 10.2136 10.2522 11.3247 9.7522C13.52 8.88182 16.5199 7.90126 18.7967 7.21139C20.1741 6.84697 21.6144 6.50119 23.4889 6.18676L23.5015 6.18507C25.2601 5.89099 27.3933 5.62148 30.2001 5.39096L30.1925 4.81381C30.127 4.39769 30.1682 4.02733 30.274 3.70697C30.4058 3.31288 30.6368 2.99507 30.8963 2.74845C30.9291 2.71794 30.9652 2.69251 31.0038 2.67472L32.4097 2.0001C32.45 1.98061 32.4928 1.96875 32.5357 1.96281L33.9575 1.72636V0.421209C33.9575 0.220351 34.0978 0.0533924 34.2842 0.0110173L34.2918 0.00932257H34.2951L34.3019 0.00762721H34.3052L34.3128 0.00593249H34.3161L34.3229 0.00423712H34.3262L34.3338 0.0025424H34.3371L34.3447 0.00169472H34.348L34.3556 0.000847036H34.359L34.3665 0H34.3699H34.3774H34.3808H34.3884H35.9001C36.0806 0 36.2335 0.116108 36.2923 0.277981L36.2956 0.285608V0.287303L36.299 0.29493V0.296626L36.3015 0.304253V0.305948L36.304 0.313575V0.315271L36.3066 0.322898V0.324593L36.3082 0.333068V0.334763L36.3099 0.342391V0.344086L36.3116 0.35256V0.354256L36.3133 0.361883V0.363578L36.315 0.372053V0.373748L36.3158 0.382223V0.383918L36.3166 0.392393V0.394088L36.3175 0.402563V0.404258V0.412733V0.414428V0.422903V1.77721C36.3939 1.73229 36.4854 1.71026 36.5803 1.72212C37.4235 1.8323 38.0123 2.00943 38.4557 2.23063C38.9193 2.46115 39.225 2.73743 39.4921 3.03575C39.7617 3.33916 39.9993 3.67392 40.1337 4.05953C40.2664 4.44091 40.3 4.86381 40.1698 5.33757C40.2085 5.33248 40.2479 5.33418 40.2882 5.34096L52.9345 7.6004C54.4463 7.99025 55.7085 8.39281 56.881 8.8547C58.0508 9.31574 59.1317 9.8378 60.2873 10.4709C61.5278 11.1514 62.8556 11.9583 64.0851 12.8236C65.1492 13.571 66.1511 14.3694 66.9733 15.1737L66.9851 15.1864C67.8812 16.0636 68.5682 16.9466 69.1107 17.8721C69.6566 18.8027 70.0589 19.7782 70.3839 20.8333C70.7114 21.8884 70.9676 23.0343 70.997 24.2453C71.0272 25.4488 70.8332 26.709 70.2697 28.0006L67.274 47.6627C67.2597 47.761 67.2118 47.8457 67.1446 47.9084C65.218 50.3526 62.8791 52.3163 60.3881 53.9071C57.8904 55.5021 55.2374 56.7267 52.6902 57.6954C50.1429 58.6641 47.699 59.3777 45.3441 59.8887C42.9858 60.4015 40.7166 60.7116 38.5204 60.8701C36.3259 61.032 34.2002 61.0456 31.8856 60.8939C29.5786 60.7422 27.0792 60.4252 24.1289 59.926C21.1651 59.4234 17.7444 58.7361 14.0491 56.9208C10.3631 55.1088 6.40994 52.1739 2.38542 47.1838C2.35519 47.1525 2.32999 47.1143 2.31068 47.0737L2.30984 47.0864ZM5.69775 18.6849C5.63896 18.695 5.58101 18.6917 5.52559 18.6772C5.64568 18.7518 5.72715 18.8849 5.72715 19.0366V24.2648C5.72715 24.497 5.53986 24.686 5.30975 24.686C5.07963 24.686 4.89235 24.497 4.89235 24.2648V19.3951C4.42036 20.1638 4.11213 20.7926 3.91981 21.3299C3.57716 22.2859 3.61159 22.9478 3.73001 23.5885L3.73337 23.6038C3.86102 24.2775 4.07686 24.9361 4.39936 25.5912C4.72186 26.2463 5.1527 26.9031 5.70951 27.5735L5.73051 27.5964C6.33351 28.3176 7.08601 29.0591 8.01571 29.7999C8.86143 30.4728 9.86168 31.1516 11.0391 31.8212C12.2813 32.5297 13.7233 33.2246 15.2358 33.8518C16.7341 34.4721 18.3012 35.0264 19.8163 35.4603C21.3381 35.8959 22.8095 36.2104 24.2607 36.4485C25.7103 36.6875 27.1405 36.8545 28.5775 36.9918L37.3362 37.4375L45.6053 36.8494L48.6497 36.0968V34.5323L45.5465 31.0118V34.3493C45.5465 34.5815 45.3592 34.7705 45.1291 34.7705C44.899 34.7705 44.7117 34.5815 44.7117 34.3493V30.1499C44.7117 29.9177 44.899 29.7287 45.1291 29.7287L45.1509 29.7304H45.161V29.7312L45.2105 29.738H45.2122L45.25 29.7482H45.2517L45.2592 29.7516H45.2609L45.2685 29.7549L45.297 29.7668H45.2987L45.3071 29.771H45.308L45.3164 29.7761H45.3172L45.3256 29.7812V29.7821L45.3432 29.7914L45.3449 29.7931L45.3525 29.7973L45.3609 29.8024L45.3642 29.8049L45.8102 30.0812L45.8186 30.0863L45.8228 30.0889L45.8278 30.0914L45.8329 30.0948L45.8371 30.0973L45.8421 30.0999L45.8463 30.1033L45.8513 30.1067L45.8555 30.1092L45.8564 30.11L45.8606 30.1126L45.8639 30.116L45.869 30.1194L45.8723 30.1219L45.8774 30.1262L45.8849 30.1329L45.8883 30.1363L45.8933 30.1406L45.8967 30.1439L45.9009 30.1473L45.9042 30.1516L45.9286 30.1787L45.9353 30.1863V30.1872L49.3644 34.0772L49.3711 34.0848L49.3787 34.0925L49.3812 34.0959L49.3854 34.1001L49.3871 34.1018L49.3887 34.1035L49.3913 34.1077L49.3955 34.1128L49.398 34.1162L49.4022 34.1213L49.4039 34.1247L49.4081 34.1297L49.4097 34.1323L49.4139 34.1382L49.4156 34.1399L49.4198 34.1467L49.4215 34.1484L49.4257 34.156L49.4274 34.1577L49.4316 34.1653L49.4333 34.167L49.4375 34.1747L49.4383 34.1755L49.4425 34.1831L49.4433 34.184L49.4475 34.1925L49.4484 34.1933L49.4526 34.2018V34.2026L49.4568 34.2111L49.4576 34.212L49.461 34.2213L49.4643 34.2306H49.4652L49.4677 34.2399L49.4685 34.2408L49.471 34.2501L49.4719 34.2509L49.4736 34.2594L49.4744 34.2603L49.4761 34.2696L49.4769 34.2704L49.4786 34.2798L49.4794 34.2806L49.4811 34.2899L49.482 34.2916L49.4836 34.3001L49.4845 34.3018L49.4862 34.3103L49.487 34.312L49.4878 34.3196L49.4887 34.3213L49.4895 34.3289L49.4904 34.3315V34.3391L49.4912 34.3425V34.3493L49.492 34.3535V34.3594L49.4929 34.3747V35.8934L50.9382 35.5358V34.1425L38.0937 16.8687L38.0879 16.8611L37.0658 15.4873L34.8511 15.5017L34.8536 15.9763L34.852 16.011L34.8629 16.5619L38.6564 21.2172C38.7337 21.2935 38.7824 21.4003 38.7824 21.5181V25.742C38.7824 25.9742 38.5951 26.1632 38.365 26.1632C38.1349 26.1632 37.9476 25.9742 37.9476 25.742V21.6681L34.2641 17.1458L27.9921 17.5102L27.9653 21.0825C27.9644 21.3138 27.7771 21.502 27.5479 21.5011C27.3186 21.5003 27.1321 21.3113 27.133 21.0799L27.1632 17.1704L27.1607 17.1365C27.1531 16.9814 27.2296 16.8416 27.3488 16.7619L27.3505 16.7602L27.3581 16.756L27.3597 16.7543L27.3665 16.75L27.3681 16.7483L27.3749 16.7441L27.3765 16.7424L27.3841 16.739L27.3858 16.7373L27.3925 16.7339L27.3942 16.7322L27.4017 16.7288L27.4034 16.728L27.4101 16.7246L27.4127 16.7229L27.4194 16.7204L27.4219 16.7195L27.4294 16.7161L27.432 16.7153C27.4782 16.6975 27.5269 16.6873 27.5815 16.6873H27.5957L34.0272 16.3136L34.0205 15.978L34.0222 15.9313L34.0197 15.5025L33.5914 15.505L33.5813 15.5059C33.5057 15.5135 33.4259 15.5017 33.352 15.4644L32.1325 14.8457L32.1233 14.8415L32.1166 14.8381L32.1149 14.8364L32.1074 14.833L32.1057 14.8313L32.0981 14.827L32.0964 14.8254C31.9495 14.7414 31.8722 14.5779 31.889 14.4169L31.8882 14.3872L5.70615 18.6798L5.69775 18.6849ZM5.41389 18.6289L5.39457 18.6171L5.38953 18.6239L5.41305 18.6289H5.41389ZM5.9749 17.7882L31.8638 13.5439L31.8361 12.0862L30.4713 10.9845L30.4629 10.9785C30.3513 10.904 30.2765 10.7777 30.2757 10.6328L30.2597 9.48524C27.4538 9.60898 25.2232 9.82848 23.3201 10.1175C21.3675 10.4141 19.7609 10.7862 18.2256 11.2065C16.6913 11.6226 15.2299 12.0888 13.4285 12.9405C11.6245 13.7939 9.47031 15.0398 6.55103 17.0136C6.34527 17.2831 6.15463 17.5416 5.9749 17.7874V17.7882ZM43.8223 33.7026C43.8223 33.9348 43.635 34.1238 43.4049 34.1238C43.1748 34.1238 42.9875 33.9348 42.9875 33.7026V27.9794L40.5914 25.0632V26.7167C40.5914 26.9489 40.4041 27.1379 40.174 27.1379C39.9439 27.1379 39.7566 26.9489 39.7566 26.7167V23.8987C39.7566 23.8741 39.7591 23.8504 39.7633 23.8267V23.8241L39.765 23.8173V23.814L39.7692 23.797L39.7701 23.7928L39.7717 23.7868L39.7726 23.7826L39.7743 23.7775L39.7751 23.7733L39.7768 23.7673L39.7785 23.7631L39.7801 23.758L39.7818 23.7529L39.7835 23.7479L39.7852 23.7428L39.7868 23.7377L39.7885 23.7326L39.7902 23.7301L39.7911 23.7284L39.7936 23.7233L39.7952 23.7182L39.7969 23.7131L39.7986 23.708L39.8011 23.7029L39.8028 23.6978L39.8053 23.6936L39.807 23.6885L39.8095 23.6843L39.812 23.6792L39.823 23.6614L39.8255 23.658C39.8473 23.6241 39.8742 23.5919 39.9061 23.5673C40.0825 23.4199 40.347 23.4444 40.4932 23.6233L43.724 27.5548L43.7492 27.5887V27.5896L43.7543 27.5981H43.7551L43.7601 27.6065H43.761L43.766 27.615L43.7669 27.6159L43.7753 27.6328L43.7769 27.6345L43.7803 27.6421L43.7811 27.6438L43.7845 27.6514L43.7862 27.6531L43.7895 27.6608L43.7904 27.6625L43.7929 27.6701L43.7937 27.6718L43.7971 27.6794L43.7979 27.6811L43.8004 27.6887L43.8013 27.6904L43.8038 27.6981V27.6998L43.8063 27.7074V27.7091L43.8088 27.7167V27.7184L43.8114 27.726V27.7277L43.813 27.737V27.7379L43.8147 27.7472V27.7481L43.8164 27.7582H43.8172L43.8181 27.7684H43.8189L43.8198 27.7786L43.8206 27.7794V27.7887L43.8214 27.7904V27.7989L43.8231 27.8226V33.695L43.8223 33.7026ZM32.3895 11.4608L37.8561 11.4099L38.1508 10.9802L38.1567 10.9718L38.1618 10.9641L39.4358 9.10387L39.3493 6.10032C38.7135 6.51983 38.1811 6.79951 37.7133 6.9902C37.0792 7.24868 36.5635 7.34869 36.0722 7.41056L33.2781 7.2775L33.1933 7.26394C32.6818 7.13088 32.1393 6.93172 31.6253 6.58085C31.4271 6.44525 31.2348 6.28677 31.0508 6.10201L31.0433 6.1071L31.1037 10.4234L32.3887 11.4608H32.3895ZM38.0643 12.2473L32.6717 12.2973L32.7087 14.2075L33.6182 14.6686L37.0817 14.6448L38.1097 13.477L38.0963 12.2456L38.0879 12.2464H38.087H38.0795H38.0761H38.0711H38.0635L38.0643 12.2473ZM38.9311 12.3634L51.3943 10.67C50.4083 10.4285 49.3291 10.2031 48.0996 9.99374C46.0151 9.63779 43.4922 9.32506 40.2672 9.06319L40.2714 9.19794L40.2723 9.20218V9.21235V9.21658V9.23777V9.24286L40.2706 9.26998V9.27337L40.2689 9.28015V9.28354L40.2672 9.29116V9.29371L40.2656 9.30133V9.30388L40.2639 9.3115V9.3132L40.2588 9.331V9.33269L40.2563 9.34117V9.34286L40.253 9.35049V9.35218L40.2504 9.35981C40.2429 9.38524 40.2303 9.40981 40.2169 9.43439L40.2152 9.43778L40.1975 9.4649L38.9193 11.3303L38.9302 12.3617L38.9311 12.3634ZM53.5367 10.3785L55.4994 10.1124C55.5397 10.1073 55.58 10.1073 55.6178 10.1141L56.2788 10.1404L56.3191 10.1387C56.5492 10.1387 56.7365 10.3277 56.7365 10.5599V11.5006L62.1795 14.2889C63.2335 15.0228 64.1733 15.8279 64.9644 16.6526C65.7891 17.5119 66.4593 18.4001 66.9397 19.2612L66.954 19.2883C67.4268 20.1417 67.7174 20.9757 67.8493 21.7859C67.9836 22.613 67.9542 23.4182 67.788 24.2004C67.6242 24.9776 67.3277 25.7352 66.9137 26.4768C66.5064 27.2082 65.9806 27.9294 65.3516 28.6456C64.7007 29.3863 63.9373 30.1253 63.0496 30.8364C62.2366 31.4872 61.3136 32.1229 60.2705 32.7212L52.9992 35.8815C52.5852 36.007 52.1745 36.1265 51.7655 36.24V36.5307C51.7655 36.7629 51.5782 36.9519 51.3481 36.9519C51.118 36.9519 50.9307 36.7629 50.9307 36.5307V36.4663C50.4461 36.5934 49.964 36.7129 49.4853 36.8257V37.1291C49.4853 37.3613 49.298 37.5503 49.0679 37.5503C48.8378 37.5503 48.6505 37.3613 48.6505 37.1291V37.0146C41.9553 38.474 35.68 38.5071 28.4986 37.8274C27.0406 37.6876 25.5927 37.5189 24.1272 37.2774C22.6482 37.0341 21.1458 36.7129 19.5929 36.2688C18.0476 35.8273 16.4477 35.2612 14.9209 34.6281C13.3806 33.9899 11.9075 33.2789 10.6327 32.5534C9.4216 31.8669 8.38524 31.1626 7.50089 30.4584C6.52248 29.6787 5.73051 28.8981 5.09559 28.1396L5.07459 28.1125C4.46991 27.3845 4.00212 26.6734 3.65274 25.9632C3.29497 25.2369 3.05646 24.5081 2.91536 23.7623L2.912 23.7436C2.77007 22.9775 2.72724 22.1884 3.13708 21.0443C3.53013 19.9477 4.35233 18.5179 5.93459 16.4449C5.97238 16.3958 6.01857 16.3576 6.0698 16.3305C9.03696 14.3236 11.234 13.0541 13.0766 12.1811C14.9402 11.2989 16.4393 10.8201 18.0081 10.3955C19.5711 9.96662 21.2071 9.58779 23.1975 9.28523C25.1232 8.99369 27.3875 8.77249 30.2488 8.64622L30.2152 6.23677C27.4479 6.46559 25.355 6.72832 23.6409 7.01477L23.6283 7.01732C21.7924 7.32581 20.3756 7.66481 19.0243 8.02245L11.648 10.5294C10.5814 11.0099 9.58201 11.537 8.65231 12.1032C7.72429 12.6685 6.86681 13.277 6.07988 13.9253L2.32496 17.967C1.91343 18.5696 1.60185 19.1239 1.37426 19.7087C1.14498 20.2985 0.996329 20.9282 0.910666 21.6749C0.824162 22.4325 0.799807 23.3131 0.911505 24.3157C1.02152 25.2988 1.2634 26.4048 1.70515 27.637C4.60008 30.4296 7.14396 32.3898 9.58873 33.8586C12.0478 35.3349 14.4212 36.3222 16.9583 37.1638C19.3754 37.9655 21.9386 38.6342 24.4354 39.1631C27.2052 39.7495 29.8986 40.1665 32.2283 40.3987C34.4404 40.6174 36.3301 40.6733 38.0929 40.6114C39.8498 40.5513 41.4934 40.3708 43.2184 40.1233L43.2294 40.1216C45.0409 39.8631 46.9423 39.5275 48.8428 39.1063C50.5486 38.7283 52.261 38.2791 53.9113 37.7528C55.6674 37.1918 57.3429 36.546 58.8907 35.8298C60.4083 35.1273 61.815 34.3535 63.0672 33.5196C64.3295 32.6814 65.4406 31.7771 66.4896 30.7999C67.5234 29.8372 68.5018 28.7964 69.5096 27.6718C70.0177 26.5048 70.1924 25.364 70.1664 24.2767C70.1387 23.1614 69.8976 22.0884 69.5886 21.0935C69.282 20.0977 68.9041 19.1807 68.3935 18.3103C67.8854 17.4441 67.2446 16.6187 66.4073 15.7991L66.393 15.7856C65.6077 15.0186 64.6428 14.2499 63.6097 13.5244C62.3979 12.6718 61.0986 11.882 59.8901 11.2184C58.7706 10.6048 57.7183 10.0971 56.5778 9.64796C55.4431 9.20133 54.217 8.81063 52.7414 8.42841L40.1858 6.18676L40.2446 8.21484C43.5241 8.47926 46.0991 8.79792 48.2382 9.16404C50.347 9.52338 52.0258 9.93018 53.5376 10.3777L53.5367 10.3785ZM55.559 10.9523L38.9403 13.21L38.9445 13.61L38.9453 13.6202V13.6295V13.6304V13.6405V13.6507L38.9445 13.6516V13.6609L38.9437 13.6626V13.6711L38.9428 13.6727L38.9386 13.7041L38.9378 13.7109L38.9361 13.7143L38.9353 13.7211L38.9336 13.7244C38.9185 13.7931 38.8882 13.8584 38.8395 13.9143L37.8032 15.0923L37.9846 15.3364L37.9829 15.1305L37.982 15.1194V15.1042L37.9829 15.072V15.0669L37.9846 15.0618V15.0567L37.9854 15.0516V15.0465L37.9871 15.0415L37.9879 15.0364L37.9896 15.0313L37.9955 15.0008L37.9963 14.9957L37.998 14.9906L37.9988 14.9855L38.0005 14.9804L38.0022 14.9762L38.0039 14.9703L38.0081 14.9567L38.0106 14.9508L38.0123 14.9474L38.0148 14.9415L38.0223 14.9228L38.024 14.9194L38.0274 14.9135L38.0291 14.9101L38.0324 14.905L38.0341 14.9016L38.0375 14.8965L38.0391 14.8932L38.0433 14.8881L38.045 14.8847L38.0484 14.8796L38.0501 14.8762L38.0543 14.8711L38.0559 14.8686L38.0601 14.8626L38.0618 14.8601L38.0669 14.855L38.0685 14.8525L38.0736 14.8474L38.0753 14.8448L38.0803 14.8398L38.082 14.8372L38.087 14.8321L38.0937 14.8245L38.0954 14.8228L38.1005 14.8177L38.1021 14.816L38.1072 14.8109L38.1088 14.8092L38.1139 14.8042L38.1156 14.8016L38.1206 14.7965L38.1223 14.7948L38.1273 14.7898L38.129 14.7881L38.134 14.783L38.1357 14.7813L38.1416 14.777L38.145 14.7745L38.1492 14.7703L38.1517 14.7686L38.1567 14.7635L38.1592 14.7618L38.1651 14.7576L38.1676 14.7559L38.1727 14.7516L38.1752 14.7499L38.1811 14.7457L38.1836 14.744L38.1895 14.7398L38.192 14.7381L38.1979 14.7347L38.2004 14.733L38.2038 14.7313L38.2063 14.7296L38.2096 14.7279L38.2155 14.7253L38.2189 14.7237L38.2239 14.7203L38.2273 14.7186L38.2332 14.716L38.2373 14.7143L38.2424 14.7118L38.2466 14.7101L38.2525 14.7076L38.2558 14.7067L38.2617 14.7042L38.2659 14.7033L38.2718 14.7008L38.2861 14.6965L38.2911 14.6948L38.2961 14.694L38.3113 14.6897L38.3163 14.6889L38.3213 14.6872L38.3264 14.6864L38.3314 14.6847L38.3734 14.6796L38.3843 14.6787L41.3817 14.3702C41.4052 14.3652 41.4313 14.3635 41.4565 14.3635C41.5858 14.3635 41.7008 14.4236 41.7773 14.5169H41.7781C41.7957 14.538 41.8092 14.5601 41.8226 14.5838H41.8235L41.8361 14.6109H41.8369C41.8604 14.6643 41.8739 14.722 41.8739 14.7838V17.495C41.8739 17.7272 41.6866 17.9162 41.4565 17.9162C41.2263 17.9162 41.0391 17.7272 41.0391 17.495V15.2483L38.821 15.4771L38.8336 16.472L51.653 33.7119C51.7243 33.7874 51.7672 33.8891 51.7672 34.0009V35.3264L52.6977 35.0967L59.8842 31.9762C60.8761 31.405 61.7562 30.7991 62.5331 30.1762C63.3847 29.4931 64.1128 28.7896 64.7301 28.0871C65.318 27.4167 65.8084 26.7446 66.1881 26.0632C66.5626 25.3929 66.8297 24.7132 66.9742 24.0241C67.1194 23.3402 67.1446 22.6385 67.0287 21.9198C66.9128 21.2028 66.6525 20.4612 66.2309 19.6976L66.2141 19.6705C65.7673 18.8705 65.1416 18.0416 64.369 17.2365C63.6156 16.4517 62.7237 15.6864 61.7243 14.9889L56.7382 12.4388V15.5483C56.7382 15.7805 56.5509 15.9695 56.3208 15.9695C56.0907 15.9695 55.9034 15.7805 55.9034 15.5483V10.9633L55.5607 10.9497L55.559 10.9523ZM3.09173 46.7414C7.00706 51.5756 10.8409 54.4206 14.4145 56.1767C18.014 57.9454 21.3624 58.6166 24.2658 59.109C27.1825 59.6023 29.6559 59.9167 31.9377 60.0658C34.212 60.215 36.3024 60.2023 38.4624 60.0421C40.6267 59.8853 42.8582 59.5802 45.1719 59.0777C47.489 58.5751 49.8926 57.8717 52.397 56.9199C54.8964 55.9699 57.5008 54.7681 59.9447 53.2062C62.3517 51.668 64.61 49.7772 66.4669 47.4304L69.2434 29.2041C68.5245 29.9804 67.8056 30.716 67.0531 31.4169C65.9764 32.4195 64.8317 33.35 63.5232 34.2196C62.2358 35.0764 60.7921 35.8714 59.2367 36.5917C57.6418 37.3299 55.9353 37.9884 54.1624 38.5554C52.4978 39.0859 50.7594 39.5419 49.0175 39.9275C47.1002 40.3521 45.1786 40.6911 43.3461 40.953L43.3343 40.9547C41.5892 41.2055 39.9195 41.3869 38.1181 41.4496C36.3234 41.5123 34.4001 41.4564 32.1451 41.2327C29.7852 40.9962 27.0608 40.5758 24.2633 39.9834C21.7328 39.4478 19.1402 38.7707 16.698 37.9613C14.1138 37.1045 11.69 36.0951 9.16209 34.5764C6.86429 33.1958 4.4867 31.3966 1.83533 28.9125L3.09173 46.7389V46.7414ZM34.7974 2.34673H35.4827V0.842417H34.7948V2.28656L34.7965 2.31199L34.7974 2.34673ZM35.8892 3.18915H34.3984L34.3774 3.19L34.3363 3.1883L34.3346 3.18745L34.3237 3.18576H34.3195L34.3136 3.18406H34.3119L34.3044 3.18237L34.3035 3.18152L34.2733 3.17559V3.17474L34.254 3.16966L34.2498 3.16881L34.2439 3.16627H34.2422L34.2347 3.16372L34.233 3.16288L34.2271 3.16118L34.2145 3.1561L34.2128 3.15525L34.196 3.14762L34.191 3.14593L34.186 3.14338L34.17 3.13576L34.1683 3.13406L34.1633 3.13152L34.1599 3.12898L34.1566 3.12728L34.1423 3.11796L34.1372 3.11372L34.1028 3.0866L34.1011 3.08491L34.0961 3.07982L34.0953 3.07897L34.0843 3.06796L34.0818 3.06541L34.0793 3.06287L34.0751 3.05779L34.0734 3.05694L34.0684 3.05101L34.0675 3.05016L34.0625 3.04507L34.0608 3.04253L34.0482 3.02728V3.02643L34.0365 3.01033L34.0348 3.00863L34.0306 3.0027L34.0298 3.00185L34.0256 2.99507L34.0247 2.99338L34.0205 2.98829L34.0188 2.9849L34.0163 2.98151L34.0138 2.97643L34.0121 2.97473L34.0088 2.96795V2.9671L34.0046 2.96032L34.0037 2.95863L34.0012 2.95354L33.9995 2.94846L33.9978 2.94592L33.9953 2.93914H33.9945L33.9911 2.93151L33.9903 2.92981L33.9852 2.9171C33.892 2.97558 33.7963 3.04846 33.7106 3.1366C33.5754 3.27475 33.4755 3.45357 33.4797 3.66036C33.5342 4.22988 33.7073 4.54007 33.9248 4.70618C34.1322 4.86297 34.411 4.91382 34.6689 4.93839L36.2041 4.67313C36.3729 4.57566 36.5325 4.44854 36.6467 4.27904C36.7727 4.09343 36.8525 3.84257 36.8415 3.50357V3.50188C36.8147 3.32899 36.7282 3.19932 36.5946 3.09592C36.5106 3.02982 36.4073 2.97219 36.2872 2.9171L36.2822 2.92981L36.2814 2.93151L36.278 2.93914H36.2772L36.273 2.94846L36.2713 2.95354L36.2688 2.95863L36.2679 2.96032L36.2604 2.97473L36.2587 2.97643L36.2562 2.98151L36.2536 2.9849L36.252 2.98829L36.2444 3.00016L36.2436 3.001L36.2427 3.0027L36.2419 3.00355L36.2394 3.00863L36.2369 3.01117L36.2259 3.02728H36.2251L36.2184 3.0349L36.2159 3.03914L36.2125 3.04338L36.2108 3.04507L36.2058 3.05016V3.05101L36.2007 3.05609L36.1991 3.05779L36.1957 3.06202L36.1923 3.06541L36.1907 3.06796L36.1856 3.07219L36.1848 3.07389L36.1797 3.07897L36.1781 3.07982L36.173 3.08406L36.1705 3.0866L36.1671 3.08914L36.1554 3.09931H36.1545L36.1495 3.1044L36.147 3.10609L36.1394 3.11203L36.1377 3.11372L36.1319 3.11796L36.1251 3.12304L36.1235 3.12389L36.1184 3.12728L36.1142 3.12898L36.1117 3.13067L36.1058 3.13406L36.105 3.13491L36.0983 3.13915H36.0966L36.0907 3.14254L36.0882 3.14423L36.084 3.14593L36.079 3.14847L36.063 3.1561L36.0605 3.15779L36.0554 3.15949L36.0504 3.16118L36.0479 3.16288L36.0412 3.16542H36.0403L36.0328 3.16796L36.0311 3.16881L36.0261 3.1705L36.021 3.1722L36.0177 3.17389L36.0118 3.17559L36.0101 3.17644L36.0025 3.17813H36.0017L35.995 3.17983L35.9916 3.18067L35.9866 3.18237L35.9807 3.18322L35.979 3.18406L35.9715 3.18576L35.9639 3.18745L35.9614 3.1883L35.9563 3.18915L35.9513 3.19L35.9479 3.19084L35.9404 3.19169H35.9395L35.932 3.19254H35.9303L35.9236 3.19339H35.9194L35.9152 3.19423H35.9085H35.9068H35.8992H35.8984H35.8883L35.8892 3.18915ZM49.5718 13.7617L49.6189 16.6043C49.6222 16.8356 49.4391 17.0272 49.2099 17.0306C48.9806 17.0339 48.7908 16.8492 48.7874 16.6178L48.7345 13.4058L48.7337 13.3948V13.3905V13.3838V13.3795V13.3727V13.3685L48.7345 13.3617V13.3575V13.3515L48.7353 13.3465L48.7362 13.3405L48.737 13.3354L48.7379 13.3304L48.7387 13.3253L48.7395 13.3193L48.7404 13.3143L48.7412 13.3092L48.7429 13.3041L48.7437 13.299L48.7454 13.2939L48.7463 13.2888L48.7479 13.2837L48.7496 13.2787L48.7513 13.2736L48.753 13.2685L48.7547 13.2634L48.7563 13.2583L48.758 13.2532L48.7597 13.2481L48.7614 13.2431L48.7631 13.2388L48.7647 13.2337L48.7664 13.2287L48.7689 13.2236L48.7706 13.2185L48.7731 13.2134L48.7748 13.2083L48.7773 13.2032L48.779 13.199L48.7815 13.1939L48.7832 13.1897L48.7857 13.1846L48.7874 13.1804L48.7899 13.1753L48.7916 13.171L48.795 13.1659L48.7967 13.1617L48.8 13.1566L48.8017 13.1532L48.805 13.1481L48.8067 13.1448L48.8101 13.1397L48.8118 13.1363L48.816 13.1312L48.8277 13.1151L48.8294 13.1117L48.8344 13.1066L48.8361 13.1032L48.8403 13.099L48.8428 13.0956L48.847 13.0905L48.8496 13.088L48.8546 13.0829L48.8563 13.0803L48.8613 13.0761L48.8638 13.0727L48.8689 13.0685L48.8714 13.0659L48.8764 13.0617L48.879 13.0592L48.884 13.0549L48.8865 13.0524L48.8916 13.049L48.8941 13.0464L48.8991 13.0422L48.9016 13.0397L48.9067 13.0363L48.9092 13.0337L48.9142 13.0303H48.9151L48.9184 13.0286H48.9193L48.9319 13.0202L48.9352 13.0176L48.9403 13.0151L48.9436 13.0125L48.9487 13.01L48.9529 13.0083L48.9579 13.0058L48.9613 13.0041L48.9663 13.0015L48.9705 12.9998L48.9755 12.9973L48.9797 12.9956L48.9848 12.9939L48.989 12.9922L48.994 12.9905L48.9982 12.9888L49.0033 12.9871L49.0075 12.9854L49.0125 12.9837L49.0175 12.982L49.0226 12.9803L49.0276 12.9786L49.0326 12.9769L49.0377 12.9753L49.0427 12.9736L49.0478 12.9719L49.0528 12.9702L49.0578 12.9685L49.0629 12.9676L49.0688 12.9659L49.0738 12.9642L49.0788 12.9634L49.0839 12.9625L49.0898 12.9608L49.0948 12.96L49.1007 12.9592L49.1049 12.9583L49.1116 12.9575H49.1158L49.1267 12.9558L49.1376 12.9549L54.5538 12.3829C54.5773 12.3778 54.6025 12.3761 54.6268 12.3761C54.7444 12.3761 54.8511 12.4261 54.9266 12.5057L54.9283 12.5074L54.9586 12.5447L54.9602 12.5464L54.9644 12.5524L54.9754 12.5693L54.977 12.571L54.9804 12.5778L54.9821 12.5795L54.9854 12.5863C55.0215 12.6481 55.0425 12.7193 55.0425 12.7973V15.511C55.0425 15.7432 54.8553 15.9322 54.6251 15.9322C54.395 15.9322 54.2077 15.7432 54.2077 15.511V13.2634L49.576 13.7524L49.5718 13.7617ZM47.033 14.1524L43.3688 14.6652V17.5543C43.3688 17.7865 43.1815 17.9755 42.9514 17.9755C42.7212 17.9755 42.534 17.7865 42.534 17.5543V14.2991L42.5356 14.2719V14.2668L42.5424 14.2202L42.5432 14.2143L42.5449 14.2101C42.5592 14.1423 42.5886 14.0829 42.6305 14.0312L42.6322 14.0295L42.6641 13.9948L42.6667 13.9931L42.6809 13.9795L42.686 13.9745L42.6969 13.9668L42.7019 13.9617L42.7045 13.9601L42.7095 13.955L42.712 13.9533L42.7204 13.9473L42.7254 13.9431L42.7288 13.9414L42.7339 13.9372L42.7372 13.9355L42.7515 13.927L42.7548 13.9253L42.7599 13.9219L42.7641 13.9202L42.7691 13.9168L42.7733 13.9151L42.7784 13.9126L42.7826 13.9109L42.7968 13.9041L42.801 13.9024C42.8204 13.8948 42.8405 13.888 42.8615 13.8846L42.8665 13.8829L42.8716 13.8821L42.8766 13.8804L42.8825 13.8795L42.9077 13.8753L42.9186 13.8745L47.3756 13.2507L47.3866 13.249L47.3924 13.2481L47.3966 13.2473L47.4034 13.2465L47.4076 13.2456L47.4143 13.2448H47.4185L47.4252 13.2439H47.4294H47.4361L47.4403 13.2431H47.447H47.4512H47.4571H47.4621L47.468 13.2439H47.4731H47.4789L47.484 13.2448L47.489 13.2456H47.4941L47.4991 13.2465L47.5041 13.2473L47.5092 13.2481L47.5142 13.249L47.5193 13.2507L47.5251 13.2515L47.5293 13.2524L47.5352 13.2541L47.5394 13.2549L47.5461 13.2566L47.5495 13.2583L47.5562 13.26L47.5596 13.2617L47.5663 13.2634L47.5696 13.2651L47.5755 13.2668L47.5789 13.2685L47.5856 13.2702L47.589 13.2719L47.5957 13.2736L47.5982 13.2753L47.6049 13.2778L47.6074 13.2795L47.6167 13.2837L47.6234 13.2863L47.6259 13.288L47.6326 13.2905L47.6352 13.2922L47.6419 13.2956L47.6436 13.2973L47.6503 13.3007L47.652 13.3024L47.6587 13.3058L47.6604 13.3075L47.6671 13.3109L47.6688 13.3126L47.6755 13.316L47.6771 13.3176L47.6839 13.321L47.6855 13.3227L47.6914 13.327L47.6931 13.3287L47.699 13.3329L47.7007 13.3346L47.7065 13.3388L47.7082 13.3405L47.7141 13.3456L47.7158 13.3473L47.7175 13.3482L47.7225 13.3524L47.7242 13.3541L47.7301 13.3592L47.7317 13.3609L47.7376 13.366L47.7393 13.3676L47.7452 13.3727L47.7469 13.3744L47.7519 13.3795L47.7536 13.3812L47.7586 13.3863L47.7603 13.388L47.7653 13.3931L47.767 13.3948L47.772 13.4007L47.7737 13.4024L47.7788 13.4083L47.7804 13.41L47.7855 13.416L47.7872 13.4177L47.7922 13.4236L47.7939 13.4253L47.7989 13.4312L47.8006 13.4338L47.8048 13.4397L47.8065 13.4422L47.8107 13.4482L47.8124 13.4507L47.8208 13.4651L47.8224 13.4677L47.8258 13.4736L47.8275 13.477L47.8308 13.4829L47.8325 13.4863L47.835 13.4922L47.8367 13.4956L47.8409 13.5049L47.8434 13.5109L47.8451 13.5143L47.8476 13.5202L47.8485 13.5244L47.851 13.5304L47.8518 13.5346L47.8544 13.5405L47.8552 13.5448L47.8569 13.5499L47.8577 13.5549L47.8594 13.56L47.8602 13.5651L47.8619 13.5702L47.8628 13.5753L47.8644 13.5804L47.8653 13.5855L47.867 13.5905L47.8678 13.5956L47.8695 13.6007L47.872 13.6278L47.8728 13.6329V13.6388L47.8745 13.6651V16.3195C47.8745 16.5517 47.6872 16.7407 47.4571 16.7407C47.227 16.7407 47.0397 16.5517 47.0397 16.3195V14.1473L47.033 14.1524ZM6.63166 20.1511C6.63166 20.0383 6.67533 19.9366 6.74755 19.8604H6.74839L6.78451 19.8265H6.78534L6.7929 19.8197H6.79374L6.8013 19.8137H6.80214L6.8097 19.8078H6.81054L6.84497 19.7858L6.85253 19.7807H6.85421L6.87185 19.7714L6.87941 19.7671L6.88109 19.7663L6.88865 19.7621H6.89033L6.89788 19.7587L6.89956 19.7578L6.9088 19.7544L6.91636 19.751H6.91804L6.9256 19.7476H6.92728L6.94491 19.7426L6.94743 19.7417L6.95499 19.74H6.95835L6.96591 19.7383H6.96843L6.97599 19.7366H6.97935L6.98691 19.7349H6.99027L6.99698 19.7332H7.00118L7.0079 19.7315L7.01882 19.7307L16.3797 18.5527L16.3906 18.551L16.4007 18.5493H16.4032L16.4108 18.5476H16.4133L16.4208 18.5467H16.4233L16.4309 18.5459H16.4334L16.4519 18.545L16.4653 18.5459H16.4729L16.4746 18.5467H16.483L16.4847 18.5476H16.4931L16.4947 18.5484L16.5031 18.5493L16.5048 18.5501L16.5132 18.551L16.5149 18.5518L16.5241 18.5535L16.5258 18.5544L16.5342 18.5561L16.5359 18.5569L16.5451 18.5586L16.546 18.5594L16.5552 18.5611L16.556 18.562L16.5653 18.5637L16.5661 18.5645L16.5745 18.5662L16.5754 18.5671L16.5846 18.5696L16.5854 18.5705L16.5947 18.573V18.5739L16.6039 18.5772L16.6132 18.5806V18.5815L16.6224 18.5857L16.6316 18.59V18.5908L16.6409 18.595L16.6493 18.6001L16.6577 18.6052V18.6061L16.6661 18.6111L16.6745 18.6162L16.6829 18.6213V18.6222L16.6904 18.6272L16.698 18.6332L16.7055 18.6391L16.7131 18.6459L16.7207 18.6518H16.7215L16.729 18.6586L16.7366 18.6654V18.6662L16.7442 18.673L16.7509 18.6806L16.7576 18.6883H16.7584L16.7652 18.6959L16.771 18.7035V18.7044L16.7778 18.712V18.7128L16.7836 18.7205V18.7213L16.7895 18.7289V18.7298L16.7954 18.7374L16.8004 18.7459L16.8055 18.7544L16.8105 18.7628L16.8156 18.7713L16.8206 18.7798V18.7806L16.8256 18.7891L16.8298 18.7984H16.8307L16.8349 18.8078L16.8382 18.8171L16.8391 18.8179L16.8424 18.8264V18.8273L16.8458 18.8366V18.8374L16.8491 18.8467V18.8476L16.8517 18.8561V18.8578L16.8542 18.8662L16.855 18.8679L16.8567 18.8764V18.8781L16.8584 18.8866V18.8883L16.8601 18.8968V18.8984L16.8617 18.9069V18.9086L16.8634 18.9162V18.9188L16.8651 18.9264V18.929L16.8659 18.9366V18.9391L16.8668 18.9468V18.9493L16.8676 18.9679V22.68C16.8676 22.9122 16.6803 23.1012 16.4502 23.1012C16.2201 23.1012 16.0328 22.9122 16.0328 22.68V19.4451L7.46478 20.5231V24.3131C7.46478 24.5454 7.27749 24.7343 7.04738 24.7343C6.81726 24.7343 6.62997 24.5454 6.62997 24.3131V20.1519L6.63166 20.1511ZM26.7962 21.5664C26.7962 21.7986 26.6089 21.9876 26.3788 21.9876C26.1487 21.9876 25.9614 21.7986 25.9614 21.5664V17.7755L18.8219 18.9535V22.2791C18.8219 22.5113 18.6346 22.7003 18.4045 22.7003C18.1744 22.7003 17.9871 22.5113 17.9871 22.2791V18.6111V18.6001V18.595V18.5891V18.584V18.5781L17.988 18.573V18.5679L17.9888 18.5628V18.5578L17.9896 18.5527L17.9905 18.5476L17.9913 18.5416L17.9922 18.5374L17.993 18.5315L17.9938 18.5272L17.9955 18.5205L17.9964 18.5162L17.998 18.5103L17.9989 18.5061V18.5052L18.0006 18.4993L18.0022 18.4967L18.0039 18.4891L18.0048 18.4866L18.0064 18.4789L18.0081 18.4764L18.0098 18.4696L18.0115 18.4671L18.0132 18.4594L18.0148 18.4569L18.0165 18.4493L18.0182 18.4476L18.0207 18.4399L18.0224 18.4383L18.0241 18.4306L18.0258 18.4289L18.0291 18.4213L18.0308 18.4196L18.0333 18.412L18.035 18.4103L18.0384 18.4027L18.04 18.401L18.0434 18.3933L18.0451 18.3916L18.0484 18.384L18.0501 18.3823L18.0543 18.3747L18.056 18.373L18.0602 18.3654L18.0619 18.3637L18.072 18.3484L18.0736 18.3467L18.0787 18.3399L18.0804 18.3382L18.0854 18.3315L18.0871 18.3298L18.0921 18.323L18.0997 18.3145L18.1047 18.3077L18.1064 18.3069L18.1123 18.3001L18.1139 18.2993L18.119 18.2925L18.1207 18.2916L18.1265 18.2857L18.1282 18.2849L18.1492 18.2654L18.1509 18.2645L18.1576 18.2586L18.1593 18.2577L18.166 18.2526L18.1677 18.2518L18.1744 18.2467L18.1761 18.2459C18.1971 18.2306 18.2214 18.2171 18.245 18.206L18.2475 18.2052C18.2903 18.1865 18.3357 18.1738 18.3844 18.1696L26.2915 16.8653C26.3225 16.8577 26.357 16.8534 26.3906 16.8534C26.5241 16.8534 26.6434 16.9178 26.7198 17.0178L26.7248 17.0229L26.7265 17.0255L26.7315 17.0306L26.7332 17.0331C26.7475 17.0543 26.7609 17.0763 26.7719 17.1009L26.7735 17.1051C26.7962 17.156 26.8096 17.2136 26.8096 17.2738V21.5588L26.7962 21.5664ZM37.6763 3.53239C37.6831 4.04682 37.5487 4.44515 37.337 4.75533C37.1288 5.06213 36.8516 5.27655 36.5677 5.43249C36.5216 5.46215 36.4703 5.48334 36.4132 5.49266L34.7806 5.77488L34.6538 5.7842C34.2615 5.752 33.8156 5.67657 33.4259 5.37825C33.0396 5.08077 32.7372 4.58753 32.6549 3.74426L32.6533 3.73409L32.6516 3.72308V3.71714L32.6507 3.71206V3.70613L32.6499 3.70104V3.69511L32.6491 3.69002C32.6381 3.31627 32.7633 3.001 32.9531 2.74421L32.7162 2.78404L31.4229 3.40357C31.2717 3.55781 31.1407 3.74765 31.0643 3.97394C31.0013 4.16293 30.9761 4.38582 31.0088 4.64007C31.3162 5.21722 31.6916 5.61046 32.0914 5.88421C32.4962 6.16134 32.9371 6.32575 33.3579 6.43847L36.0009 6.56899C36.4225 6.51475 36.865 6.42661 37.3983 6.2088C37.9358 5.9893 38.5741 5.63674 39.382 5.05874C39.4417 4.79432 39.4198 4.55956 39.3459 4.34938C39.2536 4.08411 39.0755 3.83749 38.8697 3.60697C38.664 3.3773 38.4322 3.16542 38.0845 2.99338C37.8989 2.901 37.6789 2.8171 37.4109 2.74421C37.5529 2.93829 37.6427 3.16796 37.6738 3.4451C37.6772 3.47306 37.6772 3.50103 37.6747 3.52815V3.52984L37.6763 3.53239Z" fill="#5B5B5B"/>
</svg>
