<svg width="41" height="66" viewBox="0 0 41 66" fill="none" xmlns="http://www.w3.org/2000/svg">
<path d="M36.6707 65.3864L36.663 65.3931L36.192 65.8518C36.1145 65.9422 35.9979 66 35.8684 66H0.952215C0.818495 66 0.698412 65.938 0.620906 65.8426L0.137988 65.3713L0.130315 65.3638L0.123495 65.3579L0.122642 65.3571L0.115843 65.3496L0.10817 65.342L0.100497 65.3345L0.0954024 65.327L0.0936973 65.3261L0.088582 65.3186L0.0868769 65.3169L0.0817616 65.3102L0.0800565 65.3085L0.074962 65.3018L0.0732569 65.3002L0.0715518 65.296L0.0698467 65.2943L0.0681416 65.2918L0.0638788 65.2859L0.0621737 65.2834L0.0587635 65.2776L0.0570584 65.275L0.053669 65.2692L0.0519639 65.2658L0.0494063 65.2608L0.0477012 65.2575L0.0451435 65.2525L0.0434384 65.2483L0.0408808 65.2432L0.0391757 65.2391L0.0374706 65.234L0.0357655 65.2299L0.0332286 65.2248L0.0315235 65.2206L0.0298184 65.2156L0.0281133 65.2114L0.0264082 65.2064L0.0247031 65.2022L0.022998 65.1964L0.0212929 65.1922L0.0195878 65.1863L0.0187353 65.183L0.0170302 65.1771L0.0161776 65.1729L0.0144725 65.1671L0.0136408 65.1637L0.0119357 65.157L0.0110831 65.1537L0.00937804 65.1461L0.0085255 65.1436L0.0068204 65.1361V65.1336L0.0051153 65.1261V65.1244L0.0034102 65.1168V65.1152L0.0017051 65.0959V65.0951L0.00085255 65.085L0 65.0641V0.954316C0 0.8254 0.0604778 0.709033 0.155018 0.632855L0.657524 0.142306V0.141468L0.665197 0.135613L0.666049 0.133937L0.67287 0.128081L0.673722 0.126406L0.680522 0.121378L0.707782 0.10045L0.712898 0.0971085L0.715455 0.0945946L0.72055 0.0912429L0.72396 0.0887291L0.729075 0.0862255L0.733338 0.0837117L0.738433 0.0811979L0.742695 0.0786841L0.747811 0.0761805L0.752073 0.0736667L0.757189 0.0719909L0.762283 0.0694771L0.766546 0.0678012L0.771661 0.0652976L0.775924 0.0636217L0.781018 0.0611079L0.786134 0.0594321L0.791249 0.0569285L0.796364 0.0552526L0.80148 0.0535767L0.806574 0.0519009L0.811689 0.0493871L0.815952 0.0477112L0.821068 0.0460455L0.826162 0.0443697L0.831277 0.0426938L0.836393 0.0410179L0.841508 0.0393421L0.846602 0.0376662L0.851718 0.0360005L0.856833 0.0343247L0.861948 0.0326488L0.867043 0.0309729L0.872158 0.030135L0.878126 0.0284591L0.882389 0.0276212L0.888336 0.0259453L0.892599 0.0251176L0.899419 0.0234417H0.901977L0.909629 0.0217659H0.912186L0.919859 0.02009H0.921564L0.930069 0.0192521H0.931774L0.941152 0.0184141H0.942005H0.952215L0.963298 0.0175762H2.03815C2.07648 0.00669367 2.11738 0 2.15911 0C2.20085 0 2.24172 0.00585655 2.28005 0.0175762H3.75012C3.78844 0.00669367 3.82932 0 3.87105 0C3.91279 0 3.95368 0.00585655 3.99201 0.0175762H5.46293C5.50126 0.00669367 5.54213 0 5.58387 0C5.6256 0 5.66648 0.00585655 5.7048 0.0175762H7.17657C7.2149 0.00669367 7.25578 0 7.29751 0C7.33925 0 7.38014 0.00585655 7.41847 0.0175762H8.88598C8.9243 0.00669367 8.96518 0 9.00692 0C9.04865 0 9.08953 0.00585655 9.12785 0.0175762H10.5979C10.6362 0.00669367 10.6771 0 10.7189 0C10.7606 0 10.8015 0.00585655 10.8398 0.0175762H12.3116C12.3499 0.00669367 12.3908 0 12.4325 0C12.4743 0 12.5152 0.00585655 12.5535 0.0175762H14.0252C14.0636 0.00669367 14.1045 0 14.1462 0C14.1879 0 14.2288 0.00585655 14.2671 0.0175762H15.7346C15.773 0.00669367 15.8139 0 15.8556 0C15.8973 0 15.9382 0.00585655 15.9765 0.0175762H17.4466C17.4849 0.00669367 17.5258 0 17.5675 0C17.6093 0 17.6501 0.00585655 17.6885 0.0175762H19.1611C19.1994 0.00669367 19.2403 0 19.282 0C19.3238 0 19.3647 0.00585655 19.403 0.0175762H20.8705C20.9088 0.00669367 20.9497 0 20.9914 0C21.0332 0 21.0741 0.00585655 21.1124 0.0175762H22.5825C22.6208 0.00669367 22.6617 0 22.7034 0C22.7451 0 22.786 0.00585655 22.8243 0.0175762H24.2944C24.3327 0.00669367 24.3736 0 24.4154 0C24.4571 0 24.498 0.00585655 24.5363 0.0175762H26.0106C26.0489 0.00669367 26.0898 0 26.1316 0C26.1733 0 26.2142 0.00585655 26.2525 0.0175762H27.72C27.7583 0.00669367 27.7992 0 27.841 0C27.8827 0 27.9236 0.00585655 27.9619 0.0175762H29.432C29.4703 0.00669367 29.5112 0 29.5529 0C29.5946 0 29.6355 0.00585655 29.6739 0.0175762H31.1465C31.1848 0.00669367 31.2257 0 31.2674 0C31.3092 0 31.35 0.00585655 31.3884 0.0175762H32.8576C32.8959 0.00669367 32.9368 0 32.9785 0C33.0202 0 33.0611 0.00585655 33.0995 0.0175762H34.567C34.6053 0.00669367 34.6462 0 34.6879 0C34.7296 0 34.7705 0.00585655 34.8088 0.0175762H35.8897C36.0234 0.0175762 36.1443 0.0795241 36.2219 0.175793L36.6886 0.632028C36.7831 0.708205 36.8436 0.823725 36.8436 0.953478V21.4084C37.3989 21.467 37.9014 21.6319 38.289 21.8688C38.84 22.2037 39.1807 22.6867 39.1807 23.2359V24.2563C39.2369 24.2295 39.3 24.2145 39.3664 24.2145H40.5724C40.8058 24.2145 40.9957 24.4011 40.9957 24.6305V24.9503C40.9957 25.1797 40.8058 25.3663 40.5724 25.3663H39.3664C39.3 25.3663 39.2369 25.3504 39.1807 25.3236V27.7756C39.2369 27.7488 39.3 27.7337 39.3664 27.7337H40.5724C40.8058 27.7337 40.9957 27.9204 40.9957 28.1497V28.4695C40.9957 28.6989 40.8058 28.8856 40.5724 28.8856H39.3664C39.3 28.8856 39.2369 28.8697 39.1807 28.8429V31.2914C39.2369 31.2647 39.3 31.2496 39.3664 31.2496H40.5724C40.8058 31.2496 40.9957 31.4363 40.9957 31.6656V31.9854C40.9957 32.2148 40.8058 32.4015 40.5724 32.4015H39.3664C39.3 32.4015 39.2369 32.3856 39.1807 32.3588V34.8107C39.2369 34.7839 39.3 34.7688 39.3664 34.7688H40.5724C40.8058 34.7688 40.9957 34.9555 40.9957 35.1849V35.5047C40.9957 35.734 40.8058 35.9207 40.5724 35.9207H39.3664C39.3 35.9207 39.2369 35.9048 39.1807 35.878V38.3299C39.2369 38.3031 39.3 38.2881 39.3664 38.2881H40.5724C40.8058 38.2881 40.9957 38.4747 40.9957 38.7041V39.0264C40.9957 39.2558 40.8058 39.4425 40.5724 39.4425H39.3664C39.3 39.4425 39.2369 39.4265 39.1807 39.3998V41.8483C39.2369 41.8215 39.3 41.8065 39.3664 41.8065H40.5724C40.8058 41.8065 40.9957 41.9931 40.9957 42.2225V42.5448C40.9957 42.7742 40.8058 42.9608 40.5724 42.9608H39.3664C39.3 42.9608 39.2369 42.9449 39.1807 42.9182V45.3701C39.2369 45.3433 39.3 45.3282 39.3664 45.3282H40.5724C40.8058 45.3282 40.9957 45.5149 40.9957 45.7443V46.064C40.9957 46.2934 40.8058 46.4801 40.5724 46.4801H39.3664C39.3 46.4801 39.2369 46.4642 39.1807 46.4374V48.8893C39.2369 48.8625 39.3 48.8475 39.3664 48.8475H40.5724C40.8058 48.8475 40.9957 49.0341 40.9957 49.2635V49.5833C40.9957 49.8127 40.8058 49.9993 40.5724 49.9993H39.3664C39.3 49.9993 39.2369 49.9834 39.1807 49.9566V52.4077C39.2369 52.3809 39.3 52.3659 39.3664 52.3659H40.5724C40.8058 52.3659 40.9957 52.5525 40.9957 52.7819V53.1025C40.9957 53.3319 40.8058 53.5186 40.5724 53.5186H39.3664C39.3 53.5186 39.2369 53.5027 39.1807 53.4759V53.5747C39.725 53.9782 40.1755 54.5005 40.4907 55.0999C40.816 55.7185 41 56.4217 41 57.1642C41 58.4073 40.4873 59.5341 39.6577 60.3486C38.9235 61.0702 37.9389 61.549 36.8428 61.6487V65.0608C36.8428 65.1897 36.7831 65.3052 36.6886 65.3814L36.6707 65.3864ZM28.2481 0.851352V65.1687H29.1126V0.851352H28.2481ZM27.4015 65.1687V0.851352H26.5387V65.1687H27.4015ZM33.3839 60.5579V65.1687H34.2467V61.1447C33.9358 60.9815 33.6471 60.7848 33.3839 60.5587V60.5579ZM32.5373 65.1687V59.5902C32.0834 58.8912 31.821 58.0608 31.821 57.1701C31.821 56.4276 32.005 55.7244 32.3295 55.1074C32.3934 54.9852 32.4632 54.8663 32.5382 54.7508V0.851352H31.6745V65.1687H32.5382H32.5373ZM23.1114 0.851352V65.1687H23.9759V0.851352H23.1114ZM22.2648 65.1687V0.851352H21.4003V65.1687H22.2648ZM14.5576 0.851352V65.1687H15.4204V0.851352H14.5576ZM13.711 65.1687V0.851352H12.8439V65.1687H13.711ZM35.0925 0.851352V21.5943C35.3642 21.5014 35.6623 21.4361 35.9783 21.4059V1.12843L35.6946 0.850514H35.0925V0.851352ZM34.2459 22.0446V0.851352H33.3831V53.7839C33.4555 53.722 33.5287 53.6626 33.6045 53.6048V23.2384C33.6045 22.778 33.8447 22.3644 34.2459 22.0455V22.0446ZM29.9583 0.851352V65.1687H30.8254V0.851352H29.9583ZM20.5528 65.1687V0.851352H19.6909V65.1687H20.5528ZM35.0916 61.4871V65.1687H35.6929L35.9774 64.8908V61.6545C35.6725 61.6277 35.3761 61.5708 35.0916 61.4871ZM18.8443 65.1687V0.851352H17.9772V65.1687H18.8443ZM16.2653 0.851352V65.1687H17.1298V0.851352H16.2653ZM25.6912 65.1687V0.851352H24.8216V65.1687H25.6912ZM11.1302 0.851352V65.1687H11.9973V0.851352H11.1302ZM10.2836 65.1687V0.851352H9.41915V65.1687H10.2836ZM2.57304 0.851352V65.1687H3.43754V0.851352H2.57304ZM1.72643 65.1687V0.851352H1.12512L0.843213 1.12676V64.8925L1.12597 65.1687H1.72558H1.72643ZM8.5717 65.1687V0.851352H7.7089V65.1687H8.5717ZM6.8623 65.1687V0.851352H5.99525V65.1687H6.8623ZM5.14863 65.1687V0.851352H4.28329V65.1687H5.14863ZM34.578 31.7895C34.5695 31.756 34.5644 31.7209 34.5644 31.6857V28.3624C34.5644 28.3264 34.5695 28.2912 34.578 28.2586C34.5695 28.2251 34.5644 28.1899 34.5644 28.1548V24.8322C34.5644 24.7971 34.5695 24.7628 34.5772 24.7293C34.5687 24.6958 34.5636 24.6606 34.5636 24.6238V24.4062C34.5636 23.9081 34.7688 23.4552 35.101 23.1287C35.4323 22.8014 35.8922 22.598 36.399 22.598C36.9058 22.598 37.3666 22.8022 37.6987 23.1279L37.7217 23.1513C38.0403 23.4769 38.237 23.9198 38.237 24.4062V24.6238C38.237 24.659 38.2319 24.6933 38.2242 24.7268C38.2328 24.7603 38.2379 24.7954 38.2379 24.8322V28.1548C38.2379 28.1908 38.2328 28.2259 38.2242 28.2586C38.2328 28.292 38.2379 28.3272 38.2379 28.3624V31.6857C38.2379 31.7217 38.2328 31.7569 38.2242 31.7895C38.2328 31.823 38.2379 31.8582 38.2379 31.8933V35.2159C38.2379 35.2527 38.2328 35.287 38.2234 35.3213C38.2319 35.3548 38.2379 35.39 38.2379 35.4268V38.7493C38.2379 38.7853 38.2328 38.8205 38.2242 38.8531C38.2328 38.8866 38.2379 38.9218 38.2379 38.9569V42.2803C38.2379 42.3163 38.2328 42.3514 38.2242 42.3841C38.2328 42.4176 38.2379 42.4527 38.2379 42.4879V45.8104C38.2379 45.8464 38.2328 45.8816 38.2242 45.9142C38.2328 45.9477 38.2379 45.9828 38.2379 46.018V49.3405C38.2379 49.3799 38.2319 49.4175 38.2217 49.4535C38.2294 49.4845 38.2336 49.518 38.2336 49.5515V53.0799L38.3137 53.1201V23.2359C38.3137 22.9931 38.1263 22.7562 37.8248 22.5737C37.4637 22.3535 36.9535 22.2171 36.3803 22.2171C35.8079 22.2171 35.2977 22.3535 34.9375 22.5737L34.9119 22.5888L34.9102 22.5904L34.906 22.593L34.9043 22.5946L34.8966 22.5997L34.8957 22.6005L34.8872 22.6055C34.6172 22.7847 34.4503 23.0073 34.4503 23.2359V53.1327L34.5584 53.0766V49.5515C34.5584 49.5105 34.5644 49.4711 34.5763 49.4334C34.5687 49.4033 34.5653 49.3723 34.5653 49.3405V46.018C34.5653 45.982 34.5704 45.9468 34.5789 45.9142C34.5704 45.8807 34.5653 45.8456 34.5653 45.8104V42.4879C34.5653 42.4519 34.5704 42.4167 34.5789 42.3841C34.5704 42.3506 34.5653 42.3154 34.5653 42.2803V38.9569C34.5653 38.9209 34.5704 38.8858 34.5789 38.8531C34.5704 38.8196 34.5653 38.7845 34.5653 38.7493V35.4268C34.5653 35.39 34.5704 35.3556 34.5797 35.3213C34.5712 35.2878 34.5653 35.2527 34.5653 35.2159V31.8933C34.5653 31.8573 34.5704 31.8222 34.5789 31.7895H34.578ZM35.411 31.2697H37.3913V28.7784H35.411V31.2697ZM35.411 38.3341H37.3913V35.8437H35.411V38.3341ZM35.411 48.927H37.3913V46.4366H35.411V48.927ZM35.411 27.7387H37.3913V25.2483H35.411V27.7387ZM35.4042 53.3302C35.4042 53.506 35.2926 53.6559 35.1359 53.717L35.1265 53.7212L34.2109 54.195C33.8668 54.4386 33.5679 54.7391 33.326 55.0823L33.3209 55.0907L33.3183 55.094L33.2979 55.1242L33.292 55.1317C33.2144 55.2472 33.1438 55.3653 33.0782 55.4883C32.815 55.9889 32.6659 56.5632 32.6659 57.1709C32.6659 57.931 32.9002 58.6392 33.303 59.2244L33.3047 59.2269L33.3107 59.2344L33.3158 59.2428C33.447 59.432 33.5952 59.6061 33.7587 59.7668C34.0628 60.0665 34.4188 60.3143 34.814 60.4968L34.8191 60.4985L34.8233 60.5001L34.825 60.501L34.8429 60.5085L34.8523 60.5127L34.8608 60.5177H34.8617L34.8702 60.5227C35.3378 60.727 35.8531 60.8417 36.399 60.8417C37.4305 60.8417 38.3656 60.4298 39.0402 59.7668C39.7156 59.103 40.1338 58.1847 40.1338 57.1709C40.1338 56.5632 39.9839 55.9889 39.7199 55.4866C39.4499 54.9735 39.0589 54.5298 38.5862 54.1941L37.5727 53.6818C37.3674 53.578 37.2856 53.3311 37.3879 53.1276V49.97H35.405V53.3302H35.4042ZM35.411 34.8006H37.3913V32.3102H35.411V34.8006ZM35.411 45.396H37.3913V42.9056H35.411V45.396ZM35.411 41.8651H37.3913V39.3738H35.411V41.8651ZM35.4306 24.2078H37.37C37.3316 24.0253 37.2422 23.8612 37.1162 23.7323L37.0991 23.7164C36.9203 23.5406 36.6716 23.4301 36.3982 23.4301C36.1239 23.4301 35.8769 23.5397 35.6989 23.7139C35.5652 23.8453 35.4698 24.0169 35.4298 24.2078H35.4306Z" fill="#5B5B5B"/>
</svg>
