<svg width="86" height="75" viewBox="0 0 86 75" fill="none" xmlns="http://www.w3.org/2000/svg">
<path d="M85.157 1.75009L85.1587 1.70664C85.1477 1.4817 85.0575 1.27891 84.9149 1.12639L84.898 1.11106C84.7394 0.95088 84.5191 0.849478 84.2753 0.84607H84.2719H84.2643H84.2618H84.2542H1.74499H1.73401H1.72305C1.47919 0.849478 1.25811 0.95088 1.10032 1.11021C0.942527 1.26954 0.842969 1.48681 0.837063 1.72623V1.73645V1.73815V1.74754V1.74924V1.76031V73.2482L0.836218 73.2601V73.2695V73.2712C0.842968 73.5115 0.942526 73.7288 1.09947 73.8872C1.25811 74.0474 1.47919 74.1488 1.72221 74.1514H1.72559H1.73317H1.7357H1.7433H84.2474H84.2584H84.2635H84.2694H84.2744H84.282C84.5217 74.1446 84.7377 74.0457 84.8929 73.8881C85.0499 73.7305 85.1495 73.5123 85.1562 73.2712V73.261V73.2593V73.2508V73.2371V1.74924L85.157 1.75009ZM81.2798 4.84469V70.3095H81.873L82.1506 70.0283V5.12757L81.8721 4.84469H81.2789H81.2798ZM80.9119 71.1556L80.8604 71.159L80.8089 71.1556L79.215 71.1564L79.1652 71.159L79.1154 71.1564H77.5173L77.4675 71.159L77.4177 71.1564H75.8212L75.7715 71.159L75.7217 71.1564H74.1244L74.0754 71.159L74.0265 71.1564H72.4258L72.3768 71.159L72.3279 71.1564H70.7298L70.6808 71.159L70.6319 71.1564H69.0337L68.9848 71.159L68.9358 71.1564H67.3411L67.2921 71.159L67.2432 71.1564H65.6425L65.5936 71.159L65.5446 71.1564H63.9465L63.8975 71.159L63.8486 71.1564H62.2504L62.2015 71.159L62.1525 71.1564H60.5544L60.5054 71.159L60.4565 71.1564H58.8567L58.8077 71.159L58.7588 71.1564H57.1606L57.1117 71.159L57.0636 71.1564H55.4663L55.4182 71.159L55.3701 71.1564H53.7686L53.7205 71.159L53.6724 71.1564H52.0734L52.0253 71.159L51.9772 71.1564H50.3782L50.3301 71.159L50.282 71.1564H48.6838L48.6357 71.159L48.5876 71.1564H47.4426C47.3177 71.1564 47.2055 71.1011 47.1287 71.0124L46.625 70.5004C46.5431 70.4177 46.5035 70.3104 46.5035 70.2022L46.5018 4.95375C46.5018 4.8268 46.5575 4.71263 46.6452 4.63509L47.1439 4.12557C47.2258 4.04207 47.3337 3.99947 47.4417 4.00033L82.0375 3.99862C82.1615 3.99862 82.2738 4.054 82.3506 4.14176L82.8585 4.65725C82.9404 4.73989 82.98 4.84725 82.98 4.95546L82.9817 70.2039C82.9817 70.3291 82.9277 70.4416 82.8416 70.5191L82.3345 71.032C82.2527 71.1147 82.1455 71.1564 82.0383 71.1564H80.9043L80.9119 71.1556ZM80.441 70.3095V4.84469H79.5846V70.3095H80.441ZM78.7458 70.3095V4.84469H77.8869V70.3095H78.7458ZM77.0481 70.3095V4.84469H76.1917V70.3095H77.0481ZM75.3529 70.3095V4.84469H74.4965V70.3095H75.3529ZM73.6578 70.3095V4.84469H72.7988V70.3095H73.6578ZM71.96 70.3095V4.84469H71.1036V70.3095H71.96ZM70.2648 70.3095V4.84469H69.4084V70.3095H70.2648ZM68.5696 70.3095V4.84469H67.7157V70.3095H68.5696ZM66.877 70.3095V4.84469H66.018V70.3095H66.877ZM65.1793 70.3095V4.84469H64.3228V70.3095H65.1793ZM63.4841 70.3095V4.84469H62.6276V70.3095H63.4841ZM61.7889 70.3095V4.84469H60.9324V70.3095H61.7889ZM60.0937 70.3095V4.84469H59.2347V70.3095H60.0937ZM58.396 70.3095V4.84469H57.5395V70.3095H58.396ZM56.7008 70.3095V4.84469H55.846V70.3095H56.7008ZM55.0073 70.3095V4.84469H54.1483V70.3095H55.0073ZM53.3095 70.3095V4.84469H52.4531V70.3095H53.3095ZM51.6143 70.3095V4.84469H50.7579V70.3095H51.6143ZM49.9192 70.3095V4.84469H49.0635V70.3095H49.9192ZM48.2248 70.3095V4.84469H47.624L47.3498 5.12587V70.0292L47.6249 70.3087H48.2248V70.3095ZM36.7306 27.6231C36.9221 27.4928 37.1837 27.5439 37.312 27.7373C37.4411 27.9307 37.3904 28.1949 37.1989 28.3244L30.7236 32.7337C30.5852 32.8274 30.4114 32.8274 30.2772 32.7482L21.4122 28.4428L12.754 32.7618C12.6114 32.8325 12.4486 32.8138 12.3271 32.7277L5.6138 28.3278C5.42057 28.2008 5.36572 27.9384 5.49061 27.7441C5.61633 27.549 5.87623 27.4936 6.06862 27.6197L12.5971 31.8987L21.2241 27.595C21.3355 27.5413 21.4688 27.5354 21.5894 27.5933L30.4536 31.8978L36.7306 27.6231ZM36.7306 34.4659C36.9221 34.3355 37.1837 34.3866 37.312 34.58C37.4411 34.7735 37.3904 35.0376 37.1989 35.1671L30.7236 39.5764C30.5852 39.6701 30.4114 39.6701 30.2772 39.5909L21.4122 35.2855L12.754 39.6045C12.6114 39.6753 12.4486 39.6565 12.3271 39.5704L5.6138 35.1705C5.42057 35.0436 5.36572 34.7811 5.49061 34.5869C5.61633 34.3918 5.87623 34.3364 6.06862 34.4625L12.5971 38.7414L21.2241 34.4378C21.3355 34.3841 21.4688 34.3781 21.5894 34.4361L30.4536 38.7406L36.7306 34.4659ZM36.7306 48.1556C36.9221 48.0252 37.1837 48.0764 37.312 48.2698C37.4411 48.4632 37.3904 48.7273 37.1989 48.8568L30.7236 53.2644C30.5852 53.3582 30.4114 53.3582 30.2772 53.2789L21.4122 48.9761L12.754 53.2934C12.6114 53.3641 12.4486 53.3454 12.3271 53.2593L5.6138 48.8611C5.42057 48.7341 5.36572 48.4717 5.49061 48.2774C5.61633 48.0823 5.87623 48.027 6.06862 48.1531L12.5971 52.4294L21.2241 48.1275C21.3355 48.0738 21.4688 48.0679 21.5894 48.1258L30.4536 52.4278L36.7306 48.1548V48.1556ZM36.7306 54.9984C36.9221 54.868 37.1837 54.9191 37.312 55.1125C37.4411 55.3059 37.3904 55.5701 37.1989 55.6996L30.7236 60.1072C30.5852 60.2009 30.4114 60.2009 30.2772 60.1217L21.4122 55.8189L12.754 60.1362C12.6114 60.2069 12.4486 60.1881 12.3271 60.1021L5.6138 55.7038C5.42057 55.5769 5.36572 55.3145 5.49061 55.1202C5.61633 54.9251 5.87623 54.8697 6.06862 54.9958L12.5971 59.2722L21.2241 54.9702C21.3355 54.9165 21.4688 54.9106 21.5894 54.9685L30.4536 59.2705L36.7306 54.9975V54.9984ZM36.7306 41.312C36.9221 41.1817 37.1837 41.2328 37.312 41.4262C37.4411 41.6196 37.3904 41.8837 37.1989 42.0132L30.7236 46.4209C30.5852 46.5146 30.4114 46.5146 30.2772 46.4353L21.4122 42.1325L12.754 46.4498C12.6114 46.5205 12.4486 46.5018 12.3271 46.4158L5.6138 42.0175C5.42057 41.8906 5.36572 41.6281 5.49061 41.4339C5.61633 41.2388 5.87623 41.1834 6.06862 41.3095L12.5971 45.5859L21.2241 41.2839C21.3355 41.2302 21.4688 41.2243 21.5894 41.2822L30.4536 45.5842L36.7306 41.3112V41.312ZM36.7306 61.8411C36.9221 61.7107 37.1837 61.7618 37.312 61.9553C37.4411 62.1487 37.3904 62.4128 37.1989 62.5423L30.7236 66.9525C30.5852 67.0462 30.4114 67.0462 30.2772 66.967L21.4122 62.6616L12.754 66.9814C12.6114 67.0522 12.4486 67.0334 12.3271 66.9474L5.6138 62.5466C5.42057 62.4196 5.36572 62.1572 5.49061 61.9629C5.61633 61.7678 5.87623 61.7124 6.06862 61.8385L12.5971 66.1175L21.2241 61.813C21.3355 61.7593 21.4688 61.7533 21.5894 61.8113L30.4536 66.1166L36.7306 61.8411ZM36.7306 20.7796C36.9221 20.6492 37.1837 20.7003 37.312 20.8937C37.4411 21.0871 37.3904 21.3513 37.1989 21.4808L30.7236 25.8909C30.5852 25.9847 30.4114 25.9847 30.2772 25.9054L21.4122 21.6001L12.754 25.9199C12.6114 25.9906 12.4486 25.9719 12.3271 25.8858L5.6138 21.485C5.42057 21.3581 5.36572 21.0957 5.49061 20.9014C5.61633 20.7063 5.87623 20.6509 6.06862 20.777L12.5971 25.056L21.2241 20.7514C21.3355 20.6978 21.4688 20.6918 21.5894 20.7497L30.4536 25.0551L36.7306 20.7796ZM36.7306 13.9368C36.9221 13.8065 37.1837 13.8576 37.312 14.051C37.4411 14.2444 37.3904 14.5085 37.1989 14.6381L30.7236 19.0482C30.5852 19.1419 30.4114 19.1419 30.2772 19.0627L21.4122 14.7573L12.754 19.0772C12.6114 19.1479 12.4486 19.1292 12.3271 19.0431L5.6138 14.6423C5.42057 14.5153 5.36572 14.2529 5.49061 14.0587C5.61633 13.8635 5.87623 13.8082 6.06862 13.9343L12.5971 18.2132L21.2241 13.9087C21.3355 13.855 21.4688 13.8491 21.5894 13.907L30.4536 18.2124L36.7306 13.9368ZM36.7306 7.09409C36.9221 6.96373 37.1837 7.01484 37.312 7.20825C37.4411 7.40166 37.3904 7.66581 37.1989 7.79532L30.7236 12.2046C30.5852 12.2983 30.4114 12.2983 30.2772 12.2191L21.4122 7.91374L12.754 12.2327C12.6114 12.3035 12.4486 12.2847 12.3271 12.1987L5.6138 7.79873C5.42057 7.67177 5.36572 7.40934 5.49061 7.21507C5.61633 7.01995 5.87623 6.96458 6.06862 7.09068L12.5971 11.3696L21.2241 7.06596C21.3355 7.01229 21.4688 7.00632 21.5894 7.06426L30.4536 11.3688L36.7306 7.09409ZM1.74584 75H1.73823H1.7357H1.7281C1.2522 74.9983 0.820175 74.8015 0.508813 74.4879C0.19492 74.171 0 73.733 0 73.2499L0.000844623 73.2286V1.76116V1.75009V1.74839V1.7373V1.72709L0.00168925 1.72623C0.00759584 1.2525 0.200827 0.823924 0.509658 0.512077C0.820176 0.198526 1.25053 0.00340816 1.72559 0H1.73654H1.74752H84.2567H84.2643H84.2668H84.2744C84.7495 0.00170408 85.1815 0.198527 85.4929 0.51293L85.5157 0.537642C85.8152 0.852897 86 1.28147 86 1.75265L85.9966 1.80632V73.238V73.2516V73.2627V73.2712L85.9958 73.2729C85.989 73.7458 85.7958 74.1744 85.4878 74.4854C85.1781 74.7972 84.7537 74.9915 84.2871 74.9991L84.282 75H84.2761H84.2651H84.2601H84.2491H1.74499H1.74584ZM37.9077 70.9537H4.88983C4.41308 70.9537 3.97937 70.756 3.66717 70.439C3.35496 70.1221 3.16089 69.6833 3.16089 69.2002V5.54592C3.16089 5.06281 3.35412 4.62403 3.66632 4.30707C3.97853 3.98926 4.41308 3.79243 4.88983 3.79243H37.9077C38.3869 3.79243 38.8223 3.9884 39.1362 4.30536C39.4493 4.62147 39.6434 5.06027 39.6434 5.54509V69.1993C39.6434 69.6833 39.4493 70.1221 39.1354 70.439L39.1118 70.462C38.7996 70.7645 38.3743 70.952 37.9077 70.952V70.9537ZM4.88983 70.1067H37.9077C38.1473 70.1067 38.3667 70.0113 38.527 69.8588L38.5422 69.8417C38.7034 69.679 38.8046 69.4507 38.8046 69.2002V5.54592C38.8046 5.29542 38.7042 5.06709 38.543 4.90435C38.3819 4.74161 38.1549 4.63936 37.9077 4.63936H4.88983C4.64344 4.63936 4.41982 4.74076 4.2595 4.90264C4.10002 5.06538 3.99962 5.29288 3.99962 5.54509V69.1993C3.99962 69.4507 4.09917 69.679 4.26034 69.8417C4.42066 70.0036 4.64344 70.105 4.88983 70.105V70.1067Z" fill="#5B5B5B"/>
</svg>
