<svg width="69" height="68" viewBox="0 0 69 68" fill="none" xmlns="http://www.w3.org/2000/svg">
<g opacity="0.8">
<path d="M34.1578 67.24C43.2778 67.24 51.8578 63.74 58.3078 57.39C64.7578 51.04 68.3078 42.6 68.3078 33.62C68.3078 24.64 64.7578 16.2 58.3078 9.84998C51.8578 3.49998 43.2778 0 34.1578 0C15.3278 0 0.0078125 15.08 0.0078125 33.62C0.0078125 42.6 3.55781 51.04 10.0078 57.39C16.4578 63.74 25.0378 67.24 34.1578 67.24Z" fill="#BEBEBE"/>
<path d="M1.1875 33.6199C1.1875 24.9499 4.61753 16.7999 10.8475 10.6699C17.0775 4.53992 25.3575 1.15991 34.1575 1.15991C42.9675 1.15991 51.2475 4.53992 57.4675 10.6699C63.6975 16.7999 67.1275 24.9499 67.1275 33.6199C67.1275 51.5199 52.3375 66.0699 34.1575 66.0699C25.3475 66.0699 17.0675 62.6899 10.8475 56.5599C4.61753 50.4399 1.1875 42.2899 1.1875 33.6199Z" fill="white"/>
<path d="M34.1569 2.51001C16.6969 2.51001 2.54688 16.44 2.54688 33.63C2.54688 50.81 16.6969 64.74 34.1569 64.74C51.6169 64.74 65.7669 50.81 65.7669 33.63C65.7669 16.44 51.6169 2.51001 34.1569 2.51001Z" fill="#BEBEBE"/>
<path d="M34.1588 53.5C23.0088 53.5 13.9688 44.6 13.9688 33.62C13.9688 22.64 23.0088 13.74 34.1588 13.74C45.3088 13.74 54.3488 22.64 54.3488 33.62C54.3488 44.6 45.3088 53.5 34.1588 53.5Z" fill="white"/>
<path d="M15.2656 33.6201H34.1556V15.02C23.7256 15.03 15.2656 23.3501 15.2656 33.6201Z" fill="#BEBEBE"/>
<path d="M34.1562 33.6201V52.2201C44.5863 52.2201 53.0462 43.8901 53.0462 33.6201H34.1562Z" fill="#BEBEBE"/>
<path d="M19.3147 14.6601C18.6447 14.0201 17.6147 13.8301 16.6447 14.4201C16.8247 13.9501 16.7547 13.46 16.6547 13.2C16.2347 12.45 16.0947 12.3501 15.7447 12.0701C14.6247 11.1501 13.4547 11.9301 12.6147 12.9201L8.55469 17.6801L14.9347 22.95L19.2147 17.9301C20.1947 16.7801 20.3447 15.6501 19.3147 14.6601Z" fill="white"/>
<path d="M35.2191 12.4L37.4091 6.67999V12.4H39.079V4.20996H36.579L34.299 10.07H34.319L32.049 4.20996H29.5391V12.4H31.209V6.67999L33.399 12.4H35.2191Z" fill="white"/>
<path d="M57.62 15.81L54.48 20.18L59.34 17.9L60.63 19.47L52.98 23.12L51.47 21.27L54.48 16.94L54.46 16.92L49.53 18.91L48 17.07L53.22 10.46L54.51 12.03L51.24 16.24L56.24 14.13L57.62 15.81Z" fill="white"/>
<path d="M13.5103 14.1C13.7903 13.77 14.4303 13.78 14.8403 14.12C15.2903 14.49 15.2903 15.02 14.9903 15.38L12.5803 18.21L11.0703 16.96L13.5103 14.1Z" fill="#BEBEBE"/>
<path d="M17.7941 17.43L15.2541 20.41L13.6641 19.09L16.2241 16.0799C16.5141 15.7399 17.1541 15.64 17.5941 16C18.0741 16.42 18.1241 17.04 17.7941 17.43Z" fill="#BEBEBE"/>
</g>
</svg>
