<svg width="151" height="29" viewBox="0 0 151 29" fill="none" xmlns="http://www.w3.org/2000/svg">
<path d="M138.374 26.02V14.76H149.534V13.1801H138.374V2.25H149.934V0.670044H134.244V27.61H150.134V26.03H138.374V26.02ZM124.064 0.680054L116.104 20.74L108.024 0.680054H102.894V27.62H104.744V2.78003L114.224 26.4H115.724L125.334 2.51001V27.6H129.464V0.680054H124.064ZM86.2643 26.77C80.7143 26.77 77.5543 21.3901 77.5543 14.0901C77.5543 6.81009 80.7043 1.43005 86.2643 1.43005C91.8143 1.43005 94.8743 6.78009 94.8743 14.0901C94.8743 21.3901 91.7943 26.77 86.2643 26.77ZM86.2643 28.2001C93.6943 28.2001 99.2744 22.6701 99.2744 14.0901C99.2744 5.48009 93.6443 0 86.2643 0C78.8843 0 73.1544 5.48009 73.1544 14.0901C73.1544 22.6701 78.8543 28.2001 86.2643 28.2001ZM65.4744 0.680054V13.1901H52.6143V0.680054H48.4844V27.62H52.6143V14.79H65.4744V27.62H69.6044V0.680054H65.4744Z" fill="#BEBEBE"/>
<path d="M30.3399 1.17975C31.8899 0.399745 32.6699 0.499721 32.6899 1.27972C32.7199 2.30972 32.5599 3.62968 32.4399 4.60968C31.8399 9.90968 30.8899 14.2397 30.8099 19.6697C33.3899 13.0697 35.5399 8.43972 38.2899 2.77972C39.1699 0.949721 39.7399 1.29967 40.4399 0.979672C43.2699 -0.270328 43.3699 0.499721 42.9899 2.02972C41.6399 7.67972 38.1599 25.5197 37.6399 28.2497C37.4899 29.0497 36.6199 28.6997 36.4199 28.3997C35.3899 26.9997 34.2699 26.9698 34.4199 26.0698C35.0499 21.4898 37.2999 10.0098 37.8699 7.30975C34.8699 13.4598 31.7899 21.1497 30.1599 25.5197C29.8099 26.4197 29.1799 26.3697 28.8099 25.6697C28.2799 24.7197 27.2299 24.2397 27.0299 23.1197C26.4999 19.5397 27.6799 12.7397 27.8299 8.42974C26.1999 13.1597 23.4499 22.2697 22.2499 26.3897C21.7799 28.1197 20.0999 27.8397 20.5199 26.1697C22.3499 19.2097 26.2699 6.97977 27.9799 2.57977C28.4199 1.54977 29.4699 1.59975 30.3399 1.17975Z" fill="#BEBEBE"/>
<path d="M20.4115 0.299895C19.8815 0.169895 18.3314 0.999871 17.3814 1.14987C17.0814 1.19987 16.8014 1.52988 16.7014 1.77988C15.1714 5.22988 13.8215 8.53991 12.6515 11.5599C11.1515 11.8099 9.40144 12.1599 7.45144 12.5899C8.85144 8.98993 10.2815 5.42986 11.6515 2.00986C12.3315 0.359856 10.5214 0.179851 9.82144 1.87985C8.92144 4.10985 7.22146 8.25983 5.34146 13.1098C3.96146 13.4298 2.49145 13.8299 0.961452 14.2599C-0.138548 14.5899 -0.188541 14.8899 0.281459 15.5399C0.551459 15.9199 1.08142 15.8699 1.36142 16.1399C2.01142 16.8399 2.39143 17.6399 3.56143 17.7699C2.51143 20.5199 1.46143 23.3999 0.561428 26.1299C-0.0385724 27.8599 1.64147 28.2299 2.29147 26.3799C3.34147 23.4499 4.44144 20.4798 5.57144 17.4998C6.47144 17.2698 8.77147 16.7998 10.8515 16.3498C9.20147 20.8798 8.10144 24.3299 7.70144 26.0299C7.62144 26.3499 7.75142 26.5299 7.80142 26.6799C8.38142 27.4799 8.90143 27.5299 9.63143 28.5299C9.83143 28.8099 10.4815 28.9599 10.7115 28.2799C12.2415 23.6299 13.8414 19.2699 15.3114 15.3399C15.9114 15.2099 17.0414 14.9399 17.6914 13.9099C18.8914 12.1299 19.2414 12.4799 19.5215 11.9599C19.9014 11.2599 19.6514 10.6299 18.3714 10.7799C18.3714 10.7799 17.8914 10.8299 16.9914 10.9299C18.4214 7.2499 19.6415 4.1499 20.5215 1.7999C20.8615 0.979895 20.8915 0.429895 20.4115 0.299895Z" fill="#BEBEBE"/>
<path d="M18.684 20.9898C18.604 21.0898 18.4541 21.1898 18.3541 21.3198C18.2241 20.9198 18.0741 20.5198 17.9741 20.1398C18.3241 19.6898 18.6741 19.2598 18.9741 18.7898C20.2041 16.8598 17.8041 15.7598 16.7241 17.0098C16.1941 17.6598 16.3241 18.3397 16.4741 18.8597C16.4941 19.0597 16.574 19.2899 16.694 19.5899C16.364 19.8899 16.0141 20.2898 15.5441 20.8198C14.3641 22.2198 14.694 23.9698 15.944 24.3998C16.724 24.6498 17.444 24.2997 18.074 23.7297C18.124 23.7997 18.154 23.8797 18.174 23.9797C18.504 24.8097 19.5541 24.5798 19.1541 23.5498C19.0741 23.3998 19.0041 23.1498 18.9041 22.8698C19.1041 22.5998 19.284 22.3698 19.434 22.1198C20.194 20.9898 19.464 20.3198 18.684 20.9898ZM17.884 18.3698C17.784 18.4998 17.654 18.6197 17.554 18.7197C17.534 18.6497 17.5041 18.5197 17.4841 18.4697C17.1341 17.1397 18.664 17.4598 17.884 18.3698ZM17.064 22.4398C16.614 22.7198 16.234 22.4098 16.864 21.5598C16.964 21.4098 17.084 21.2598 17.184 21.1298C17.284 21.4498 17.4141 21.8098 17.5141 22.1298C17.3341 22.2198 17.214 22.3198 17.064 22.4398Z" fill="#BEBEBE"/>
</svg>
