<svg width="82" height="17" viewBox="0 0 82 17" fill="none" xmlns="http://www.w3.org/2000/svg">
<g opacity="0.8">
<path d="M81.0978 4.87C81.0978 2.3 78.9378 0.220093 74.5478 0.220093C69.8778 0.220093 67.4778 2.86 67.4778 6.13H71.7678C71.7678 4.44 72.6978 3.55005 74.4878 3.55005C76.1778 3.55005 76.8978 4.16001 76.8978 5.14001C76.8978 6.11001 76.3678 6.78003 75.0478 6.78003H72.6178V9.57007H74.9778C76.4878 9.57007 77.1078 10.23 77.1078 11.3C77.1078 12.3 76.4478 13.26 74.5378 13.26C72.4678 13.26 71.5278 12.1901 71.5278 10.4401H67.2478C67.2478 14.4301 70.0178 16.5601 74.5378 16.5601C78.9878 16.5601 81.4578 14.68 81.4578 11.66C81.4578 10.09 80.6378 8.96005 79.0778 8.30005C80.4378 7.56005 81.0978 6.25 81.0978 4.87ZM60.4078 16.12H64.8078V0.650024H60.4078V2.34009C59.2778 0.910088 57.7778 0.330078 56.1578 0.330078C52.0278 0.330078 48.7278 3.55 48.7278 8.38C48.7278 13.21 52.0178 16.4401 56.1578 16.4401C57.7878 16.4401 59.2778 15.8501 60.4078 14.4301V16.12ZM60.7178 8.38C60.7178 10.83 58.9078 12.62 56.7378 12.62C54.5978 12.62 52.7578 10.83 52.7578 8.38C52.7578 5.93001 54.5978 4.14001 56.7378 4.14001C58.9078 4.14001 60.7178 5.93001 60.7178 8.38ZM41.3078 4.36011H47.6978V0.650024H36.9078V16.12H41.3078V4.36011ZM34.7378 8.38C34.7378 3.76 31.0278 0.0100098 26.4578 0.0100098C21.8878 0.0100098 18.1778 3.76 18.1778 8.38C18.1778 13 21.8878 16.75 26.4578 16.75C31.0278 16.75 34.7378 13 34.7378 8.38ZM31.1678 9.18005C28.6278 9.79005 26.8678 11.9701 26.4578 15.4901C26.0478 11.9701 24.2878 9.79005 21.7478 9.18005C21.3078 6.43005 23.7178 4.02002 26.4578 4.02002C29.1978 4.02002 31.6078 6.43005 31.1678 9.18005ZM4.02783 8.38C4.02783 5.87 5.7078 3.82007 8.1178 3.82007C9.9678 3.82007 11.5078 4.85011 11.8878 6.36011H16.0778C15.8578 2.84011 12.6778 0 8.20782 0C3.52782 0 0.0078125 3.45 0.0078125 8.37C0.0078125 13.29 3.52782 16.7401 8.20782 16.7401C12.7578 16.7401 15.9678 13.9201 16.0778 10.0601H11.8878C11.5578 11.8201 10.1078 12.92 8.1178 12.92C5.9178 12.94 4.02783 10.96 4.02783 8.38Z" fill="#BEBEBE"/>
</g>
</svg>
