<svg width="138" height="23" viewBox="0 0 138 23" fill="none" xmlns="http://www.w3.org/2000/svg">
<path d="M80.0378 19.51H81.8778V13.3401L88.2178 3.25H83.9778L80.0378 10.0801L76.0978 3.25H71.8578L78.1978 13.3401V19.51H80.0378ZM63.0678 16.74C65.7278 16.74 67.8878 14.29 67.8878 11.28C67.8878 8.27003 65.7278 5.82007 63.0678 5.82007C60.4078 5.82007 58.2478 8.26003 58.2478 11.28C58.2478 14.3 60.4078 16.74 63.0678 16.74ZM54.4378 11.28C54.4378 6.52003 58.2978 2.66003 63.0678 2.66003C67.8278 2.66003 71.6878 6.52003 71.6878 11.28C71.6878 16.04 67.8278 19.9 63.0678 19.9C58.2978 19.9 54.4378 16.05 54.4378 11.28ZM48.4378 6.25V19.51H44.8078V6.25H44.8178H39.7378V3.25H53.5078V6.25H48.4378ZM128.208 13.1101H130.498L128.228 7.16003H128.198L125.928 13.1101H128.208ZM124.878 15.8601L123.478 19.52H119.238L125.948 3.26001H130.468L137.178 19.52H132.938L131.548 15.8601H124.878ZM115.418 6.25V19.51H111.778V6.25H111.788H106.708V3.25H120.478V6.25H115.418ZM97.0078 16.74C99.6678 16.74 101.828 14.29 101.828 11.28C101.828 8.27003 99.6678 5.82007 97.0078 5.82007C94.3478 5.82007 92.1978 8.26003 92.1978 11.28C92.1978 14.3 94.3478 16.74 97.0078 16.74ZM88.3878 11.28C88.3878 6.52003 92.2478 2.66003 97.0078 2.66003C101.768 2.66003 105.638 6.52003 105.638 11.28C105.638 16.04 101.778 19.9 97.0078 19.9C92.2478 19.9 88.3878 16.05 88.3878 11.28ZM17.3278 17.91C18.7178 17.91 19.8578 15.02 19.9078 11.39H19.9178C18.1878 11.55 16.4578 11.55 14.7378 11.39H14.7478C14.8078 15.01 15.9378 17.91 17.3278 17.91ZM17.3278 8.63C18.1278 8.63 18.9278 8.60003 19.7278 8.53003C19.3478 6.02003 18.4178 4.26001 17.3278 4.26001C16.2378 4.26001 15.3078 6.03003 14.9278 8.53003C15.7278 8.59003 16.5278 8.63 17.3278 8.63ZM18.4478 21.41C26.1978 21.01 32.3178 16.44 32.3178 10.88C32.3178 8.99 31.6078 7.21005 30.3778 5.68005L30.3578 5.65002C30.2678 8.22002 26.6178 10.4001 21.5678 11.1901C21.5678 11.3601 21.5778 11.5301 21.5778 11.7001C21.5778 16.3701 20.2378 20.2901 18.4278 21.4301L18.4478 21.41ZM17.3278 1.63C19.1778 1.63 20.7478 4.43009 21.3278 8.34009V8.33008C24.9178 7.77008 27.4378 6.4801 27.4378 4.9801C27.4378 2.9701 22.9078 1.33008 17.3278 1.33008C11.7478 1.33008 7.21783 2.9601 7.21783 4.9801C7.21783 6.4801 9.72782 7.77008 13.3278 8.33008V8.34009C13.9078 4.43009 15.4778 1.63 17.3278 1.63ZM0.0078125 11.28C0.0078125 5.05003 7.75782 0 17.3278 0C26.8978 0 34.6478 5.05003 34.6478 11.28C34.6478 17.51 26.8978 22.5601 17.3278 22.5601C7.75782 22.5601 0.0078125 17.51 0.0078125 11.28ZM16.2378 21.42C14.4178 20.28 13.0878 16.3601 13.0878 11.6901C13.0878 11.5201 13.0878 11.3501 13.0978 11.1801C8.04784 10.3901 4.3978 8.21001 4.3078 5.64001L4.28784 5.67004C3.04784 7.21004 2.34784 8.97999 2.34784 10.87C2.34784 16.44 8.45782 21 16.2078 21.41L16.2378 21.42Z" fill="#BEBEBE"/>
</svg>
