<svg width="132" height="27" viewBox="0 0 132 27" fill="none" xmlns="http://www.w3.org/2000/svg">
<g opacity="0.8">
<path d="M127.092 5.1001L122.602 10.0201V5.1001H119.352V17.5201H122.602V12.3002L127.411 17.5201H131.602L125.692 11.0201L131.182 5.1001H127.092Z" fill="#BEBEBE"/>
<path d="M113.615 9.74011H109.125V5.1001H105.875V17.5201H109.125V12.6301H113.615V17.5201H116.865V5.1001H113.615V9.74011Z" fill="#BEBEBE"/>
<path d="M19.2981 11.8301C19.2181 14.1501 18.9181 14.61 17.5781 14.61V17.52H18.0781C21.3981 17.52 22.1981 15.84 22.3181 12.11L22.4581 7.97998H25.5681V17.51H28.8181V5.09009H19.5181L19.2981 11.8301Z" fill="#BEBEBE"/>
<path d="M36.6469 14.7899H34.5469V11.6299H36.6469C37.7769 11.6299 38.4469 12.1099 38.4469 13.1499C38.4569 14.2799 37.7969 14.7899 36.6469 14.7899ZM36.8969 8.87988H34.5469V5.10986H31.2969V17.5299H36.9469C40.4869 17.5299 41.7569 15.2799 41.7569 13.1599C41.7469 10.4199 39.9869 8.87988 36.8969 8.87988Z" fill="#BEBEBE"/>
<path d="M52.3394 14.8099V7.78992C54.1394 8.02992 55.2694 9.35993 55.2694 11.2999C55.2694 13.2399 54.1394 14.5699 52.3394 14.8099ZM49.0894 14.8099C47.2894 14.5699 46.1594 13.2399 46.1594 11.2999C46.1594 9.35993 47.2894 8.02992 49.0894 7.78992V14.8099ZM52.3394 4.81995V0.209961H49.0894V4.81995C45.3694 5.12995 42.8594 7.70994 42.8594 11.3099C42.8594 14.9299 45.3694 17.5099 49.0894 17.8199V22.4999H52.3394V17.8199C56.0594 17.5299 58.5694 14.9299 58.5694 11.3099C58.5594 7.67994 56.0594 5.09995 52.3394 4.81995Z" fill="#BEBEBE"/>
<path d="M67.4962 12.89C67.4962 14.32 66.4562 15.14 65.1062 15.14C63.9362 15.14 63.0062 14.72 63.0062 13.49C63.0062 12.28 64.0262 12.0801 64.9062 12.0801H67.5062V12.89H67.4962ZM70.7462 13.7101V9.54004C70.7462 6.50004 68.7562 4.58008 65.4162 4.58008C61.9662 4.58008 60.1363 6.60998 59.9763 8.72998H63.2662C63.3762 8.26998 63.8763 7.47009 65.4062 7.47009C66.6663 7.47009 67.4862 8.04004 67.4862 9.54004H64.2562C61.3662 9.54004 59.6562 11.02 59.6562 13.49C59.6562 16.07 61.5362 17.8401 64.2362 17.8401C66.2162 17.8401 67.3162 16.92 67.8062 16.23C68.2362 17.07 69.1862 17.53 70.4262 17.53H71.5562V14.66C70.9762 14.66 70.7462 14.3901 70.7462 13.7101Z" fill="#BEBEBE"/>
<path d="M84.5106 14.3901H81.0406V9.89014H84.5106C86.3106 9.89014 87.3306 10.7101 87.3306 12.1401C87.3306 13.6201 86.3206 14.3901 84.5106 14.3901ZM84.6706 6.87012H81.0406V3.36011H89.4606V0.200195H77.6406V17.5201H84.6806C88.5806 17.5201 90.8206 15.6201 90.8206 12.1401C90.8106 8.85014 88.5806 6.87012 84.6706 6.87012Z" fill="#BEBEBE"/>
<path d="M99.9884 12.89C99.9884 14.32 98.9484 15.14 97.5984 15.14C96.4284 15.14 95.4984 14.72 95.4984 13.49C95.4984 12.28 96.5184 12.0801 97.3984 12.0801H99.9984V12.89H99.9884ZM103.238 13.7101V9.54004C103.238 6.50004 101.248 4.58008 97.9084 4.58008C94.4584 4.58008 92.6284 6.60998 92.4684 8.72998H95.7584C95.8684 8.26998 96.3684 7.47009 97.8984 7.47009C99.1584 7.47009 99.9785 8.04004 99.9785 9.54004H96.7484C93.8584 9.54004 92.1484 11.02 92.1484 13.49C92.1484 16.07 94.0285 17.8401 96.7285 17.8401C98.7085 17.8401 99.8184 16.92 100.298 16.23C100.728 17.07 101.678 17.53 102.918 17.53H104.048V14.66C103.468 14.66 103.238 14.3901 103.238 13.7101Z" fill="#BEBEBE"/>
<path d="M17.3878 22.8201H0.0078125V26.35H17.3878V22.8201Z" fill="#BEBEBE"/>
<path d="M6.21503 10.9701L8.65503 3.89001H8.745L11.045 10.9701H6.21503ZM11.855 2.58008C11.365 1.14008 10.785 0 8.83502 0C6.87502 0 6.275 1.14008 5.755 2.58008L0.375 17.52H3.94501L5.185 13.9701H12.045L13.195 17.52H16.985L11.855 2.58008Z" fill="#BEBEBE"/>
</g>
</svg>
