<svg width="82" height="15" viewBox="0 0 82 15" fill="none" xmlns="http://www.w3.org/2000/svg">
<g opacity="0.8">
<path d="M9.13782 14.15H4.9278V3.87H0.0078125V0.0100098H14.0578V3.87H9.13782V14.15ZM47.0578 0H42.8878L42.8378 5.79004C41.8178 6.38004 41.2478 6.60009 40.2678 6.59009C38.6778 6.57009 37.2278 5.37999 37.2278 3.85999V0.650024V0.0100098H33.0178C33.0178 1.94001 33.0178 3.87004 33.2278 5.29004C33.4378 6.71004 34.1478 7.96001 35.3478 8.89001C36.9078 10.1 38.7278 10.3101 40.6378 10.0701C41.1278 10.0101 41.6178 9.89003 42.1178 9.78003C42.3578 9.72003 42.5978 9.67 42.8478 9.62V14.15H47.0578V0ZM56.1878 8.35999H54.0778V14.15L49.8678 14.14V0.0100098H54.0778V5.15002C54.3678 5.15002 54.6478 5.17005 54.9378 5.18005C55.6178 5.22005 56.2878 5.25005 56.9178 5.05005C58.0478 4.69005 58.8378 3.98003 59.1578 2.91003C59.1878 2.80003 59.2178 2.69998 59.2478 2.59998C59.4878 1.80998 59.6978 1.14 59.6978 0H63.7678C63.8578 2.91 63.2378 5.46006 60.2678 7.06006C60.3078 7.12006 60.3378 7.19 60.3678 7.25C60.4378 7.38 60.5078 7.49999 60.5778 7.60999C61.0078 8.28999 61.4378 8.96001 61.8778 9.64001C62.6678 10.87 63.4578 12.1001 64.2378 13.3301C64.3378 13.4801 64.4078 13.6501 64.4778 13.8401C64.5178 13.9401 64.5578 14.04 64.6078 14.14H60.0378C59.0478 12.53 58.0378 10.89 57.0278 9.25L56.5178 8.42004L56.1878 8.35999ZM20.0678 5.80005C20.5578 4.37005 21.8378 3.50997 23.6578 3.46997C24.9778 3.47997 26.0978 4.01008 26.7278 5.21008C27.4678 6.60008 27.4478 8.00006 26.5178 9.31006C25.7078 10.4601 24.4278 10.9001 22.9478 10.6901C21.4778 10.4901 20.5178 9.70005 20.0878 8.43005C19.7878 7.56005 19.7678 6.68005 20.0678 5.80005ZM17.9278 12.3301C19.5278 13.6001 21.4578 14.16 23.6078 14.15C25.7978 14.13 27.7478 13.5601 29.3478 12.1901C31.1478 10.6501 31.7278 8.72007 31.5978 6.57007C31.4478 4.13007 30.2578 2.21999 27.8278 0.98999C25.9078 0.0199902 23.8178 -0.199927 21.6578 0.200073C19.9278 0.520073 18.4478 1.23003 17.2878 2.41003C15.9978 3.73003 15.4778 5.30002 15.4578 7.02002C15.4378 9.09002 16.1478 10.9201 17.9278 12.3301ZM73.4778 7.59998C74.2978 7.68998 75.0778 7.92009 75.7678 8.34009C75.8878 9.57009 75.4078 10.31 74.1678 10.79C73.4778 11.05 72.7578 11.1501 72.0078 11.0901C71.2378 11.0201 70.5778 10.57 70.3878 9.98999C70.1478 9.23999 70.3978 8.51005 71.0578 8.05005C71.7778 7.56005 72.6278 7.50998 73.4778 7.59998ZM74.5278 3.37C75.1978 3.59 75.7178 3.96 75.8378 4.63C75.8778 4.89001 75.8678 5.15004 75.8578 5.42004C75.8478 5.54004 75.8478 5.67004 75.8478 5.79004C73.1578 4.97004 72.5678 4.85 70.4878 5.13C67.1978 5.57 65.5578 7.76005 66.1378 10.6801C66.4978 12.4801 68.4378 14 70.9778 14.13C73.2378 14.24 75.2978 13.7901 76.7278 11.9401C76.7378 12.0001 76.7378 12.06 76.7478 12.11C76.7578 12.21 76.7678 12.29 76.7878 12.37C76.9378 12.99 77.2478 13.51 77.9078 13.79C79.0978 14.29 80.2978 14.15 81.4678 13.89V11.75C80.2778 11.59 80.1778 11.4901 80.0978 10.4501C80.0878 10.2601 80.0578 9.84001 80.0578 9.64001V5.14001C80.0578 5.14001 80.0678 4.39002 79.9578 3.90002C79.5478 1.90002 78.0778 0.810078 75.9778 0.330078C73.9878 -0.119922 71.9678 -0.07 69.9578 0.25C69.0178 0.4 68.1078 0.630029 67.1878 1.03003C67.3778 1.95003 67.5578 2.87007 67.7478 3.82007C68.7878 3.33007 69.8578 3.13005 70.9678 3.05005C72.1978 2.97005 73.3878 2.99 74.5278 3.37Z" fill="#BEBEBE"/>
</g>
</svg>
