<svg width="144" height="15" viewBox="0 0 144 15" fill="none" xmlns="http://www.w3.org/2000/svg">
<g opacity="0.8">
<path d="M90.5951 7.68994C90.5851 11.8999 88.2751 14.15 83.9651 14.15C79.7351 14.15 77.365 11.83 77.375 7.73999L77.3951 0.290039H82.1451L82.135 7.5C82.125 9.5 82.655 10.38 83.935 10.38C85.215 10.38 85.8351 9.59005 85.8351 7.30005L85.8551 0.290039H90.6051L90.5951 7.68994Z" fill="#BEBEBE"/>
<path d="M22.4841 3.71997L22.454 13.86H17.644L17.684 3.71997H13.6641L13.674 0.280029H26.504L26.494 3.72998L22.4841 3.71997Z" fill="#BEBEBE"/>
<path d="M37.6431 13.86L36.8431 11.37H32.3331L31.4832 13.86H26.7031L31.5931 0.27002H37.6631L42.4231 13.85H37.6431V13.86ZM34.5831 3.38L33.3931 8.03003H35.7831L34.5831 3.38Z" fill="#BEBEBE"/>
<path d="M105.981 12.82L104.551 9.29007C103.701 9.94007 102.841 10.53 101.451 10.52C99.5713 10.52 98.3113 8.95005 98.3213 7.02005C98.3213 5.07005 99.4313 3.43997 101.401 3.43997C102.631 3.42997 103.711 4.07004 104.571 4.76004L106.001 1.31009C104.411 0.500085 102.831 0.0100363 100.651 0.0100363C96.6113 3.62759e-05 93.5413 2.82001 93.5313 6.98001C93.5213 11.37 96.4912 14.14 100.741 14.14C103.071 14.15 104.721 13.6 105.981 12.82Z" fill="#BEBEBE"/>
<path d="M116.764 13.87L113.774 8.92004L113.764 13.88L109.094 13.87L109.134 0.280029H113.804L113.784 5.26001L116.614 0.290039H121.814L117.424 6.97998L122.344 13.87H116.764Z" fill="#BEBEBE"/>
<path d="M5.6134 14.14C8.6334 14.14 11.7734 13.0399 11.7834 9.56995C11.8034 6.42995 9.18343 5.58 7.14343 5.13C5.60343 4.8 4.86341 4.63 4.87341 4C4.87341 3.17 5.91344 3.10999 6.46344 3.10999C7.84344 3.11999 9.13341 3.69 10.2434 4.37L11.4934 1.27002C9.86341 0.56002 7.90341 0 6.05341 0C2.91341 0 0.45343 1.54002 0.45343 4.65002C0.44343 7.20002 2.33341 8.17996 4.43341 8.70996C5.87341 9.06996 6.80341 9.19003 6.80341 9.91003C6.80341 10.64 6.09344 10.86 5.40344 10.85C3.87344 10.85 2.42345 10.18 1.53345 9.39001L0.0234375 12.39C1.63344 13.47 3.6134 14.14 5.6134 14.14Z" fill="#BEBEBE"/>
<path d="M129.407 14.15C132.437 14.15 135.567 13.06 135.577 9.57996C135.587 6.43996 132.977 5.59001 130.937 5.14001C129.397 4.80001 128.657 4.64002 128.667 4.02002C128.677 3.19002 129.707 3.12 130.257 3.12C131.637 3.12 132.927 3.70001 134.037 4.39001L135.297 1.29004C133.667 0.580039 131.697 0.0100098 129.857 0.0100098C126.717 0.0200098 124.257 1.55003 124.247 4.66003C124.237 7.21003 126.137 8.19997 128.217 8.71997C129.657 9.07997 130.587 9.19004 130.587 9.92004C130.587 10.65 129.877 10.86 129.187 10.86C127.657 10.86 126.217 10.19 125.307 9.40002L123.797 12.4C125.427 13.47 127.417 14.15 129.407 14.15Z" fill="#BEBEBE"/>
<path d="M52.9397 4.95996C52.9297 5.84996 52.3797 6.37 51.4697 6.37H49.8297L49.8397 3.53003H51.4997C52.3797 3.53003 52.9397 3.99004 52.9397 4.92004V4.95996ZM55.0897 8.79004C56.7197 8.19004 57.6097 6.49994 57.6097 4.93994C57.6197 1.73994 55.4697 0.280029 52.4197 0.280029L45.2197 0.27002L45.1797 13.85H49.7997L49.8097 9.81995H50.9797L53.3697 13.85H58.3597L55.0897 8.79004Z" fill="#BEBEBE"/>
<path d="M69.3525 9.66003C69.3525 10.45 68.7825 10.92 67.8425 10.92H66.1525L66.1625 8.37H67.8725C68.7725 8.37 69.3625 8.77999 69.3625 9.62L69.3525 9.66003ZM66.1725 3.22998H67.8425C68.7225 3.21998 69.3025 3.61003 69.3025 4.41003V4.44995C69.3025 5.20995 68.7425 5.65002 67.8225 5.65002H66.1725V3.22998ZM71.2925 6.93005C73.0225 6.55005 73.8825 5.55002 73.8825 3.90002C73.8925 1.59002 72.1925 0.280029 69.1925 0.280029H61.5925L61.5625 13.87H68.8625C72.3925 13.86 74.1525 12.6 74.1525 10.03C74.1625 8.27003 73.0625 7.08005 71.2925 6.93005Z" fill="#BEBEBE"/>
<path d="M140.051 4.17004H139.521V0.469971H140.341L141.311 3.27002L142.251 0.469971H143.071V4.17004H142.541V1.07996H142.521L141.471 4.17004H141.131L140.071 1.07996H140.051V4.17004ZM139.051 0.959961H138.051V4.17004H137.521V0.959961H136.531V0.47998H139.051V0.959961Z" fill="#BEBEBE"/>
</g>
</svg>
