<svg width="57" height="68" viewBox="0 0 57 68" fill="none" xmlns="http://www.w3.org/2000/svg">
<g opacity="0.8">
<path d="M50.8778 61.49H49.2878V58.7999H48.6978C48.4178 58.8999 47.9578 59.68 46.7978 61.49H44.9878C46.1378 59.71 46.8778 58.54 47.2578 58.34V58.33C46.5578 58.05 45.8678 57.43 45.8678 56.52C45.8678 55.44 46.6078 54.52 48.6478 54.52H50.8678V61.49H50.8778ZM42.0178 61.49H40.4378V57.6699C40.4378 57.3499 40.4378 56.93 40.4578 56.7H40.4378C40.2078 57.01 39.9978 57.28 39.7078 57.62L36.3978 61.49H34.9278V54.5299H36.5078V58.08C36.5078 58.38 36.5078 58.8299 36.4878 59.1599H36.5078C36.7178 58.8699 36.9278 58.6 37.2278 58.25L40.4278 54.5299H42.0278V61.49H42.0178ZM34.4578 48.8099H34.8078C34.6978 48.9699 34.5778 49.1199 34.4578 49.2799V48.8099ZM34.1678 52.9299H33.5978C33.5578 52.9299 33.5178 52.89 33.5178 52.85C33.5178 52.81 33.5478 52.77 33.5978 52.77H34.0178V26.12C34.0178 26.08 34.0578 26.0399 34.0978 26.0399C34.1378 26.0399 34.1778 26.07 34.1778 26.12V52.9299H34.1678ZM27.1078 28.8199H17.0078V44.99H13.6778C13.5878 44.84 13.5078 44.6799 13.4178 44.5299H15.6178C15.6578 44.5299 15.6878 44.5 15.6878 44.46C15.6878 44.42 15.6578 44.39 15.6178 44.39H13.3378C13.2578 44.24 13.1678 44.0799 13.0878 43.9199H14.4678C14.5078 43.9199 14.5378 43.89 14.5378 43.85C14.5378 43.81 14.4978 43.7799 14.4678 43.7799H13.0078C12.9278 43.6299 12.8478 43.4699 12.7678 43.3099H13.4678C13.5078 43.3099 13.5378 43.28 13.5378 43.24C13.5378 43.2 13.5078 43.1699 13.4678 43.1699H12.6878C9.86781 37.6499 7.63781 30.5599 7.37781 22.6599H8.19781C8.29782 26.0499 8.78784 29.47 9.65784 32.85C9.93784 33.94 10.2578 35.03 10.6078 36.09C11.2378 37.99 11.9778 39.8599 12.8278 41.6499L12.9878 41.5699C12.1378 39.7799 11.3978 37.9199 10.7778 36.0299C10.4278 34.9699 10.1078 33.8799 9.83783 32.7999C8.97783 29.4399 8.48782 26.0299 8.38782 22.6599H43.5778C43.5778 22.7699 43.5678 22.88 43.5678 22.99H38.4878C38.4478 22.99 38.4178 23.0199 38.4178 23.0599C38.4178 23.0999 38.4478 23.13 38.4878 23.13H43.5678C43.5578 23.29 43.5578 23.44 43.5478 23.59H38.5478C38.5078 23.59 38.4778 23.6199 38.4778 23.6599C38.4778 23.6999 38.5078 23.73 38.5478 23.73H43.5378C43.5278 23.89 43.5178 24.0399 43.5078 24.1899H38.5478C38.5078 24.1899 38.4778 24.23 38.4778 24.26C38.4778 24.3 38.5078 24.33 38.5478 24.33H43.5078C43.4978 24.48 43.4878 24.6399 43.4678 24.7899H38.5478C38.5078 24.7899 38.4778 24.82 38.4778 24.86C38.4778 24.9 38.5078 24.9299 38.5478 24.9299H43.4578C43.4478 25.0899 43.4278 25.2399 43.4178 25.3999H38.5478C38.5078 25.3999 38.4778 25.43 38.4778 25.47C38.4778 25.51 38.5078 25.5399 38.5478 25.5399H43.3978C43.3878 25.6899 43.3678 25.85 43.3478 26H38.4378C38.3978 26 38.3678 26.0299 38.3678 26.0699C38.3678 26.1099 38.3978 26.14 38.4378 26.14H43.3378C43.3178 26.3 43.3078 26.45 43.2878 26.61H38.4478C38.4078 26.61 38.3778 26.6399 38.3778 26.6799C38.3778 26.7199 38.4078 26.75 38.4478 26.75H43.2778C43.2578 26.91 43.2378 27.06 43.2178 27.22H38.3478C38.3078 27.22 38.2778 27.2499 38.2778 27.2899C38.2778 27.3299 38.3078 27.36 38.3478 27.36H43.1978C43.1778 27.52 43.1578 27.6699 43.1278 27.8199H38.3378C38.2978 27.8199 38.2678 27.85 38.2678 27.89C38.2678 27.93 38.2978 27.96 38.3378 27.96H43.1078C43.0878 28.12 43.0578 28.2699 43.0378 28.4199H38.3378C38.2978 28.4199 38.2678 28.45 38.2678 28.49C38.2678 28.53 38.2978 28.5599 38.3378 28.5599H43.0078C42.9778 28.7099 42.9578 28.87 42.9278 29.02H38.1678C38.1278 29.02 38.0978 29.05 38.0978 29.09C38.0978 29.13 38.1278 29.1599 38.1678 29.1599H42.8978C42.8678 29.3199 42.8378 29.47 42.8178 29.62H37.9478C37.9078 29.62 37.8678 29.6499 37.8678 29.6899C37.8678 29.7299 37.8978 29.76 37.9478 29.76H42.7778C42.7478 29.92 42.7178 30.07 42.6878 30.22H37.8978C37.8578 30.22 37.8178 30.2499 37.8178 30.2899C37.8178 30.3299 37.8478 30.36 37.8978 30.36H42.6578C42.6278 30.52 42.5978 30.6699 42.5578 30.8199H37.7378C37.6978 30.8199 37.6678 30.85 37.6678 30.89C37.6678 30.93 37.6978 30.96 37.7378 30.96H42.5278C42.4978 31.12 42.4578 31.2699 42.4278 31.4299H37.5778C37.5378 31.4299 37.5078 31.46 37.5078 31.5C37.5078 31.54 37.5378 31.5699 37.5778 31.5699H42.3978C42.3578 31.7299 42.3278 31.8799 42.2878 32.0299H37.4178C37.3778 32.0299 37.3478 32.06 37.3478 32.1C37.3478 32.14 37.3778 32.1699 37.4178 32.1699H42.2478C42.2078 32.3299 42.1678 32.48 42.1378 32.64H37.1578C37.1178 32.64 37.0878 32.67 37.0878 32.71C37.0878 32.75 37.1178 32.7799 37.1578 32.7799H42.1078C42.0678 32.9399 42.0278 33.09 41.9878 33.25H37.0078C36.9678 33.25 36.9378 33.2799 36.9378 33.3199C36.9378 33.3599 36.9678 33.39 37.0078 33.39H41.9478C41.9078 33.55 41.8678 33.7 41.8178 33.85H36.7378C36.6978 33.85 36.6678 33.8799 36.6678 33.9199C36.6678 33.9599 36.6978 33.99 36.7378 33.99H41.7678C41.7278 34.15 41.6778 34.3 41.6378 34.46H36.4178C36.3778 34.46 36.3478 34.4899 36.3478 34.5299C36.3478 34.5699 36.3778 34.6 36.4178 34.6H41.5878C41.5378 34.76 41.4978 34.9099 41.4478 35.0699H36.1978C36.1578 35.0699 36.1278 35.1 36.1278 35.14C36.1278 35.18 36.1578 35.21 36.1978 35.21H41.3978C41.3478 35.37 41.2978 35.5199 41.2478 35.6699H35.8778C35.8378 35.6699 35.8078 35.7 35.8078 35.75C35.8078 35.79 35.8478 35.8199 35.8778 35.8199H41.1978C41.1478 35.9699 41.0978 36.1299 41.0478 36.2799H35.5678C35.5278 36.2799 35.4978 36.31 35.4978 36.35C35.4978 36.39 35.5378 36.4199 35.5678 36.4199H41.0078C40.9578 36.5799 40.8978 36.73 40.8478 36.89H35.1978C35.1578 36.89 35.1278 36.92 35.1278 36.96C35.1278 37 35.1678 37.0299 35.1978 37.0299H40.7878C40.7378 37.1899 40.6778 37.34 40.6178 37.5H34.8178C34.7778 37.5 34.7478 37.5299 34.7478 37.5699C34.7478 37.6099 34.7878 37.64 34.8178 37.64H40.5578C40.4978 37.8 40.4478 37.95 40.3878 38.1H34.4378V25.6599H33.5978L33.3378 25.7799L27.1078 28.8199ZM33.2478 52.96C32.7878 52.76 27.5278 50.44 27.3278 50.35V29.09C27.5278 29 32.7878 26.58 33.2478 26.37V52.96ZM31.6078 61.49H30.0178V58.5699H26.4878V61.49H24.8978V54.5299H26.4878V57.33H30.0178V54.5299H31.6078V61.49ZM20.9278 61.49L20.1878 59.7899H17.5878L16.8778 61.49H15.3178L18.3078 54.49H19.5078L22.6278 61.49H20.9278ZM13.2478 61.49H11.6678V57.64C11.6678 57.39 11.6678 57.13 11.6978 56.89H11.6678C11.5878 57.08 11.3178 57.44 11.1878 57.62L9.77783 59.59H9.04779L7.46783 57.5599C7.31783 57.3699 7.12784 57.16 6.97784 56.89H6.95782C6.96782 57.15 6.96783 57.4 6.96783 57.6V61.49H5.38782V54.5299H6.84784L8.85779 57.14C9.07779 57.44 9.24784 57.6699 9.40784 57.9199H9.41779C9.54779 57.6799 9.70781 57.41 9.93781 57.1L11.7678 54.5299H13.2278V61.49H13.2478ZM26.9878 47.89H18.4378C18.3878 47.89 18.3478 47.8499 18.3478 47.7999C18.3478 47.7499 18.3878 47.71 18.4378 47.71H26.9878C27.0378 47.71 27.0778 47.7499 27.0778 47.7999C27.0778 47.8499 27.0378 47.89 26.9878 47.89ZM17.9978 48.75H26.9878C27.0478 48.75 27.0878 48.79 27.0878 48.85C27.0878 48.91 27.0478 48.95 26.9878 48.95H17.9978C17.9378 48.95 17.8978 48.91 17.8978 48.85C17.8978 48.79 17.9478 48.75 17.9978 48.75ZM27.0278 31.95C27.0278 32 26.9878 32.0399 26.9378 32.0399H18.4378C18.3878 32.0399 18.3478 32 18.3478 31.95C18.3478 31.9 18.3878 31.86 18.4378 31.86H26.9378C26.9878 31.86 27.0278 31.9 27.0278 31.95ZM26.9378 31H17.9978C17.9378 31 17.8978 30.9599 17.8978 30.8999C17.8978 30.8399 17.9378 30.7999 17.9978 30.7999H26.9378C26.9878 30.7999 27.0378 30.8399 27.0378 30.8999C27.0378 30.9599 26.9978 31 26.9378 31ZM26.9878 50.14H17.3878V29.61H26.9378C26.9978 29.61 27.0478 29.66 27.0478 29.72C27.0478 29.78 26.9978 29.83 26.9378 29.83H17.6078V49.9099H26.9878C27.0478 49.9099 27.0978 49.96 27.0978 50.02C27.1078 50.09 27.0478 50.14 26.9878 50.14ZM17.0078 45.61H14.0378C13.9478 45.46 13.8578 45.3 13.7678 45.14H17.0078V45.61ZM17.0078 46.22H14.4078C14.3178 46.07 14.2178 45.91 14.1278 45.75H17.0178V46.22H17.0078ZM17.0078 46.83H14.7878C14.6878 46.68 14.5878 46.52 14.4978 46.37H17.0078V46.83ZM17.0078 47.4399H15.1878C15.0878 47.2899 14.9878 47.13 14.8878 46.97H17.0178V47.4399H17.0078ZM17.0078 48.0499H15.5978C15.4878 47.8999 15.3878 47.74 15.2778 47.58H17.0078V48.0499ZM17.0078 48.6599H16.0278C15.9178 48.5099 15.8078 48.35 15.6978 48.2H17.0078V48.6599ZM17.0078 49.2799H16.4878C16.3678 49.1299 16.2578 48.9699 16.1378 48.8199H17.0078V49.2799ZM17.0078 49.95C16.8678 49.78 16.7278 49.5999 16.5978 49.4199H17.0078V49.95ZM3.29779 50.1799V49.39H15.9378C16.1378 49.66 16.3378 49.9199 16.5478 50.1799H3.29779ZM3.29779 48.45H15.2578C15.4278 48.7 15.5978 48.9399 15.7778 49.1699H3.29779V48.45ZM3.29779 47.5H14.6178C14.7778 47.75 14.9378 47.99 15.0978 48.22H3.28784V47.5H3.29779ZM3.29779 46.5599H14.0278C14.1778 46.7999 14.3278 47.0499 14.4878 47.2799H3.3078V46.5599H3.29779ZM12.6178 45.14V44.1C12.6878 44.24 12.7678 44.37 12.8378 44.51V45.1499H12.6178V45.14ZM11.6178 45.14V42.11C11.6878 42.26 11.7678 42.4099 11.8378 42.5599V45.14H11.6178ZM10.6178 45.14V39.86C10.6878 40.03 10.7678 40.21 10.8378 40.38V45.14H10.6178ZM9.6178 45.14V37.23C9.6878 37.44 9.76783 37.64 9.83783 37.84V45.13H9.6178V45.14ZM8.6178 45.14V34.0399C8.6878 34.2999 8.76783 34.5599 8.83783 34.8099V45.14H8.6178ZM7.6178 45.14V29.6599C7.6878 30.0399 7.75783 30.4199 7.83783 30.7899V45.14H7.6178ZM3.29779 45.5699H13.4278C13.5778 45.8299 13.7378 46.09 13.8878 46.34H3.29779V45.5699ZM3.62781 15.99H3.84784V45.14H3.62781V15.99ZM4.62781 15.99H4.84784V45.14H4.62781V15.99ZM5.62781 15.99H5.84784V45.14H5.62781V15.99ZM6.6178 15.99H6.83783V45.14H6.6178V15.99ZM43.5878 21.36C43.5878 21.5 43.5878 21.63 43.5778 21.77H38.4078C38.3678 21.77 38.3378 21.8 38.3378 21.84C38.3378 21.88 38.3678 21.9099 38.4078 21.9099H43.5678C43.5678 22.0399 43.5578 22.1699 43.5578 22.2999H7.35779C7.34779 21.9899 7.34783 21.68 7.33783 21.37C10.4378 21.36 40.5578 21.35 43.5878 21.36ZM7.6178 15.99H7.83783V20.7H7.6178V15.99ZM8.6178 15.99H8.83783V20.7H8.6178V15.99ZM9.6178 15.99H9.83783V20.7H9.6178V15.99ZM10.6178 15.99H10.8378V20.7H10.6178V15.99ZM11.6178 15.99H11.8378V20.7H11.6178V15.99ZM12.6178 15.99H12.8378V20.7H12.6178V15.99ZM13.6078 15.99H13.8278V20.7H13.6078V15.99ZM14.6078 15.99H14.8278V20.7H14.6078V15.99ZM15.6078 15.99H15.8278V20.7H15.6078V15.99ZM16.6078 15.99H16.8278V20.7H16.6078V15.99ZM17.6078 15.99H17.8278V20.7H17.6078V15.99ZM18.5978 15.99H18.8178V20.7H18.5978V15.99ZM19.5978 15.99H19.8178V20.7H19.5978V15.99ZM20.5978 15.99H20.8178V20.7H20.5978V15.99ZM21.5978 15.99H21.8178V20.7H21.5978V15.99ZM23.0378 18.96C23.0378 18.37 22.6278 17.84 22.6278 17.14C22.6278 16.44 23.0978 15.98 23.0978 15.98H23.8678C23.8678 15.98 23.3278 16.53 23.3278 17.14C23.3278 17.74 23.7478 18.3 23.7478 18.96C23.7478 19.62 23.3778 20.2299 22.9778 20.6899H22.1978C22.7078 20.2299 23.0378 19.56 23.0378 18.96ZM24.2078 17.14C24.2078 16.44 24.6778 15.98 24.6778 15.98H25.4478C25.4478 15.98 24.9078 16.53 24.9078 17.14C24.9078 17.74 25.3278 18.3 25.3278 18.96C25.3278 19.62 24.9678 20.2299 24.5578 20.6899H23.7778C24.2978 20.2299 24.6178 19.55 24.6178 18.96C24.6278 18.37 24.2078 17.84 24.2078 17.14ZM25.7978 17.14C25.7978 16.44 26.2678 15.98 26.2678 15.98H27.0378C27.0378 15.98 26.4978 16.53 26.4978 17.14C26.4978 17.74 26.9178 18.3 26.9178 18.96C26.9178 19.62 26.5578 20.2299 26.1478 20.6899H25.3678C25.8878 20.2299 26.2078 19.55 26.2078 18.96C26.2078 18.37 25.7978 17.84 25.7978 17.14ZM27.3878 17.14C27.3878 16.44 27.8578 15.98 27.8578 15.98H28.6278C28.6278 15.98 28.0878 16.53 28.0878 17.14C28.0878 17.74 28.5078 18.3 28.5078 18.96C28.5078 19.62 28.1478 20.2299 27.7378 20.6899H26.9578C27.4778 20.2299 27.7978 19.55 27.7978 18.96C27.7978 18.37 27.3878 17.84 27.3878 17.14ZM28.9678 17.14C28.9678 16.44 29.4378 15.98 29.4378 15.98H30.2078C30.2078 15.98 29.6678 16.53 29.6678 17.14C29.6678 17.74 30.0878 18.3 30.0878 18.96C30.0878 19.62 29.7278 20.2299 29.3178 20.6899H28.5378C29.0578 20.2299 29.3778 19.55 29.3778 18.96C29.3878 18.37 28.9678 17.84 28.9678 17.14ZM30.5878 15.99H30.8078V20.7H30.5878V15.99ZM31.5778 15.99H31.7978V20.7H31.5778V15.99ZM32.5778 15.99H32.7978V20.7H32.5778V15.99ZM33.5778 15.99H33.7978V20.7H33.5778V15.99ZM34.5778 15.99H34.7978V20.7H34.5778V15.99ZM35.5778 15.99H35.7978V20.7H35.5778V15.99ZM36.5678 15.99H36.7878V20.7H36.5678V15.99ZM37.5678 15.99H37.7878V20.7H37.5678V15.99ZM38.5678 15.99H38.7878V20.7H38.5678V15.99ZM39.5678 15.99H39.7878V20.7H39.5678V15.99ZM40.5678 15.99H40.7878V20.7H40.5678V15.99ZM41.5678 15.99H41.7878V20.7H41.5678V15.99ZM42.5678 15.99H42.7878V20.7H42.5678V15.99ZM43.5578 15.99H43.7778V20.7H43.5578V15.99ZM46.5578 31.8199V29.6899H46.7778V31.1899C46.7078 31.3999 46.6378 31.6099 46.5578 31.8199ZM45.5578 33.9399V29.6799H45.7778V33.5399C45.7078 33.6799 45.6378 33.8099 45.5578 33.9399ZM44.5578 35.4099V29.6899H44.7778V35.13C44.7078 35.22 44.6378 35.3099 44.5578 35.4099ZM43.5578 36.5V29.6899H43.7778V36.2899C43.7078 36.3599 43.6378 36.43 43.5578 36.5ZM42.5678 37.35V33.13C42.6478 32.84 42.7178 32.54 42.7878 32.24V37.1799C42.7078 37.2299 42.6378 37.29 42.5678 37.35ZM41.5678 38.01V36.5299C41.6478 36.2999 41.7178 36.07 41.7878 35.85V37.88C41.7078 37.92 41.6378 37.97 41.5678 38.01ZM50.7478 26.0599C50.7378 26.2799 50.7278 26.49 50.7078 26.71H44.6778V26.89H50.6978C50.0778 33.86 45.5478 39.82 39.3478 42.08C39.8078 41.11 40.2478 40.0899 40.6578 39.0299C44.4478 37.3499 46.9678 33.89 47.8478 29.01L47.8978 28.72H43.4778C43.6178 27.85 43.7378 26.9599 43.8278 26.0699H50.7478V26.0599ZM44.5578 15.99H44.7778V25.4099H44.5578V15.99ZM45.5578 15.99H45.7778V25.4099H45.5578V15.99ZM46.5578 15.99H46.7778V25.4099H46.5578V15.99ZM47.5578 15.99H47.7778V25.4099H47.5578V15.99ZM48.5578 15.99H48.7778V25.4099H48.5578V15.99ZM49.5478 15.99H49.7678V25.4099H49.5478V15.99ZM50.5478 15.99H50.7678V25.4099H50.5478V15.99ZM51.4678 26.0599C51.2478 33.9499 46.1178 40.79 38.9678 42.83C39.0578 42.65 39.1478 42.4699 39.2278 42.2899C45.8278 39.9799 50.5878 33.5099 50.9178 26.0599H51.4678ZM51.5478 29.71C51.6278 29.32 51.7078 28.9299 51.7678 28.5399V45.14H51.5478V29.71ZM51.5478 15.99H51.7678V25.4099H51.5478V15.99ZM52.5478 15.99H52.7678V45.14H52.5478V15.99ZM50.5478 45.14V32.8999C50.6278 32.7199 50.6978 32.53 50.7678 32.34V45.14H50.5478ZM49.5478 45.14V34.98C49.6278 34.84 49.6978 34.7099 49.7678 34.5699V45.13H49.5478V45.14ZM48.5578 45.14V36.59C48.6278 36.48 48.7078 36.37 48.7778 36.26V45.13H48.5578V45.14ZM47.5578 45.14V37.9199C47.6278 37.8299 47.7078 37.7399 47.7778 37.6499V45.14H47.5578ZM46.5578 45.14V39.0399C46.6278 38.9599 46.7078 38.8899 46.7778 38.8099V45.14H46.5578ZM45.5578 45.14V40C45.6278 39.94 45.7078 39.8699 45.7778 39.7999V45.14H45.5578ZM44.5578 45.14V40.83C44.6278 40.77 44.7078 40.7199 44.7778 40.6599V45.14H44.5578ZM43.5578 45.14V41.5399C43.6278 41.4899 43.7078 41.44 43.7778 41.39V45.13H43.5578V45.14ZM42.5678 45.14V42.1599C42.6378 42.1199 42.7178 42.0799 42.7878 42.0299V45.14H42.5678ZM41.5678 45.14V42.6899C41.6478 42.6499 41.7178 42.62 41.7878 42.58V45.14H41.5678ZM40.5678 45.14V43.13C40.6378 43.1 40.7178 43.0699 40.7878 43.0399V45.14H40.5678ZM39.5678 45.14V43.49C39.6378 43.47 39.7178 43.4399 39.7878 43.4199V45.14H39.5678ZM53.1178 46.34H37.0478C37.0978 46.26 37.1478 46.17 37.1978 46.09H43.9278C43.9878 46.09 44.0378 46.04 44.0378 45.98C44.0378 45.92 43.9878 45.87 43.9278 45.87H37.3278C37.3878 45.77 37.4478 45.6699 37.5078 45.5699H53.1178V46.34ZM53.1178 47.2799H36.4578C36.5078 47.1999 36.5678 47.1099 36.6178 47.0299H42.6678C42.7278 47.0299 42.7778 46.9799 42.7778 46.9199C42.7778 46.8599 42.7378 46.8099 42.6678 46.8099H36.7578C36.8078 46.7299 36.8578 46.6399 36.9178 46.5599H53.1178V47.2799ZM53.1178 48.23H35.8378C35.8978 48.15 35.9478 48.06 36.0078 47.98H41.1478C41.2078 47.98 41.2578 47.93 41.2578 47.87C41.2578 47.81 41.2078 47.76 41.1478 47.76H36.1578C36.2178 47.68 36.2678 47.59 36.3278 47.51H53.1278V48.23H53.1178ZM53.1178 49.1699H35.1678C35.2278 49.0899 35.2878 48.9999 35.3478 48.9199H39.7278C39.7878 48.9199 39.8378 48.8699 39.8378 48.8099C39.8378 48.7499 39.7878 48.7 39.7278 48.7H35.4978C35.5578 48.6199 35.6178 48.53 35.6778 48.45H53.1178V49.1699ZM35.2378 48.2C35.1278 48.36 35.0178 48.5099 34.9078 48.6599H34.4578V48.2H35.2378ZM35.6578 47.59C35.5478 47.75 35.4478 47.8999 35.3378 48.0599H34.4578V47.59H35.6578ZM36.0578 46.98C35.9578 47.14 35.8578 47.29 35.7578 47.45H34.4578V46.98H36.0578ZM36.4478 46.37C36.3478 46.53 36.2578 46.68 36.1578 46.83H34.4578V46.37H36.4478ZM36.8178 45.75C36.7278 45.91 36.6278 46.06 36.5378 46.22H34.4578V45.75H36.8178ZM37.1778 45.14C37.0878 45.3 36.9978 45.45 36.9078 45.61H34.4578V45.14H37.1778ZM37.5178 44.5299C37.4278 44.6899 37.3478 44.84 37.2578 44.99H34.4578V44.5299H37.5178ZM37.8578 43.9199C37.7778 44.0799 37.6878 44.23 37.6078 44.39H34.4678V43.9199H37.8578ZM38.1778 43.3099C38.0978 43.4699 38.0178 43.6199 37.9378 43.7799H34.4678V43.3099H38.1778ZM38.4878 42.6899C38.4078 42.8499 38.3278 42.9999 38.2578 43.1499H34.4678V42.6899H38.4878ZM38.7878 43.73V45.14H38.5678V43.7799C38.6478 43.7599 38.7178 43.75 38.7878 43.73ZM38.7878 42.08C38.7078 42.24 38.6378 42.3899 38.5578 42.5399H34.4578V42.08H38.7878ZM39.0678 41.47C38.9978 41.63 38.9278 41.7799 38.8478 41.9299H34.4578V41.47H39.0678ZM39.3478 40.86C39.2778 41.02 39.2078 41.1699 39.1378 41.3199H34.4578V40.86H39.3478ZM39.6178 40.25C39.5478 40.41 39.4778 40.56 39.4178 40.72H34.4678V40.25H39.6178ZM39.8678 39.64C39.7978 39.8 39.7378 39.95 39.6678 40.11H34.4478V39.64H39.8678ZM34.4578 38.88V38.4199H40.3578C40.2978 38.5799 40.2378 38.73 40.1778 38.88H34.4578ZM40.1178 39.0299C40.0578 39.1899 39.9978 39.34 39.9278 39.49H34.4578V39.0299H40.1178ZM53.1178 50.1799H34.4578V50.1C34.5178 50.02 34.5778 49.94 34.6378 49.86H38.2478C38.3078 49.86 38.3578 49.81 38.3578 49.75C38.3578 49.69 38.3078 49.64 38.2478 49.64H34.7978C34.8578 49.56 34.9278 49.47 34.9878 49.39H53.1078V50.1799H53.1178ZM53.6078 51.63H34.4578V50.6699H53.5978V15.5H2.8078V50.6699H27.0778L29.2578 51.63H2.8078V64.33H53.5978V51.63H53.6078ZM36.8678 6.23999H36.5178V8.62H36.8778C37.8678 8.62 38.3178 8.16991 38.3178 7.40991C38.3278 6.74991 37.8478 6.23999 36.8678 6.23999ZM18.8878 56.4199L18.0478 58.63H19.7078C19.7078 58.63 18.9578 56.6399 18.9078 56.4199H18.8878ZM50.3178 7.92993V9.18994H47.4478V11.0599H50.7378V12.3099H45.7678V4.97998H50.7478L50.3078 6.21997H47.4478V7.92993H50.3178ZM36.8178 9.77002H36.5178V12.2899H34.8378V9.77002H34.5378C32.1378 9.77002 31.3578 8.28998 31.3578 7.34998C31.3578 5.77998 32.5478 4.96997 34.3178 4.96997H37.0378C38.8178 4.96997 39.9978 5.77998 39.9978 7.34998C40.0078 8.29998 39.2178 9.77002 36.8178 9.77002ZM24.4778 11.3199C23.7378 11.9999 22.7078 12.4099 21.4478 12.4099C20.2578 12.4099 19.2878 12.1 18.5778 11.52C17.7478 10.84 17.2978 9.84997 17.2978 8.71997C17.2978 7.63997 17.7178 6.67999 18.4578 5.98999C19.1878 5.30999 20.2178 4.8999 21.4578 4.8999C22.7778 4.8999 23.8778 5.31991 24.5978 6.02991C25.2678 6.69991 25.6078 7.61 25.6078 8.63C25.6078 9.69 25.2178 10.6499 24.4778 11.3199ZM9.89783 12.2999L7.15784 9.14001H7.1178V12.2999H5.45782V4.96997H7.1178V8.01001H7.13782L9.79779 5H11.7278L8.54779 8.5L11.9278 12.2999H9.89783ZM53.6078 2.80994H2.81781V14.5399H53.6078V2.80994ZM47.4478 56.6799C47.4478 57.2799 47.9478 57.75 48.6178 57.75H49.2878V55.73H48.6178C47.8678 55.74 47.4478 56.1399 47.4478 56.6799ZM21.4478 6.14001C20.0578 6.14001 19.0378 7.05991 19.0378 8.65991C19.0378 10.2599 20.0578 11.1799 21.4478 11.1799C22.8178 11.1799 23.8278 10.2599 23.8278 8.65991C23.8278 7.08991 22.8378 6.14001 21.4478 6.14001ZM33.0378 7.40991C33.0378 8.16991 33.4878 8.62 34.4778 8.62H34.8378V6.23999H34.4878C33.5178 6.23999 33.0378 6.74991 33.0378 7.40991ZM55.0078 65.73H1.40784V1.3999H55.0078V65.73ZM0.0078125 67.13H56.4078V0H0.0078125V67.13Z" fill="#BEBEBE"/>
</g>
</svg>
