<svg width="26" height="26" viewBox="0 0 26 26" fill="none" xmlns="http://www.w3.org/2000/svg">
<path d="M15.0415 8.31443C15.457 7.78516 15.6603 7.34923 15.7485 6.98232C15.8367 6.61286 15.8086 6.31243 15.7613 6.0593C15.714 5.80618 15.6488 5.60035 15.5516 5.41243C15.4544 5.2245 15.3253 5.05191 15.1489 4.86526C14.9213 4.62237 14.6145 4.35262 14.2885 4.06626C14.107 3.90645 13.9191 3.74154 13.7311 3.56895C13.4691 3.32733 13.2134 3.07804 13.0012 2.68301C12.835 2.37491 12.6956 1.9786 12.6023 1.43272C12.509 1.97988 12.3696 2.37491 12.2034 2.68301C11.9912 3.07804 11.7355 3.32861 11.4735 3.56895C11.2855 3.74282 11.0963 3.90773 10.9148 4.06753C10.5888 4.3539 10.282 4.62364 10.0557 4.86654C9.88056 5.05319 9.75016 5.22578 9.653 5.4137C9.55584 5.60163 9.49064 5.80746 9.44334 6.06058C9.39604 6.31371 9.36792 6.61414 9.45613 6.9836C9.54434 7.3505 9.7476 7.78644 10.1631 8.31571H15.0428L15.0415 8.31443ZM10.7473 9.15818V9.50335V9.50719V9.50847C10.7486 9.56344 10.7716 9.6133 10.8087 9.65037C10.8458 9.68745 10.8982 9.71046 10.9557 9.71046C11.0132 9.71046 11.0657 9.68745 11.1027 9.65037C11.1398 9.61458 11.1628 9.56344 11.1641 9.50847V9.50719V9.50335V9.15818V9.15435V8.81301V8.80918V8.8079C11.1628 8.75292 11.1398 8.70307 11.1027 8.66599C11.0657 8.62892 11.0132 8.60463 10.9557 8.60463C10.8982 8.60463 10.8458 8.62764 10.8087 8.66471C10.7716 8.70179 10.7473 8.7542 10.7473 8.81173V8.86798V9.15563V9.15818ZM10.6808 9.70534C10.6706 9.71941 10.6591 9.73219 10.6476 9.7437C10.585 9.80634 10.5006 9.84469 10.406 9.84469C10.3127 9.84469 10.227 9.80634 10.1644 9.7437C10.103 9.68233 10.0647 9.59668 10.0647 9.50208V9.15946V9.15818V9.1569V8.81429V8.81045V8.40647C9.63255 7.85676 9.41905 7.40036 9.32701 7.01556C9.2324 6.62309 9.26309 6.30476 9.31294 6.03757C9.3628 5.77038 9.43184 5.55433 9.53539 5.35362C9.63894 5.15419 9.77573 4.97137 9.95854 4.77578C10.1912 4.52648 10.4993 4.25674 10.8266 3.96782C11.0107 3.80674 11.2012 3.63926 11.3827 3.47179C11.6371 3.23784 11.8838 2.99622 12.0858 2.62037C12.284 2.25218 12.4425 1.7536 12.5282 1.00445C12.3696 0.985275 12.2571 0.936695 12.1855 0.849763C12.1101 0.757717 12.0833 0.629876 12.0999 0.458568C12.1165 0.285982 12.1664 0.165811 12.2571 0.0903845C12.3492 0.014958 12.477 -0.0118887 12.6483 0.00473071C12.8209 0.0213501 12.9411 0.0712083 13.0165 0.161976C13.0919 0.254022 13.1188 0.381863 13.1022 0.553171C13.0855 0.725757 13.0357 0.845928 12.9449 0.921354C12.8759 0.977605 12.7877 1.00701 12.6752 1.01084C12.7621 1.75616 12.9194 2.25346 13.1175 2.62037C13.3208 2.99622 13.5675 3.23784 13.8206 3.47179C14.0022 3.63926 14.1927 3.80546 14.3755 3.96782C14.704 4.25546 15.0121 4.52776 15.2448 4.77578C15.4289 4.97137 15.5657 5.15419 15.6679 5.35362C15.7715 5.55305 15.8405 5.77038 15.8904 6.03757C15.9402 6.30476 15.9709 6.62181 15.8763 7.01556C15.7843 7.40036 15.5708 7.85803 15.1387 8.40647V8.80662V8.81557V9.16074V9.16202V9.1633V9.50463C15.1387 9.59924 15.1003 9.68489 15.039 9.74625L15.0351 9.75009C14.9738 9.81017 14.8894 9.84725 14.7973 9.84725C14.704 9.84725 14.6184 9.8089 14.5557 9.74753C14.5442 9.73603 14.5327 9.72196 14.5225 9.70918C14.5123 9.72324 14.5008 9.73603 14.4892 9.74753L14.4854 9.75137C14.424 9.81145 14.3397 9.84853 14.2476 9.84853C14.153 9.84853 14.0674 9.81017 14.006 9.74881C13.9945 9.7373 13.983 9.72452 13.9728 9.71046C13.9625 9.72452 13.951 9.7373 13.9395 9.74881C13.8769 9.81145 13.7925 9.8498 13.6979 9.8498C13.6046 9.8498 13.5189 9.81145 13.4563 9.74881C13.4448 9.7373 13.4333 9.72452 13.423 9.71046C13.4128 9.72452 13.4013 9.7373 13.3898 9.74881C13.3272 9.81145 13.2428 9.8498 13.1482 9.8498C13.0549 9.8498 12.9692 9.81145 12.9066 9.74881C12.8951 9.7373 12.8836 9.72452 12.8733 9.71046C12.8631 9.72452 12.8516 9.7373 12.8401 9.74881L12.8363 9.75265C12.7749 9.81273 12.6905 9.8498 12.5985 9.8498C12.5039 9.8498 12.4182 9.81145 12.3568 9.75009L12.353 9.74625C12.3428 9.73475 12.3326 9.72324 12.3236 9.71174C12.3134 9.7258 12.3019 9.73858 12.2904 9.75009C12.229 9.81273 12.1434 9.85108 12.0488 9.85108C11.9541 9.85108 11.8685 9.81273 11.8071 9.75137C11.7956 9.73986 11.7841 9.72708 11.7739 9.71301C11.7637 9.72708 11.7522 9.73986 11.7407 9.75137C11.6793 9.81401 11.5936 9.85236 11.499 9.85236C11.4057 9.85236 11.3201 9.81401 11.2574 9.75265C11.2459 9.74114 11.2344 9.72708 11.2242 9.71429C11.2139 9.72836 11.2024 9.74114 11.1909 9.75265C11.1283 9.81529 11.0439 9.85364 10.9493 9.85364C10.856 9.85364 10.7703 9.81529 10.7077 9.75265C10.6962 9.74114 10.6847 9.72836 10.6745 9.71429L10.6808 9.70534ZM10.1989 9.15946V9.50208C10.1989 9.5596 10.2219 9.61202 10.2602 9.64909C10.2973 9.68617 10.3497 9.70918 10.4073 9.70918C10.4648 9.70918 10.5172 9.68617 10.5543 9.64909C10.5914 9.6133 10.6144 9.56216 10.6156 9.50719V9.50591V9.50208V9.15946V9.15818V9.1569V8.81429C10.6156 8.75676 10.5926 8.70434 10.5543 8.66727C10.5172 8.6302 10.4648 8.60591 10.4073 8.60591C10.3497 8.60591 10.2986 8.62892 10.2602 8.66599C10.2232 8.70307 10.2002 8.7542 10.1989 8.81045V8.81301V8.86926V9.15563V9.1569V9.15818V9.15946ZM11.297 9.16074V9.50335V9.50719V9.50847C11.2983 9.56344 11.3213 9.6133 11.3571 9.65037C11.3942 9.68745 11.4466 9.71174 11.5041 9.71174C11.5617 9.71174 11.6141 9.68872 11.6512 9.65165C11.687 9.61585 11.71 9.56472 11.7125 9.50975V9.50847V9.50463V9.15946V9.15563V8.81429V8.81045V8.80918C11.7113 8.7542 11.6882 8.70434 11.6512 8.66727C11.6141 8.6302 11.5617 8.60591 11.5041 8.60591C11.4466 8.60591 11.3955 8.62892 11.3571 8.66599C11.3213 8.70179 11.2983 8.75292 11.2958 8.8079V8.80918V8.81301V9.15818V9.16074H11.297ZM11.8468 9.16074V9.50335V9.50719V9.50847C11.848 9.56344 11.8711 9.6133 11.9081 9.65037C11.9452 9.68745 11.9976 9.71174 12.0551 9.71174C12.1127 9.71174 12.1651 9.68872 12.2022 9.65165C12.238 9.61585 12.261 9.56728 12.2622 9.5123V9.50975V9.50463V9.15946V9.15435V8.81429V8.81045V8.80918C12.261 8.7542 12.238 8.70434 12.2009 8.66727C12.1638 8.6302 12.1114 8.60591 12.0539 8.60591C11.9963 8.60591 11.9452 8.62892 11.9068 8.66599C11.8711 8.70179 11.848 8.75292 11.8455 8.8079V8.80918V8.81301V9.15818V9.16074H11.8468ZM12.3965 9.16074V9.50335V9.50847V9.51102C12.399 9.56344 12.4195 9.61202 12.454 9.64654L12.4566 9.64909C12.4936 9.68617 12.5461 9.71046 12.6036 9.71046C12.6598 9.71046 12.7097 9.68872 12.7468 9.65293L12.7493 9.65037C12.7864 9.6133 12.8107 9.56088 12.8107 9.50335V9.4471V9.15946V8.81429V8.81045V8.80918C12.8094 8.7542 12.7864 8.70434 12.7493 8.66727C12.7122 8.6302 12.6598 8.60591 12.6023 8.60591C12.5448 8.60591 12.4936 8.62892 12.4553 8.66599C12.4195 8.70179 12.3965 8.75292 12.3939 8.8079V8.80918V8.81301V9.15818V9.16074H12.3965ZM13.4946 9.15818V9.50335V9.50719V9.50847C13.4959 9.56344 13.5189 9.6133 13.556 9.65037C13.5931 9.68745 13.6455 9.71174 13.703 9.71174C13.7605 9.71174 13.813 9.68872 13.85 9.65165C13.8871 9.61585 13.9101 9.56472 13.9114 9.50975V9.50847V9.50463V9.15946V9.15563V8.81429V8.81173V8.81045C13.9101 8.75548 13.8871 8.70434 13.85 8.66727C13.813 8.6302 13.7605 8.60591 13.703 8.60591C13.6455 8.60591 13.5944 8.62892 13.556 8.66599C13.5189 8.70307 13.4946 8.75548 13.4946 8.81301V8.86926V9.1569V9.15818ZM12.9449 9.15946V9.50208C12.9449 9.5596 12.9679 9.61202 13.0063 9.64909C13.0434 9.68617 13.0958 9.71046 13.1533 9.71046C13.2108 9.71046 13.2632 9.68745 13.3003 9.65037C13.3374 9.61458 13.3604 9.56344 13.3617 9.50847V9.50719V9.50335V9.16074V9.15946V9.15818V8.81557C13.3617 8.75804 13.3387 8.70562 13.3003 8.66855C13.2632 8.63148 13.2108 8.60719 13.1533 8.60719C13.0958 8.60719 13.0434 8.6302 13.0063 8.66727C12.9705 8.70307 12.9475 8.7542 12.9449 8.80918V8.81045V8.81429V9.1569V9.15818V9.15946ZM14.0431 9.15818V9.50335V9.50719V9.50847C14.0444 9.56344 14.0674 9.6133 14.1044 9.65037C14.1415 9.68745 14.1939 9.71174 14.2515 9.71174C14.3077 9.71174 14.3576 9.69 14.3946 9.65421L14.3972 9.65165C14.433 9.61585 14.456 9.56472 14.4586 9.50975V9.50847V9.50463V9.15946V9.15563V8.81429V8.81045V8.80918C14.4573 8.7542 14.4343 8.70434 14.3972 8.66727C14.3601 8.6302 14.3077 8.60591 14.2502 8.60591C14.1927 8.60591 14.1415 8.62892 14.1032 8.66599C14.0661 8.70307 14.0431 8.75292 14.0418 8.80918V8.81045V8.81301V8.86926V9.1569L14.0431 9.15818ZM14.5928 9.16074V9.50335V9.50719V9.50847C14.5941 9.56344 14.6171 9.6133 14.6529 9.65037C14.69 9.68745 14.7424 9.71174 14.7999 9.71174C14.8562 9.71174 14.906 9.69 14.9431 9.65421L14.9456 9.65165C14.9827 9.61458 15.007 9.56216 15.007 9.50463V9.44838V9.16202V9.16074V8.81045C15.0057 8.75548 14.9827 8.70562 14.9456 8.66855C14.9086 8.63148 14.8562 8.60719 14.7986 8.60719C14.7411 8.60719 14.6887 8.6302 14.6516 8.66727C14.6158 8.70307 14.5928 8.7542 14.5902 8.80918V8.81045V8.81429V9.15946V9.16202L14.5928 9.16074ZM10.1989 8.54199C10.2564 8.49724 10.328 8.47167 10.406 8.47167C10.5006 8.47167 10.585 8.51003 10.6476 8.57139C10.6591 8.5829 10.6706 8.59696 10.6808 8.60974C10.6911 8.59568 10.7026 8.5829 10.7141 8.57139C10.7754 8.50875 10.8611 8.4704 10.9557 8.4704C11.0503 8.4704 11.1347 8.50875 11.1973 8.57011C11.2088 8.58162 11.2203 8.59568 11.2306 8.60846C11.2408 8.5944 11.2523 8.58162 11.2638 8.57011C11.3252 8.50747 11.4108 8.46912 11.5054 8.46912C11.6 8.46912 11.6857 8.50747 11.747 8.56883C11.7586 8.58034 11.7701 8.59312 11.7803 8.60719C11.7905 8.59312 11.802 8.58034 11.8135 8.56883C11.8749 8.50619 11.9605 8.46784 12.0551 8.46784C12.1497 8.46784 12.2354 8.50619 12.2968 8.56755C12.3083 8.57906 12.3198 8.59184 12.33 8.60591C12.3402 8.59184 12.3517 8.57906 12.3632 8.56755C12.4246 8.50491 12.5103 8.46656 12.6049 8.46656C12.6995 8.46656 12.7838 8.50491 12.8465 8.56628C12.858 8.57778 12.8695 8.59184 12.8797 8.60463C12.8899 8.59057 12.9015 8.57778 12.913 8.56628C12.9743 8.50363 13.06 8.46528 13.1546 8.46528C13.2492 8.46528 13.3336 8.50363 13.3962 8.565C13.4077 8.5765 13.4192 8.59057 13.4294 8.60335C13.4397 8.58929 13.4512 8.5765 13.4627 8.565C13.524 8.50235 13.6097 8.464 13.7043 8.464C13.7989 8.464 13.8833 8.50236 13.9459 8.56372C13.9574 8.57523 13.9689 8.58801 13.9792 8.60207C13.9894 8.58801 14.0009 8.57523 14.0124 8.56372C14.0738 8.50108 14.1594 8.46272 14.254 8.46272C14.3486 8.46272 14.433 8.50108 14.4956 8.56244C14.5071 8.57395 14.5186 8.58801 14.5289 8.60079C14.5391 8.58673 14.5506 8.57395 14.5621 8.56244C14.6235 8.4998 14.7091 8.46145 14.8037 8.46145C14.8817 8.46145 14.9533 8.48829 15.0108 8.53176V8.43843H10.2014V8.53176L10.1989 8.54199ZM12.9718 0.53783C12.9846 0.402318 12.9679 0.306437 12.9168 0.243794C12.8657 0.181152 12.7736 0.146635 12.6381 0.133851C12.5026 0.121066 12.4067 0.137686 12.3441 0.188822C12.2814 0.239959 12.2469 0.332005 12.2341 0.467517C12.2213 0.603029 12.238 0.69891 12.2904 0.761552C12.3415 0.824195 12.4336 0.858712 12.5678 0.871496L12.5946 0.874053H12.5959C12.6036 0.872775 12.6113 0.874053 12.6176 0.875331C12.7263 0.879167 12.8069 0.861269 12.8618 0.816524C12.9245 0.765388 12.959 0.673342 12.9718 0.539108V0.53783Z" fill="#5B5B5B"/>
<path d="M15.0415 16.885C15.457 17.4143 15.6603 17.8502 15.7485 18.2171C15.8367 18.5866 15.8086 18.887 15.7613 19.1402C15.714 19.3933 15.6488 19.5991 15.5516 19.787C15.4544 19.975 15.3253 20.1476 15.1489 20.3342C14.9213 20.5771 14.6145 20.8468 14.2885 21.1332C14.107 21.293 13.9191 21.4579 13.7311 21.6305C13.4691 21.8721 13.2134 22.1214 13.0012 22.5165C12.835 22.8246 12.6956 23.2209 12.6023 23.7667C12.509 23.2196 12.3696 22.8246 12.2034 22.5165C11.9912 22.1214 11.7355 21.8709 11.4735 21.6305C11.2855 21.4566 11.0963 21.2917 10.9148 21.1319C10.5888 20.8456 10.282 20.5758 10.0557 20.3329C9.88056 20.1463 9.75016 19.9737 9.653 19.7858C9.55584 19.5978 9.49064 19.392 9.44334 19.1389C9.39604 18.8858 9.36792 18.5853 9.45613 18.2159C9.54434 17.849 9.7476 17.413 10.1631 16.8838H15.0428L15.0415 16.885ZM10.7473 16.0413V15.6961V15.6923V15.691C10.7486 15.636 10.7716 15.5862 10.8087 15.5491C10.8458 15.512 10.8982 15.489 10.9557 15.489C11.0132 15.489 11.0657 15.512 11.1027 15.5491C11.1398 15.5849 11.1628 15.636 11.1641 15.691V15.6923V15.6961V16.0413V16.0451V16.3865V16.3903V16.3916C11.1628 16.4465 11.1398 16.4964 11.1027 16.5335C11.0657 16.5705 11.0132 16.5948 10.9557 16.5948C10.8982 16.5948 10.8458 16.5718 10.8087 16.5348C10.7716 16.4977 10.7473 16.4453 10.7473 16.3877V16.3315V16.0438V16.0413ZM10.6808 15.4941C10.6706 15.4801 10.6591 15.4673 10.6476 15.4558C10.585 15.3931 10.5006 15.3548 10.406 15.3548C10.3127 15.3548 10.227 15.3931 10.1644 15.4558C10.103 15.5171 10.0647 15.6028 10.0647 15.6974V16.04V16.0413V16.0426V16.3852V16.389V16.793C9.63255 17.3427 9.41905 17.7991 9.32701 18.1839C9.2324 18.5764 9.26309 18.8947 9.31294 19.1619C9.3628 19.4291 9.43184 19.6451 9.53539 19.8458C9.63894 20.0453 9.77573 20.2281 9.95854 20.4237C10.1912 20.673 10.4993 20.9427 10.8266 21.2316C11.0107 21.3927 11.2012 21.5602 11.3827 21.7277C11.6371 21.9616 11.8838 22.2032 12.0858 22.5791C12.284 22.9473 12.4425 23.4459 12.5282 24.195C12.3696 24.2142 12.2571 24.2628 12.1855 24.3497C12.1101 24.4417 12.0833 24.5696 12.0999 24.7409C12.1165 24.9135 12.1664 25.0337 12.2571 25.1091C12.3492 25.1845 12.477 25.2114 12.6483 25.1947C12.8209 25.1781 12.9411 25.1283 13.0165 25.0375C13.0919 24.9454 13.1188 24.8176 13.1022 24.6463C13.0855 24.4737 13.0357 24.3535 12.9449 24.2781C12.8759 24.2219 12.7877 24.1925 12.6752 24.1886C12.7621 23.4433 12.9194 22.946 13.1175 22.5791C13.3208 22.2032 13.5675 21.9616 13.8206 21.7277C14.0022 21.5602 14.1927 21.394 14.3755 21.2316C14.704 20.944 15.0121 20.6717 15.2448 20.4237C15.4289 20.2281 15.5657 20.0453 15.6679 19.8458C15.7715 19.6464 15.8405 19.4291 15.8904 19.1619C15.9402 18.8947 15.9709 18.5777 15.8763 18.1839C15.7843 17.7991 15.5708 17.3414 15.1387 16.793V16.3928V16.3839V16.0387V16.0374V16.0362V15.6948C15.1387 15.6002 15.1003 15.5146 15.039 15.4532L15.0351 15.4494C14.9738 15.3893 14.8894 15.3522 14.7973 15.3522C14.704 15.3522 14.6184 15.3906 14.5557 15.4519C14.5442 15.4634 14.5327 15.4775 14.5225 15.4903C14.5123 15.4762 14.5008 15.4634 14.4892 15.4519L14.4854 15.4481C14.424 15.388 14.3397 15.3509 14.2476 15.3509C14.153 15.3509 14.0674 15.3893 14.006 15.4507C13.9945 15.4622 13.983 15.4749 13.9728 15.489C13.9625 15.4749 13.951 15.4622 13.9395 15.4507C13.8769 15.388 13.7925 15.3497 13.6979 15.3497C13.6046 15.3497 13.5189 15.388 13.4563 15.4507C13.4448 15.4622 13.4333 15.4749 13.423 15.489C13.4128 15.4749 13.4013 15.4622 13.3898 15.4507C13.3272 15.388 13.2428 15.3497 13.1482 15.3497C13.0549 15.3497 12.9692 15.388 12.9066 15.4507C12.8951 15.4622 12.8836 15.4749 12.8733 15.489C12.8631 15.4749 12.8516 15.4622 12.8401 15.4507L12.8363 15.4468C12.7749 15.3867 12.6905 15.3497 12.5985 15.3497C12.5039 15.3497 12.4182 15.388 12.3568 15.4494L12.353 15.4532C12.3428 15.4647 12.3326 15.4762 12.3236 15.4877C12.3134 15.4737 12.3019 15.4609 12.2904 15.4494C12.229 15.3867 12.1434 15.3484 12.0488 15.3484C11.9541 15.3484 11.8685 15.3867 11.8071 15.4481C11.7956 15.4596 11.7841 15.4724 11.7739 15.4865C11.7637 15.4724 11.7522 15.4596 11.7407 15.4481C11.6793 15.3855 11.5936 15.3471 11.499 15.3471C11.4057 15.3471 11.3201 15.3855 11.2574 15.4468C11.2459 15.4583 11.2344 15.4724 11.2242 15.4852C11.2139 15.4711 11.2024 15.4583 11.1909 15.4468C11.1283 15.3842 11.0439 15.3458 10.9493 15.3458C10.856 15.3458 10.7703 15.3842 10.7077 15.4468C10.6962 15.4583 10.6847 15.4711 10.6745 15.4852L10.6808 15.4941ZM10.1989 16.04V15.6974C10.1989 15.6399 10.2219 15.5874 10.2602 15.5504C10.2973 15.5133 10.3497 15.4903 10.4073 15.4903C10.4648 15.4903 10.5172 15.5133 10.5543 15.5504C10.5914 15.5862 10.6144 15.6373 10.6156 15.6923V15.6936V15.6974V16.04V16.0413V16.0426V16.3852C10.6156 16.4427 10.5926 16.4951 10.5543 16.5322C10.5172 16.5693 10.4648 16.5936 10.4073 16.5936C10.3497 16.5936 10.2986 16.5705 10.2602 16.5335C10.2232 16.4964 10.2002 16.4453 10.1989 16.389V16.3865V16.3302V16.0438V16.0426V16.0413V16.04ZM11.297 16.0387V15.6961V15.6923V15.691C11.2983 15.636 11.3213 15.5862 11.3571 15.5491C11.3942 15.512 11.4466 15.4877 11.5041 15.4877C11.5617 15.4877 11.6141 15.5107 11.6512 15.5478C11.687 15.5836 11.71 15.6347 11.7125 15.6897V15.691V15.6948V16.04V16.0438V16.3852V16.389V16.3903C11.7113 16.4453 11.6882 16.4951 11.6512 16.5322C11.6141 16.5693 11.5617 16.5936 11.5041 16.5936C11.4466 16.5936 11.3955 16.5705 11.3571 16.5335C11.3213 16.4977 11.2983 16.4465 11.2958 16.3916V16.3903V16.3865V16.0413V16.0387H11.297ZM11.8468 16.0387V15.6961V15.6923V15.691C11.848 15.636 11.8711 15.5862 11.9081 15.5491C11.9452 15.512 11.9976 15.4877 12.0551 15.4877C12.1127 15.4877 12.1651 15.5107 12.2022 15.5478C12.238 15.5836 12.261 15.6322 12.2622 15.6872V15.6897V15.6948V16.04V16.0451V16.3852V16.389V16.3903C12.261 16.4453 12.238 16.4951 12.2009 16.5322C12.1638 16.5693 12.1114 16.5936 12.0539 16.5936C11.9963 16.5936 11.9452 16.5705 11.9068 16.5335C11.8711 16.4977 11.848 16.4465 11.8455 16.3916V16.3903V16.3865V16.0413V16.0387H11.8468ZM12.3965 16.0387V15.6961V15.691V15.6884C12.399 15.636 12.4195 15.5874 12.454 15.5529L12.4566 15.5504C12.4936 15.5133 12.5461 15.489 12.6036 15.489C12.6598 15.489 12.7097 15.5107 12.7468 15.5465L12.7493 15.5491C12.7864 15.5862 12.8107 15.6386 12.8107 15.6961V15.7524V16.04V16.3852V16.389V16.3903C12.8094 16.4453 12.7864 16.4951 12.7493 16.5322C12.7122 16.5693 12.6598 16.5936 12.6023 16.5936C12.5448 16.5936 12.4936 16.5705 12.4553 16.5335C12.4195 16.4977 12.3965 16.4465 12.3939 16.3916V16.3903V16.3865V16.0413V16.0387H12.3965ZM13.4946 16.0413V15.6961V15.6923V15.691C13.4959 15.636 13.5189 15.5862 13.556 15.5491C13.5931 15.512 13.6455 15.4877 13.703 15.4877C13.7605 15.4877 13.813 15.5107 13.85 15.5478C13.8871 15.5836 13.9101 15.6347 13.9114 15.6897V15.691V15.6948V16.04V16.0438V16.3852V16.3877V16.389C13.9101 16.444 13.8871 16.4951 13.85 16.5322C13.813 16.5693 13.7605 16.5936 13.703 16.5936C13.6455 16.5936 13.5944 16.5705 13.556 16.5335C13.5189 16.4964 13.4946 16.444 13.4946 16.3865V16.3302V16.0426V16.0413ZM12.9449 16.04V15.6974C12.9449 15.6399 12.9679 15.5874 13.0063 15.5504C13.0434 15.5133 13.0958 15.489 13.1533 15.489C13.2108 15.489 13.2632 15.512 13.3003 15.5491C13.3374 15.5849 13.3604 15.636 13.3617 15.691V15.6923V15.6961V16.0387V16.04V16.0413V16.3839C13.3617 16.4414 13.3387 16.4938 13.3003 16.5309C13.2632 16.568 13.2108 16.5923 13.1533 16.5923C13.0958 16.5923 13.0434 16.5693 13.0063 16.5322C12.9705 16.4964 12.9475 16.4453 12.9449 16.3903V16.389V16.3852V16.0426V16.0413V16.04ZM14.0431 16.0413V15.6961V15.6923V15.691C14.0444 15.636 14.0674 15.5862 14.1044 15.5491C14.1415 15.512 14.1939 15.4877 14.2515 15.4877C14.3077 15.4877 14.3576 15.5095 14.3946 15.5453L14.3972 15.5478C14.433 15.5836 14.456 15.6347 14.4586 15.6897V15.691V15.6948V16.04V16.0438V16.3852V16.389V16.3903C14.4573 16.4453 14.4343 16.4951 14.3972 16.5322C14.3601 16.5693 14.3077 16.5936 14.2502 16.5936C14.1927 16.5936 14.1415 16.5705 14.1032 16.5335C14.0661 16.4964 14.0431 16.4465 14.0418 16.3903V16.389V16.3865V16.3302V16.0426L14.0431 16.0413ZM14.5928 16.0387V15.6961V15.6923V15.691C14.5941 15.636 14.6171 15.5862 14.6529 15.5491C14.69 15.512 14.7424 15.4877 14.7999 15.4877C14.8562 15.4877 14.906 15.5095 14.9431 15.5453L14.9456 15.5478C14.9827 15.5849 15.007 15.6373 15.007 15.6948V15.7511V16.0374V16.0387V16.389C15.0057 16.444 14.9827 16.4938 14.9456 16.5309C14.9086 16.568 14.8562 16.5923 14.7986 16.5923C14.7411 16.5923 14.6887 16.5693 14.6516 16.5322C14.6158 16.4964 14.5928 16.4453 14.5902 16.3903V16.389V16.3852V16.04V16.0374L14.5928 16.0387ZM10.1989 16.6575C10.2564 16.7022 10.328 16.7278 10.406 16.7278C10.5006 16.7278 10.585 16.6894 10.6476 16.6281C10.6591 16.6166 10.6706 16.6025 10.6808 16.5897C10.6911 16.6038 10.7026 16.6166 10.7141 16.6281C10.7754 16.6907 10.8611 16.7291 10.9557 16.7291C11.0503 16.7291 11.1347 16.6907 11.1973 16.6294C11.2088 16.6178 11.2203 16.6038 11.2306 16.591C11.2408 16.6051 11.2523 16.6178 11.2638 16.6294C11.3252 16.692 11.4108 16.7303 11.5054 16.7303C11.6 16.7303 11.6857 16.692 11.747 16.6306C11.7586 16.6191 11.7701 16.6063 11.7803 16.5923C11.7905 16.6063 11.802 16.6191 11.8135 16.6306C11.8749 16.6933 11.9605 16.7316 12.0551 16.7316C12.1497 16.7316 12.2354 16.6933 12.2968 16.6319C12.3083 16.6204 12.3198 16.6076 12.33 16.5936C12.3402 16.6076 12.3517 16.6204 12.3632 16.6319C12.4246 16.6946 12.5103 16.7329 12.6049 16.7329C12.6995 16.7329 12.7838 16.6946 12.8465 16.6332C12.858 16.6217 12.8695 16.6076 12.8797 16.5948C12.8899 16.6089 12.9015 16.6217 12.913 16.6332C12.9743 16.6958 13.06 16.7342 13.1546 16.7342C13.2492 16.7342 13.3336 16.6958 13.3962 16.6345C13.4077 16.623 13.4192 16.6089 13.4294 16.5961C13.4397 16.6102 13.4512 16.623 13.4627 16.6345C13.524 16.6971 13.6097 16.7355 13.7043 16.7355C13.7989 16.7355 13.8833 16.6971 13.9459 16.6357C13.9574 16.6242 13.9689 16.6115 13.9792 16.5974C13.9894 16.6115 14.0009 16.6242 14.0124 16.6357C14.0738 16.6984 14.1594 16.7367 14.254 16.7367C14.3486 16.7367 14.433 16.6984 14.4956 16.637C14.5071 16.6255 14.5186 16.6115 14.5289 16.5987C14.5391 16.6127 14.5506 16.6255 14.5621 16.637C14.6235 16.6997 14.7091 16.738 14.8037 16.738C14.8817 16.738 14.9533 16.7112 15.0108 16.6677V16.761H10.2014V16.6677L10.1989 16.6575ZM12.9718 24.6616C12.9846 24.7971 12.9679 24.893 12.9168 24.9557C12.8657 25.0183 12.7736 25.0528 12.6381 25.0656C12.5026 25.0784 12.4067 25.0618 12.3441 25.0106C12.2814 24.9595 12.2469 24.8675 12.2341 24.7319C12.2213 24.5964 12.238 24.5006 12.2904 24.4379C12.3415 24.3753 12.4336 24.3408 12.5678 24.328L12.5946 24.3254H12.5959C12.6036 24.3267 12.6113 24.3254 12.6176 24.3241C12.7263 24.3203 12.8069 24.3382 12.8618 24.3829C12.9245 24.4341 12.959 24.5261 12.9718 24.6604V24.6616Z" fill="#5B5B5B"/>
<path d="M16.883 15.039C17.4122 15.4544 17.8482 15.6577 18.2151 15.7459C18.5845 15.8341 18.885 15.806 19.1381 15.7587C19.3912 15.7114 19.597 15.6462 19.785 15.549C19.9729 15.4519 20.1455 15.3228 20.3321 15.1463C20.575 14.9188 20.8448 14.612 21.1311 14.286C21.2909 14.1044 21.4559 13.9165 21.6284 13.7286C21.8701 13.4665 22.1193 13.2108 22.5144 12.9986C22.8225 12.8324 23.2188 12.6931 23.7647 12.5997C23.2175 12.5064 22.8225 12.3671 22.5144 12.2009C22.1193 11.9887 21.8688 11.733 21.6284 11.4709C21.4546 11.283 21.2897 11.0938 21.1299 10.9122C20.8435 10.5862 20.5737 10.2794 20.3308 10.0531C20.1442 9.878 19.9716 9.7476 19.7837 9.65044C19.5958 9.55328 19.3899 9.48808 19.1368 9.44078C18.8837 9.39348 18.5833 9.36535 18.2138 9.45356C17.8469 9.54177 17.4109 9.74504 16.8817 10.1605V15.0402L16.883 15.039ZM16.0392 10.7448H15.694H15.6902H15.6889C15.634 10.746 15.5841 10.7691 15.547 10.8061C15.5099 10.8432 15.4869 10.8956 15.4869 10.9531C15.4869 11.0107 15.5099 11.0631 15.547 11.1002C15.5828 11.1372 15.634 11.1602 15.6889 11.1615H15.6902H15.694H16.0392H16.043H16.3844H16.3882H16.3895C16.4445 11.1602 16.4943 11.1372 16.5314 11.1002C16.5685 11.0631 16.5928 11.0107 16.5928 10.9531C16.5928 10.8956 16.5698 10.8432 16.5327 10.8061C16.4956 10.7691 16.4432 10.7448 16.3857 10.7448H16.3294H16.0418H16.0392ZM15.492 10.6783C15.478 10.6681 15.4652 10.6566 15.4537 10.645C15.3911 10.5824 15.3527 10.498 15.3527 10.4034C15.3527 10.3101 15.3911 10.2244 15.4537 10.1618C15.5151 10.1004 15.6007 10.0621 15.6953 10.0621H16.0379H16.0392H16.0405H16.3831H16.3869H16.7909C17.3406 9.62998 17.797 9.41649 18.1818 9.32444C18.5743 9.22984 18.8926 9.26052 19.1598 9.31038C19.427 9.36024 19.6431 9.42927 19.8438 9.53282C20.0432 9.63638 20.226 9.77317 20.4216 9.95598C20.6709 10.1887 20.9407 10.4967 21.2296 10.824C21.3907 11.0081 21.5581 11.1986 21.7256 11.3801C21.9595 11.6345 22.2012 11.8813 22.577 12.0833C22.9452 12.2814 23.4438 12.4399 24.1929 12.5256C24.2121 12.3671 24.2607 12.2546 24.3476 12.183C24.4397 12.1076 24.5675 12.0807 24.7388 12.0973C24.9114 12.1139 25.0316 12.1638 25.107 12.2546C25.1824 12.3466 25.2093 12.4745 25.1927 12.6458C25.176 12.8184 25.1262 12.9385 25.0354 13.0139C24.9434 13.0894 24.8155 13.1162 24.6442 13.0996C24.4716 13.083 24.3515 13.0331 24.276 12.9424C24.2198 12.8733 24.1904 12.7851 24.1865 12.6726C23.4412 12.7595 22.9439 12.9168 22.577 13.1149C22.2012 13.3182 21.9595 13.5649 21.7256 13.8181C21.5581 13.9996 21.3919 14.1901 21.2296 14.3729C20.9419 14.7015 20.6696 15.0096 20.4216 15.2422C20.226 15.4263 20.0432 15.5631 19.8438 15.6654C19.6443 15.7689 19.427 15.838 19.1598 15.8878C18.8926 15.9377 18.5756 15.9684 18.1818 15.8738C17.797 15.7817 17.3394 15.5682 16.7909 15.1361H16.3908H16.3818H16.0367H16.0354H16.0341H15.6928C15.5982 15.1361 15.5125 15.0978 15.4511 15.0364L15.4473 15.0326C15.3872 14.9712 15.3501 14.8868 15.3501 14.7948C15.3501 14.7015 15.3885 14.6158 15.4499 14.5532C15.4614 14.5417 15.4754 14.5301 15.4882 14.5199C15.4741 14.5097 15.4614 14.4982 15.4499 14.4867L15.446 14.4828C15.3859 14.4215 15.3489 14.3371 15.3489 14.2451C15.3489 14.1505 15.3872 14.0648 15.4486 14.0034C15.4601 13.9919 15.4729 13.9804 15.4869 13.9702C15.4729 13.96 15.4601 13.9485 15.4486 13.937C15.3859 13.8743 15.3476 13.7899 15.3476 13.6953C15.3476 13.602 15.3859 13.5164 15.4486 13.4537C15.4601 13.4422 15.4729 13.4307 15.4869 13.4205C15.4729 13.4103 15.4601 13.3988 15.4486 13.3872C15.3859 13.3246 15.3476 13.2402 15.3476 13.1456C15.3476 13.0523 15.3859 12.9666 15.4486 12.904C15.4601 12.8925 15.4729 12.881 15.4869 12.8708C15.4729 12.8605 15.4601 12.849 15.4486 12.8375L15.4447 12.8337C15.3847 12.7723 15.3476 12.688 15.3476 12.5959C15.3476 12.5013 15.3859 12.4157 15.4473 12.3543L15.4511 12.3505C15.4626 12.3402 15.4741 12.33 15.4857 12.321C15.4716 12.3108 15.4588 12.2993 15.4473 12.2878C15.3847 12.2264 15.3463 12.1408 15.3463 12.0462C15.3463 11.9516 15.3847 11.8659 15.446 11.8046C15.4575 11.7931 15.4703 11.7816 15.4844 11.7713C15.4703 11.7611 15.4575 11.7496 15.446 11.7381C15.3834 11.6767 15.345 11.5911 15.345 11.4965C15.345 11.4031 15.3834 11.3175 15.4447 11.2548C15.4563 11.2433 15.4703 11.2318 15.4831 11.2216C15.469 11.2114 15.4563 11.1999 15.4447 11.1884C15.3821 11.1257 15.3438 11.0414 15.3438 10.9468C15.3438 10.8534 15.3821 10.7678 15.4447 10.7051C15.4563 10.6936 15.469 10.6821 15.4831 10.6719L15.492 10.6783ZM16.0379 10.1963H15.6953C15.6378 10.1963 15.5854 10.2193 15.5483 10.2577C15.5112 10.2948 15.4882 10.3472 15.4882 10.4047C15.4882 10.4622 15.5112 10.5146 15.5483 10.5517C15.5841 10.5888 15.6352 10.6118 15.6902 10.6131H15.6915H15.6953H16.0379H16.0392H16.0405H16.3831C16.4406 10.6131 16.493 10.5901 16.5301 10.5517C16.5672 10.5146 16.5915 10.4622 16.5915 10.4047C16.5915 10.3472 16.5685 10.296 16.5314 10.2577C16.4943 10.2206 16.4432 10.1976 16.3869 10.1963H16.3844H16.3281H16.0418H16.0405H16.0392H16.0379ZM16.0367 11.2945H15.694H15.6902H15.6889C15.634 11.2958 15.5841 11.3188 15.547 11.3546C15.5099 11.3916 15.4857 11.4441 15.4857 11.5016C15.4857 11.5591 15.5087 11.6115 15.5457 11.6486C15.5815 11.6844 15.6327 11.7074 15.6876 11.71H15.6889H15.6928H16.0379H16.0418H16.3831H16.3869H16.3882C16.4432 11.7087 16.493 11.6857 16.5301 11.6486C16.5672 11.6115 16.5915 11.5591 16.5915 11.5016C16.5915 11.4441 16.5685 11.3929 16.5314 11.3546C16.4956 11.3188 16.4445 11.2958 16.3895 11.2932H16.3882H16.3844H16.0392H16.0367V11.2945ZM16.0367 11.8442H15.694H15.6902H15.6889C15.634 11.8455 15.5841 11.8685 15.547 11.9056C15.5099 11.9426 15.4857 11.9951 15.4857 12.0526C15.4857 12.1101 15.5087 12.1625 15.5457 12.1996C15.5815 12.2354 15.6301 12.2584 15.6851 12.2597H15.6876H15.6928H16.0379H16.043H16.3831H16.3869H16.3882C16.4432 12.2584 16.493 12.2354 16.5301 12.1983C16.5672 12.1612 16.5915 12.1088 16.5915 12.0513C16.5915 11.9938 16.5685 11.9426 16.5314 11.9043C16.4956 11.8685 16.4445 11.8455 16.3895 11.8429H16.3882H16.3844H16.0392H16.0367V11.8442ZM16.0367 12.3939H15.694H15.6889H15.6864C15.634 12.3965 15.5854 12.4169 15.5509 12.4514L15.5483 12.454C15.5112 12.4911 15.4869 12.5435 15.4869 12.601C15.4869 12.6573 15.5087 12.7071 15.5445 12.7442L15.547 12.7468C15.5841 12.7838 15.6365 12.8081 15.694 12.8081H15.7503H16.0379H16.3831H16.3869H16.3882C16.4432 12.8068 16.493 12.7838 16.5301 12.7468C16.5672 12.7097 16.5915 12.6573 16.5915 12.5997C16.5915 12.5422 16.5685 12.4911 16.5314 12.4527C16.4956 12.4169 16.4445 12.3939 16.3895 12.3914H16.3882H16.3844H16.0392H16.0367V12.3939ZM16.0392 13.4921H15.694H15.6902H15.6889C15.634 13.4934 15.5841 13.5164 15.547 13.5534C15.5099 13.5905 15.4857 13.6429 15.4857 13.7005C15.4857 13.758 15.5087 13.8104 15.5457 13.8475C15.5815 13.8845 15.6327 13.9076 15.6876 13.9088H15.6889H15.6928H16.0379H16.0418H16.3831H16.3857H16.3869C16.4419 13.9076 16.493 13.8845 16.5301 13.8475C16.5672 13.8104 16.5915 13.758 16.5915 13.7005C16.5915 13.6429 16.5685 13.5918 16.5314 13.5534C16.4943 13.5164 16.4419 13.4921 16.3844 13.4921H16.3281H16.0405H16.0392ZM16.0379 12.9424H15.6953C15.6378 12.9424 15.5854 12.9654 15.5483 13.0037C15.5112 13.0408 15.4869 13.0932 15.4869 13.1507C15.4869 13.2083 15.5099 13.2607 15.547 13.2978C15.5828 13.3348 15.634 13.3578 15.6889 13.3591H15.6902H15.694H16.0367H16.0379H16.0392H16.3818C16.4394 13.3591 16.4918 13.3361 16.5288 13.2978C16.5659 13.2607 16.5902 13.2083 16.5902 13.1507C16.5902 13.0932 16.5672 13.0408 16.5301 13.0037C16.4943 12.9679 16.4432 12.9449 16.3882 12.9424H16.3869H16.3831H16.0405H16.0392H16.0379ZM16.0392 14.0405H15.694H15.6902H15.6889C15.634 14.0418 15.5841 14.0648 15.547 14.1019C15.5099 14.139 15.4857 14.1914 15.4857 14.2489C15.4857 14.3051 15.5074 14.355 15.5432 14.3921L15.5457 14.3946C15.5815 14.4304 15.6327 14.4534 15.6876 14.456H15.6889H15.6928H16.0379H16.0418H16.3831H16.3869H16.3882C16.4432 14.4547 16.493 14.4317 16.5301 14.3946C16.5672 14.3576 16.5915 14.3051 16.5915 14.2476C16.5915 14.1901 16.5685 14.139 16.5314 14.1006C16.4943 14.0635 16.4445 14.0405 16.3882 14.0392H16.3869H16.3844H16.3281H16.0405L16.0392 14.0405ZM16.0367 14.5902H15.694H15.6902H15.6889C15.634 14.5915 15.5841 14.6145 15.547 14.6503C15.5099 14.6874 15.4857 14.7398 15.4857 14.7973C15.4857 14.8536 15.5074 14.9034 15.5432 14.9405L15.5457 14.9431C15.5828 14.9802 15.6352 15.0044 15.6928 15.0044H15.749H16.0354H16.0367H16.3869C16.4419 15.0032 16.4918 14.9802 16.5288 14.9431C16.5659 14.906 16.5902 14.8536 16.5902 14.7961C16.5902 14.7385 16.5672 14.6861 16.5301 14.649C16.4943 14.6132 16.4432 14.5902 16.3882 14.5877H16.3869H16.3831H16.0379H16.0354L16.0367 14.5902ZM16.6554 10.1963C16.7001 10.2539 16.7257 10.3254 16.7257 10.4034C16.7257 10.498 16.6874 10.5824 16.626 10.645C16.6145 10.6566 16.6004 10.6681 16.5876 10.6783C16.6017 10.6885 16.6145 10.7 16.626 10.7115C16.6886 10.7729 16.727 10.8585 16.727 10.9531C16.727 11.0477 16.6886 11.1321 16.6273 11.1948C16.6158 11.2063 16.6017 11.2178 16.5889 11.228C16.603 11.2382 16.6158 11.2497 16.6273 11.2612C16.6899 11.3226 16.7283 11.4083 16.7283 11.5029C16.7283 11.5975 16.6899 11.6831 16.6286 11.7445C16.6171 11.756 16.6043 11.7675 16.5902 11.7777C16.6043 11.7879 16.6171 11.7995 16.6286 11.811C16.6912 11.8723 16.7296 11.958 16.7296 12.0526C16.7296 12.1472 16.6912 12.2328 16.6298 12.2942C16.6183 12.3057 16.6055 12.3172 16.5915 12.3274C16.6055 12.3377 16.6183 12.3492 16.6298 12.3607C16.6925 12.422 16.7308 12.5077 16.7308 12.6023C16.7308 12.6969 16.6925 12.7813 16.6311 12.8439C16.6196 12.8554 16.6055 12.8669 16.5928 12.8772C16.6068 12.8874 16.6196 12.8989 16.6311 12.9104C16.6938 12.9718 16.7321 13.0574 16.7321 13.152C16.7321 13.2466 16.6938 13.331 16.6324 13.3936C16.6209 13.4051 16.6068 13.4166 16.594 13.4269C16.6081 13.4371 16.6209 13.4486 16.6324 13.4601C16.695 13.5215 16.7334 13.6071 16.7334 13.7017C16.7334 13.7963 16.695 13.8807 16.6337 13.9434C16.6222 13.9549 16.6094 13.9664 16.5953 13.9766C16.6094 13.9868 16.6222 13.9983 16.6337 14.0098C16.6963 14.0712 16.7347 14.1569 16.7347 14.2515C16.7347 14.3461 16.6963 14.4304 16.6349 14.4931C16.6234 14.5046 16.6094 14.5161 16.5966 14.5263C16.6107 14.5365 16.6234 14.548 16.6349 14.5596C16.6976 14.6209 16.7359 14.7066 16.7359 14.8012C16.7359 14.8792 16.7091 14.9507 16.6656 15.0083H16.759V10.1989H16.6656L16.6554 10.1963ZM24.6596 12.9692C24.7951 12.982 24.891 12.9654 24.9536 12.9142C25.0162 12.8631 25.0508 12.771 25.0635 12.6355C25.0763 12.5 25.0597 12.4041 25.0086 12.3415C24.9574 12.2789 24.8654 12.2443 24.7299 12.2316C24.5944 12.2188 24.4985 12.2354 24.4358 12.2878C24.3732 12.3389 24.3387 12.431 24.3259 12.5652L24.3233 12.5921V12.5933C24.3246 12.601 24.3233 12.6087 24.3221 12.6151C24.3182 12.7237 24.3361 12.8043 24.3809 12.8593C24.432 12.9219 24.524 12.9564 24.6583 12.9692H24.6596Z" fill="#5B5B5B"/>
<path d="M8.31443 15.039C7.78516 15.4544 7.34923 15.6577 6.98232 15.7459C6.61286 15.8341 6.31243 15.806 6.0593 15.7587C5.80618 15.7114 5.60035 15.6462 5.41243 15.549C5.2245 15.4519 5.05191 15.3228 4.86526 15.1463C4.62237 14.9188 4.35262 14.612 4.06626 14.286C3.90645 14.1044 3.74154 13.9165 3.56895 13.7286C3.32733 13.4665 3.07804 13.2108 2.68301 12.9986C2.37491 12.8324 1.9786 12.6931 1.43272 12.5997C1.97988 12.5064 2.37491 12.3671 2.68301 12.2009C3.07804 11.9887 3.32861 11.733 3.56895 11.4709C3.74282 11.283 3.90773 11.0938 4.06753 10.9122C4.3539 10.5862 4.62364 10.2794 4.86654 10.0531C5.05319 9.878 5.22578 9.7476 5.4137 9.65044C5.60163 9.55328 5.80746 9.48808 6.06058 9.44078C6.31371 9.39348 6.61414 9.36535 6.9836 9.45356C7.3505 9.54177 7.78644 9.74504 8.31571 10.1605V15.0402L8.31443 15.039ZM9.15818 10.7448H9.50335H9.50719H9.50847C9.56344 10.746 9.6133 10.7691 9.65037 10.8061C9.68745 10.8432 9.71046 10.8956 9.71046 10.9531C9.71046 11.0107 9.68745 11.0631 9.65037 11.1002C9.61458 11.1372 9.56344 11.1602 9.50847 11.1615H9.50719H9.50335H9.15818H9.15435H8.81301H8.80918H8.8079C8.75292 11.1602 8.70307 11.1372 8.66599 11.1002C8.62892 11.0631 8.60463 11.0107 8.60463 10.9531C8.60463 10.8956 8.62764 10.8432 8.66471 10.8061C8.70179 10.7691 8.7542 10.7448 8.81173 10.7448H8.86798H9.15563H9.15818ZM9.70534 10.6783C9.71941 10.6681 9.73219 10.6566 9.7437 10.645C9.80634 10.5824 9.84469 10.498 9.84469 10.4034C9.84469 10.3101 9.80634 10.2244 9.7437 10.1618C9.68233 10.1004 9.59668 10.0621 9.50208 10.0621H9.15946H9.15818H9.1569H8.81429H8.81045H8.40647C7.85676 9.62998 7.40036 9.41649 7.01556 9.32444C6.62309 9.22984 6.30476 9.26052 6.03757 9.31038C5.77038 9.36024 5.55433 9.42927 5.35362 9.53282C5.15419 9.63638 4.97137 9.77317 4.77578 9.95598C4.52648 10.1887 4.25674 10.4967 3.96782 10.824C3.80674 11.0081 3.63926 11.1986 3.47179 11.3801C3.23784 11.6345 2.99622 11.8813 2.62037 12.0833C2.25218 12.2814 1.7536 12.4399 1.00445 12.5256C0.985275 12.3671 0.936695 12.2546 0.849763 12.183C0.757717 12.1076 0.629876 12.0807 0.458568 12.0973C0.285982 12.1139 0.165811 12.1638 0.0903845 12.2546C0.014958 12.3466 -0.0118887 12.4745 0.00473071 12.6458C0.0213501 12.8184 0.0712083 12.9385 0.161976 13.0139C0.254022 13.0894 0.381863 13.1162 0.553171 13.0996C0.725757 13.083 0.845928 13.0331 0.921354 12.9424C0.977605 12.8733 1.00701 12.7851 1.01084 12.6726C1.75616 12.7595 2.25346 12.9168 2.62037 13.1149C2.99622 13.3182 3.23784 13.5649 3.47179 13.8181C3.63926 13.9996 3.80546 14.1901 3.96782 14.3729C4.25546 14.7015 4.52776 15.0096 4.77578 15.2422C4.97137 15.4263 5.15419 15.5631 5.35362 15.6654C5.55305 15.7689 5.77038 15.838 6.03757 15.8878C6.30476 15.9377 6.62181 15.9684 7.01556 15.8738C7.40036 15.7817 7.85803 15.5682 8.40647 15.1361H8.80662H8.81557H9.16074H9.16202H9.1633H9.50463C9.59924 15.1361 9.68489 15.0978 9.74625 15.0364L9.75009 15.0326C9.81017 14.9712 9.84725 14.8868 9.84725 14.7948C9.84725 14.7015 9.8089 14.6158 9.74753 14.5532C9.73603 14.5417 9.72196 14.5301 9.70918 14.5199C9.72324 14.5097 9.73603 14.4982 9.74753 14.4867L9.75137 14.4828C9.81145 14.4215 9.84853 14.3371 9.84853 14.2451C9.84853 14.1505 9.81017 14.0648 9.74881 14.0034C9.7373 13.9919 9.72452 13.9804 9.71046 13.9702C9.72452 13.96 9.7373 13.9485 9.74881 13.937C9.81145 13.8743 9.8498 13.7899 9.8498 13.6953C9.8498 13.602 9.81145 13.5164 9.74881 13.4537C9.7373 13.4422 9.72452 13.4307 9.71046 13.4205C9.72452 13.4103 9.7373 13.3988 9.74881 13.3872C9.81145 13.3246 9.8498 13.2402 9.8498 13.1456C9.8498 13.0523 9.81145 12.9666 9.74881 12.904C9.7373 12.8925 9.72452 12.881 9.71046 12.8708C9.72452 12.8605 9.7373 12.849 9.74881 12.8375L9.75265 12.8337C9.81273 12.7723 9.8498 12.688 9.8498 12.5959C9.8498 12.5013 9.81145 12.4157 9.75009 12.3543L9.74625 12.3505C9.73475 12.3402 9.72324 12.33 9.71174 12.321C9.7258 12.3108 9.73858 12.2993 9.75009 12.2878C9.81273 12.2264 9.85108 12.1408 9.85108 12.0462C9.85108 11.9516 9.81273 11.8659 9.75137 11.8046C9.73986 11.7931 9.72708 11.7816 9.71301 11.7713C9.72708 11.7611 9.73986 11.7496 9.75137 11.7381C9.81401 11.6767 9.85236 11.5911 9.85236 11.4965C9.85236 11.4031 9.81401 11.3175 9.75265 11.2548C9.74114 11.2433 9.72708 11.2318 9.71429 11.2216C9.72836 11.2114 9.74114 11.1999 9.75265 11.1884C9.81529 11.1257 9.85364 11.0414 9.85364 10.9468C9.85364 10.8534 9.81529 10.7678 9.75265 10.7051C9.74114 10.6936 9.72836 10.6821 9.71429 10.6719L9.70534 10.6783ZM9.15946 10.1963H9.50208C9.5596 10.1963 9.61202 10.2193 9.64909 10.2577C9.68617 10.2948 9.70918 10.3472 9.70918 10.4047C9.70918 10.4622 9.68617 10.5146 9.64909 10.5517C9.6133 10.5888 9.56216 10.6118 9.50719 10.6131H9.50591H9.50208H9.15946H9.15818H9.1569H8.81429C8.75676 10.6131 8.70434 10.5901 8.66727 10.5517C8.6302 10.5146 8.60591 10.4622 8.60591 10.4047C8.60591 10.3472 8.62892 10.296 8.66599 10.2577C8.70307 10.2206 8.7542 10.1976 8.81045 10.1963H8.81301H8.86926H9.15563H9.1569H9.15818H9.15946ZM9.16074 11.2945H9.50335H9.50719H9.50847C9.56344 11.2958 9.6133 11.3188 9.65037 11.3546C9.68745 11.3916 9.71174 11.4441 9.71174 11.5016C9.71174 11.5591 9.68872 11.6115 9.65165 11.6486C9.61585 11.6844 9.56472 11.7074 9.50975 11.71H9.50847H9.50463H9.15946H9.15563H8.81429H8.81045H8.80918C8.7542 11.7087 8.70434 11.6857 8.66727 11.6486C8.6302 11.6115 8.60591 11.5591 8.60591 11.5016C8.60591 11.4441 8.62892 11.3929 8.66599 11.3546C8.70179 11.3188 8.75292 11.2958 8.8079 11.2932H8.80918H8.81301H9.15818H9.16074V11.2945ZM9.16074 11.8442H9.50335H9.50719H9.50847C9.56344 11.8455 9.6133 11.8685 9.65037 11.9056C9.68745 11.9426 9.71174 11.9951 9.71174 12.0526C9.71174 12.1101 9.68872 12.1625 9.65165 12.1996C9.61585 12.2354 9.56728 12.2584 9.5123 12.2597H9.50975H9.50463H9.15946H9.15435H8.81429H8.81045H8.80918C8.7542 12.2584 8.70434 12.2354 8.66727 12.1983C8.6302 12.1612 8.60591 12.1088 8.60591 12.0513C8.60591 11.9938 8.62892 11.9426 8.66599 11.9043C8.70179 11.8685 8.75292 11.8455 8.8079 11.8429H8.80918H8.81301H9.15818H9.16074V11.8442ZM9.16074 12.3939H9.50335H9.50847H9.51102C9.56344 12.3965 9.61202 12.4169 9.64654 12.4514L9.64909 12.454C9.68617 12.4911 9.71046 12.5435 9.71046 12.601C9.71046 12.6573 9.68872 12.7071 9.65293 12.7442L9.65037 12.7468C9.6133 12.7838 9.56088 12.8081 9.50335 12.8081H9.4471H9.15946H8.81429H8.81045H8.80918C8.7542 12.8068 8.70434 12.7838 8.66727 12.7468C8.6302 12.7097 8.60591 12.6573 8.60591 12.5997C8.60591 12.5422 8.62892 12.4911 8.66599 12.4527C8.70179 12.4169 8.75292 12.3939 8.8079 12.3914H8.80918H8.81301H9.15818H9.16074V12.3939ZM9.15818 13.4921H9.50335H9.50719H9.50847C9.56344 13.4934 9.6133 13.5164 9.65037 13.5534C9.68745 13.5905 9.71174 13.6429 9.71174 13.7005C9.71174 13.758 9.68872 13.8104 9.65165 13.8475C9.61585 13.8845 9.56472 13.9076 9.50975 13.9088H9.50847H9.50463H9.15946H9.15563H8.81429H8.81173H8.81045C8.75548 13.9076 8.70434 13.8845 8.66727 13.8475C8.6302 13.8104 8.60591 13.758 8.60591 13.7005C8.60591 13.6429 8.62892 13.5918 8.66599 13.5534C8.70307 13.5164 8.75548 13.4921 8.81301 13.4921H8.86926H9.1569H9.15818ZM9.15946 12.9424H9.50208C9.5596 12.9424 9.61202 12.9654 9.64909 13.0037C9.68617 13.0408 9.71046 13.0932 9.71046 13.1507C9.71046 13.2083 9.68745 13.2607 9.65037 13.2978C9.61458 13.3348 9.56344 13.3578 9.50847 13.3591H9.50719H9.50335H9.16074H9.15946H9.15818H8.81557C8.75804 13.3591 8.70562 13.3361 8.66855 13.2978C8.63148 13.2607 8.60719 13.2083 8.60719 13.1507C8.60719 13.0932 8.6302 13.0408 8.66727 13.0037C8.70307 12.9679 8.7542 12.9449 8.80918 12.9424H8.81045H8.81429H9.1569H9.15818H9.15946ZM9.15818 14.0405H9.50335H9.50719H9.50847C9.56344 14.0418 9.6133 14.0648 9.65037 14.1019C9.68745 14.139 9.71174 14.1914 9.71174 14.2489C9.71174 14.3051 9.69 14.355 9.65421 14.3921L9.65165 14.3946C9.61585 14.4304 9.56472 14.4534 9.50975 14.456H9.50847H9.50463H9.15946H9.15563H8.81429H8.81045H8.80918C8.7542 14.4547 8.70434 14.4317 8.66727 14.3946C8.6302 14.3576 8.60591 14.3051 8.60591 14.2476C8.60591 14.1901 8.62892 14.139 8.66599 14.1006C8.70307 14.0635 8.75292 14.0405 8.80918 14.0392H8.81045H8.81301H8.86926H9.1569L9.15818 14.0405ZM9.16074 14.5902H9.50335H9.50719H9.50847C9.56344 14.5915 9.6133 14.6145 9.65037 14.6503C9.68745 14.6874 9.71174 14.7398 9.71174 14.7973C9.71174 14.8536 9.69 14.9034 9.65421 14.9405L9.65165 14.9431C9.61458 14.9802 9.56216 15.0044 9.50463 15.0044H9.44838H9.16202H9.16074H8.81045C8.75548 15.0032 8.70562 14.9802 8.66855 14.9431C8.63148 14.906 8.60719 14.8536 8.60719 14.7961C8.60719 14.7385 8.6302 14.6861 8.66727 14.649C8.70307 14.6132 8.7542 14.5902 8.80918 14.5877H8.81045H8.81429H9.15946H9.16202L9.16074 14.5902ZM8.54199 10.1963C8.49724 10.2539 8.47167 10.3254 8.47167 10.4034C8.47167 10.498 8.51003 10.5824 8.57139 10.645C8.5829 10.6566 8.59696 10.6681 8.60974 10.6783C8.59568 10.6885 8.5829 10.7 8.57139 10.7115C8.50875 10.7729 8.4704 10.8585 8.4704 10.9531C8.4704 11.0477 8.50875 11.1321 8.57011 11.1948C8.58162 11.2063 8.59568 11.2178 8.60846 11.228C8.5944 11.2382 8.58162 11.2497 8.57011 11.2612C8.50747 11.3226 8.46912 11.4083 8.46912 11.5029C8.46912 11.5975 8.50747 11.6831 8.56883 11.7445C8.58034 11.756 8.59312 11.7675 8.60719 11.7777C8.59312 11.7879 8.58034 11.7995 8.56883 11.811C8.50619 11.8723 8.46784 11.958 8.46784 12.0526C8.46784 12.1472 8.50619 12.2328 8.56755 12.2942C8.57906 12.3057 8.59184 12.3172 8.60591 12.3274C8.59184 12.3377 8.57906 12.3492 8.56755 12.3607C8.50491 12.422 8.46656 12.5077 8.46656 12.6023C8.46656 12.6969 8.50491 12.7813 8.56628 12.8439C8.57778 12.8554 8.59184 12.8669 8.60463 12.8772C8.59057 12.8874 8.57778 12.8989 8.56628 12.9104C8.50363 12.9718 8.46528 13.0574 8.46528 13.152C8.46528 13.2466 8.50363 13.331 8.565 13.3936C8.5765 13.4051 8.59057 13.4166 8.60335 13.4269C8.58929 13.4371 8.5765 13.4486 8.565 13.4601C8.50235 13.5215 8.464 13.6071 8.464 13.7017C8.464 13.7963 8.50236 13.8807 8.56372 13.9434C8.57523 13.9549 8.58801 13.9664 8.60207 13.9766C8.58801 13.9868 8.57523 13.9983 8.56372 14.0098C8.50108 14.0712 8.46272 14.1569 8.46272 14.2515C8.46272 14.3461 8.50108 14.4304 8.56244 14.4931C8.57395 14.5046 8.58801 14.5161 8.60079 14.5263C8.58673 14.5365 8.57395 14.548 8.56244 14.5596C8.4998 14.6209 8.46145 14.7066 8.46145 14.8012C8.46145 14.8792 8.48829 14.9507 8.53176 15.0083H8.43843V10.1989H8.53176L8.54199 10.1963ZM0.53783 12.9692C0.402318 12.982 0.306437 12.9654 0.243794 12.9142C0.181152 12.8631 0.146635 12.771 0.133851 12.6355C0.121066 12.5 0.137686 12.4041 0.188822 12.3415C0.239959 12.2789 0.332005 12.2443 0.467517 12.2316C0.603029 12.2188 0.69891 12.2354 0.761552 12.2878C0.824195 12.3389 0.858712 12.431 0.871496 12.5652L0.874053 12.5921V12.5933C0.872775 12.601 0.874053 12.6087 0.875331 12.6151C0.879167 12.7237 0.861269 12.8043 0.816524 12.8593C0.765388 12.9219 0.673342 12.9564 0.539108 12.9692H0.53783Z" fill="#5B5B5B"/>
</svg>
