<svg width="34" height="34" viewBox="0 0 34 34" fill="none" xmlns="http://www.w3.org/2000/svg">
<path d="M19.7917 10.8711C20.3436 10.1681 20.6136 9.58911 20.7307 9.10178C20.8479 8.61105 20.8106 8.21202 20.7477 7.87581C20.6849 7.5396 20.5983 7.26622 20.4693 7.01661C20.3402 6.767 20.1687 6.53777 19.9344 6.28985C19.6321 5.96723 19.2246 5.60895 18.7916 5.22859C18.5505 5.01634 18.3009 4.79729 18.0513 4.56806C17.7032 4.24713 17.3636 3.91602 17.0817 3.39133C16.861 2.9821 16.6759 2.45572 16.5519 1.73066C16.428 2.45741 16.2429 2.9821 16.0221 3.39133C15.7403 3.91602 15.4007 4.24883 15.0526 4.56806C14.8029 4.79899 14.5516 5.01803 14.3105 5.23029C13.8775 5.61064 13.47 5.96893 13.1694 6.29155C12.9368 6.53946 12.7636 6.7687 12.6346 7.01831C12.5055 7.26791 12.4189 7.5413 12.3561 7.87751C12.2933 8.21371 12.2559 8.61275 12.3731 9.10348C12.4902 9.59081 12.7602 10.1698 13.3121 10.8728H19.7934L19.7917 10.8711ZM14.0881 11.9918V12.4503V12.4554V12.4571C14.0898 12.5301 14.1203 12.5963 14.1696 12.6456C14.2188 12.6948 14.2884 12.7254 14.3649 12.7254C14.4413 12.7254 14.5109 12.6948 14.5601 12.6456C14.6094 12.598 14.6399 12.5301 14.6416 12.4571V12.4554V12.4503V11.9918V11.9867V11.5333V11.5283V11.5266C14.6399 11.4535 14.6094 11.3873 14.5601 11.3381C14.5109 11.2888 14.4413 11.2566 14.3649 11.2566C14.2884 11.2566 14.2188 11.2871 14.1696 11.3364C14.1203 11.3856 14.0881 11.4552 14.0881 11.5317V11.6064V11.9884V11.9918ZM13.3579 11.9935V12.4486C13.3579 12.525 13.3885 12.5946 13.4394 12.6439C13.4887 12.6931 13.5583 12.7237 13.6347 12.7237C13.7111 12.7237 13.7807 12.6931 13.83 12.6439C13.8792 12.5963 13.9098 12.5284 13.9115 12.4554V12.4537V12.4486V11.9935V11.9918V11.9901V11.535C13.9115 11.4586 13.8809 11.389 13.83 11.3398C13.7807 11.2905 13.7111 11.2583 13.6347 11.2583C13.5583 11.2583 13.4904 11.2888 13.4394 11.3381C13.3902 11.3873 13.3596 11.4552 13.3579 11.53V11.5333V11.6081V11.9884V11.9901V11.9918V11.9935ZM14.8165 11.9952V12.4503V12.4554V12.4571C14.8182 12.5301 14.8488 12.5963 14.8963 12.6456C14.9456 12.6948 15.0152 12.7271 15.0916 12.7271C15.168 12.7271 15.2376 12.6965 15.2869 12.6473C15.3344 12.5997 15.365 12.5318 15.3684 12.4588V12.4571V12.452V11.9935V11.9884V11.535V11.53V11.5283C15.3667 11.4552 15.3361 11.389 15.2869 11.3398C15.2376 11.2905 15.168 11.2583 15.0916 11.2583C15.0152 11.2583 14.9473 11.2888 14.8963 11.3381C14.8488 11.3856 14.8182 11.4535 14.8148 11.5266V11.5283V11.5333V11.9918V11.9952H14.8165ZM15.5467 11.9952V12.4503V12.4554V12.4571C15.5484 12.5301 15.5789 12.5963 15.6282 12.6456C15.6774 12.6948 15.747 12.7271 15.8235 12.7271C15.8999 12.7271 15.9695 12.6965 16.0187 12.6473C16.0663 12.5997 16.0968 12.5352 16.0985 12.4622V12.4588V12.452V11.9935V11.9867V11.535V11.53V11.5283C16.0968 11.4552 16.0663 11.389 16.017 11.3398C15.9678 11.2905 15.8982 11.2583 15.8218 11.2583C15.7454 11.2583 15.6774 11.2888 15.6265 11.3381C15.5789 11.3856 15.5484 11.4535 15.545 11.5266V11.5283V11.5333V11.9918V11.9952H15.5467ZM16.2768 11.9952V12.4503V12.4571V12.4605C16.2802 12.5301 16.3074 12.5946 16.3532 12.6405L16.3566 12.6439C16.4059 12.6931 16.4755 12.7254 16.5519 12.7254C16.6266 12.7254 16.6928 12.6965 16.7421 12.649L16.7455 12.6456C16.7947 12.5963 16.827 12.5267 16.827 12.4503V12.3756V11.9935V11.535V11.53V11.5283C16.8253 11.4552 16.7947 11.389 16.7455 11.3398C16.6962 11.2905 16.6266 11.2583 16.5502 11.2583C16.4738 11.2583 16.4059 11.2888 16.3549 11.3381C16.3074 11.3856 16.2768 11.4535 16.2734 11.5266V11.5283V11.5333V11.9918V11.9952H16.2768ZM17.7354 11.9918V12.4503V12.4554V12.4571C17.7371 12.5301 17.7677 12.5963 17.8169 12.6456C17.8662 12.6948 17.9358 12.7271 18.0122 12.7271C18.0886 12.7271 18.1582 12.6965 18.2075 12.6473C18.2567 12.5997 18.2873 12.5318 18.289 12.4588V12.4571V12.452V11.9935V11.9884V11.535V11.5317V11.53C18.2873 11.4569 18.2567 11.389 18.2075 11.3398C18.1582 11.2905 18.0886 11.2583 18.0122 11.2583C17.9358 11.2583 17.8679 11.2888 17.8169 11.3381C17.7677 11.3873 17.7354 11.4569 17.7354 11.5333V11.6081V11.9901V11.9918ZM17.0053 11.9935V12.4486C17.0053 12.525 17.0358 12.5946 17.0868 12.6439C17.136 12.6931 17.2056 12.7254 17.2821 12.7254C17.3585 12.7254 17.4281 12.6948 17.4773 12.6456C17.5266 12.598 17.5571 12.5301 17.5588 12.4571V12.4554V12.4503V11.9952V11.9935V11.9918V11.5367C17.5588 11.4603 17.5283 11.3907 17.4773 11.3415C17.4281 11.2922 17.3585 11.26 17.2821 11.26C17.2056 11.26 17.136 11.2905 17.0868 11.3398C17.0392 11.3873 17.0087 11.4552 17.0053 11.5283V11.53V11.535V11.9901V11.9918V11.9935ZM18.4639 11.9918V12.4503V12.4554V12.4571C18.4656 12.5301 18.4961 12.5963 18.5454 12.6456C18.5946 12.6948 18.6642 12.7271 18.7407 12.7271C18.8154 12.7271 18.8816 12.6982 18.9308 12.6507L18.9342 12.6473C18.9818 12.5997 19.0123 12.5318 19.0157 12.4588V12.4571V12.452V11.9935V11.9884V11.535V11.53V11.5283C19.014 11.4552 18.9835 11.389 18.9342 11.3398C18.885 11.2905 18.8154 11.2583 18.739 11.2583C18.6626 11.2583 18.5946 11.2888 18.5437 11.3381C18.4945 11.3873 18.4639 11.4535 18.4622 11.5283V11.53V11.5333V11.6081V11.9901L18.4639 11.9918ZM19.194 11.9952V12.4503V12.4554V12.4571C19.1957 12.5301 19.2263 12.5963 19.2738 12.6456C19.3231 12.6948 19.3927 12.7271 19.4691 12.7271C19.5438 12.7271 19.61 12.6982 19.6593 12.6507L19.6627 12.6473C19.7119 12.598 19.7442 12.5284 19.7442 12.452V12.3773V11.9969V11.9952V11.53C19.7425 11.4569 19.7119 11.3907 19.6627 11.3415C19.6134 11.2922 19.5438 11.26 19.4674 11.26C19.391 11.26 19.3214 11.2905 19.2721 11.3398C19.2246 11.3873 19.194 11.4552 19.1906 11.5283V11.53V11.535V11.9935V11.9969L19.194 11.9952ZM13.3579 11.1734C13.4343 11.1139 13.5294 11.08 13.633 11.08C13.7587 11.08 13.8707 11.1309 13.9539 11.2124C13.9692 11.2277 13.9845 11.2464 13.9981 11.2634C14.0117 11.2447 14.027 11.2277 14.0422 11.2124C14.1237 11.1292 14.2375 11.0783 14.3632 11.0783C14.4888 11.0783 14.6009 11.1292 14.6841 11.2107C14.6994 11.226 14.7147 11.2447 14.7282 11.2617C14.7418 11.243 14.7571 11.226 14.7724 11.2107C14.8539 11.1275 14.9677 11.0766 15.0933 11.0766C15.219 11.0766 15.3327 11.1275 15.4142 11.209C15.4295 11.2243 15.4448 11.2413 15.4584 11.26C15.472 11.2413 15.4873 11.2243 15.5025 11.209C15.584 11.1258 15.6978 11.0749 15.8235 11.0749C15.9491 11.0749 16.0629 11.1258 16.1444 11.2073C16.1597 11.2226 16.1749 11.2396 16.1885 11.2583C16.2021 11.2396 16.2174 11.2226 16.2327 11.2073C16.3142 11.1241 16.428 11.0732 16.5536 11.0732C16.6793 11.0732 16.7913 11.1241 16.8745 11.2056C16.8898 11.2209 16.9051 11.2396 16.9187 11.2566C16.9323 11.2379 16.9476 11.2209 16.9628 11.2056C17.0443 11.1224 17.1581 11.0715 17.2838 11.0715C17.4094 11.0715 17.5215 11.1224 17.6047 11.2039C17.62 11.2192 17.6352 11.2379 17.6488 11.2549C17.6624 11.2362 17.6777 11.2192 17.693 11.2039C17.7745 11.1207 17.8883 11.0698 18.0139 11.0698C18.1396 11.0698 18.2516 11.1207 18.3348 11.2022C18.3501 11.2175 18.3654 11.2345 18.379 11.2532C18.3926 11.2345 18.4078 11.2175 18.4231 11.2022C18.5046 11.119 18.6184 11.0681 18.7441 11.0681C18.8697 11.0681 18.9818 11.119 19.065 11.2005C19.0803 11.2158 19.0956 11.2345 19.1091 11.2515C19.1227 11.2328 19.138 11.2158 19.1533 11.2005C19.2348 11.1173 19.3486 11.0664 19.4742 11.0664C19.5778 11.0664 19.6729 11.1021 19.7493 11.1598V11.0358H13.3613V11.1598L13.3579 11.1734ZM17.0409 0.542045C17.0579 0.362054 17.0359 0.234702 16.9679 0.151499C16.9 0.068296 16.7777 0.0224494 16.5978 0.00546916C16.4178 -0.0115111 16.2904 0.0105632 16.2072 0.0784842C16.124 0.146405 16.0782 0.268663 16.0612 0.448653C16.0442 0.628644 16.0663 0.755995 16.1359 0.839199C16.2038 0.922402 16.3261 0.968248 16.5044 0.985229L16.54 0.988625H16.5417C16.5519 0.986927 16.5621 0.988625 16.5706 0.990323C16.7149 0.995417 16.8219 0.971644 16.8949 0.912214C16.9781 0.844293 17.024 0.722035 17.0409 0.543743V0.542045Z" fill="#5B5B5B"/>
<path d="M22.2466 19.8027C22.9495 20.3546 23.5286 20.6246 24.0159 20.7417C24.5066 20.8589 24.9057 20.8215 25.2419 20.7587C25.5781 20.6959 25.8515 20.6093 26.1011 20.4802C26.3507 20.3512 26.5799 20.1797 26.8278 19.9454C27.1505 19.6431 27.5087 19.2356 27.8891 18.8026C28.1013 18.5615 28.3204 18.3119 28.5496 18.0623C28.8706 17.7142 29.2017 17.3746 29.7264 17.0927C30.1356 16.8719 30.662 16.6869 31.387 16.5629C30.6603 16.4389 30.1356 16.2539 29.7264 16.0331C29.2017 15.7512 28.8689 15.4116 28.5496 15.0635C28.3187 14.8139 28.0997 14.5626 27.8874 14.3215C27.507 13.8885 27.1488 13.481 26.8261 13.1804C26.5782 12.9478 26.349 12.7746 26.0994 12.6456C25.8498 12.5165 25.5764 12.4299 25.2402 12.3671C24.904 12.3043 24.5049 12.2669 24.0142 12.3841C23.5269 12.5012 22.9478 12.7712 22.2449 13.3231V19.8044L22.2466 19.8027ZM21.1259 14.0991H20.6674H20.6623H20.6606C20.5876 14.1008 20.5214 14.1313 20.4721 14.1806C20.4229 14.2298 20.3923 14.2994 20.3923 14.3758C20.3923 14.4523 20.4229 14.5219 20.4721 14.5711C20.5197 14.6204 20.5876 14.6509 20.6606 14.6526H20.6623H20.6674H21.1259H21.131H21.5843H21.5894H21.5911C21.6641 14.6509 21.7304 14.6204 21.7796 14.5711C21.8289 14.5219 21.8611 14.4523 21.8611 14.3758C21.8611 14.2994 21.8305 14.2298 21.7813 14.1806C21.7321 14.1313 21.6624 14.0991 21.586 14.0991H21.5113H21.1293H21.1259ZM21.1242 13.3689H20.6691C20.5927 13.3689 20.5231 13.3995 20.4738 13.4504C20.4246 13.4997 20.394 13.5693 20.394 13.6457C20.394 13.7221 20.4246 13.7917 20.4738 13.841C20.5214 13.8902 20.5893 13.9208 20.6623 13.9225H20.664H20.6691H21.1242H21.1259H21.1276H21.5826C21.6591 13.9225 21.7287 13.8919 21.7779 13.841C21.8272 13.7917 21.8594 13.7221 21.8594 13.6457C21.8594 13.5693 21.8289 13.5014 21.7796 13.4504C21.7304 13.4012 21.6624 13.3706 21.5877 13.3689H21.5843H21.5096H21.1293H21.1276H21.1259H21.1242ZM21.1225 14.8275H20.6674H20.6623H20.6606C20.5876 14.8292 20.5214 14.8598 20.4721 14.9073C20.4229 14.9566 20.3906 15.0262 20.3906 15.1026C20.3906 15.179 20.4212 15.2486 20.4704 15.2979C20.518 15.3454 20.5859 15.376 20.6589 15.3794H20.6606H20.6657H21.1242H21.1293H21.5826H21.5877H21.5894C21.6624 15.3777 21.7287 15.3471 21.7779 15.2979C21.8272 15.2486 21.8594 15.179 21.8594 15.1026C21.8594 15.0262 21.8289 14.9583 21.7796 14.9073C21.7321 14.8598 21.6641 14.8292 21.5911 14.8258H21.5894H21.5843H21.1259H21.1225V14.8275ZM21.1225 15.5577H20.6674H20.6623H20.6606C20.5876 15.5594 20.5214 15.5899 20.4721 15.6392C20.4229 15.6884 20.3906 15.758 20.3906 15.8344C20.3906 15.9109 20.4212 15.9805 20.4704 16.0297C20.518 16.0773 20.5825 16.1078 20.6555 16.1095H20.6589H20.6657H21.1242H21.131H21.5826H21.5877H21.5894C21.6624 16.1078 21.7287 16.0773 21.7779 16.028C21.8272 15.9788 21.8594 15.9092 21.8594 15.8327C21.8594 15.7563 21.8289 15.6884 21.7796 15.6375C21.7321 15.5899 21.6641 15.5594 21.5911 15.556H21.5894H21.5843H21.1259H21.1225V15.5577ZM21.1225 16.2878H20.6674H20.6606H20.6572C20.5876 16.2912 20.5231 16.3184 20.4772 16.3642L20.4738 16.3676C20.4246 16.4169 20.3923 16.4865 20.3923 16.5629C20.3923 16.6376 20.4212 16.7038 20.4687 16.7531L20.4721 16.7565C20.5214 16.8057 20.591 16.838 20.6674 16.838H20.7421H21.1242H21.5826H21.5877H21.5894C21.6624 16.8363 21.7287 16.8057 21.7779 16.7565C21.8272 16.7072 21.8594 16.6376 21.8594 16.5612C21.8594 16.4848 21.8289 16.4169 21.7796 16.3659C21.7321 16.3184 21.6641 16.2878 21.5911 16.2844H21.5894H21.5843H21.1259H21.1225V16.2878ZM21.1259 17.7464H20.6674H20.6623H20.6606C20.5876 17.7481 20.5214 17.7787 20.4721 17.8279C20.4229 17.8772 20.3906 17.9468 20.3906 18.0232C20.3906 18.0996 20.4212 18.1692 20.4704 18.2185C20.518 18.2677 20.5859 18.2983 20.6589 18.3H20.6606H20.6657H21.1242H21.1293H21.5826H21.586H21.5877C21.6607 18.2983 21.7287 18.2677 21.7779 18.2185C21.8272 18.1692 21.8594 18.0996 21.8594 18.0232C21.8594 17.9468 21.8289 17.8789 21.7796 17.8279C21.7304 17.7787 21.6607 17.7464 21.5843 17.7464H21.5096H21.1276H21.1259ZM21.1242 17.0163H20.6691C20.5927 17.0163 20.5231 17.0468 20.4738 17.0978C20.4246 17.147 20.3923 17.2166 20.3923 17.293C20.3923 17.3695 20.4229 17.4391 20.4721 17.4883C20.5197 17.5376 20.5876 17.5681 20.6606 17.5698H20.6623H20.6674H21.1225H21.1242H21.1259H21.5809C21.6574 17.5698 21.727 17.5393 21.7762 17.4883C21.8255 17.4391 21.8577 17.3695 21.8577 17.293C21.8577 17.2166 21.8272 17.147 21.7779 17.0978C21.7304 17.0502 21.6624 17.0197 21.5894 17.0163H21.5877H21.5826H21.1276H21.1259H21.1242ZM21.1259 18.4749H20.6674H20.6623H20.6606C20.5876 18.4766 20.5214 18.5071 20.4721 18.5564C20.4229 18.6056 20.3906 18.6752 20.3906 18.7516C20.3906 18.8264 20.4195 18.8926 20.467 18.9418L20.4704 18.9452C20.518 18.9928 20.5859 19.0233 20.6589 19.0267H20.6606H20.6657H21.1242H21.1293H21.5826H21.5877H21.5894C21.6624 19.025 21.7287 18.9945 21.7779 18.9452C21.8272 18.896 21.8594 18.8264 21.8594 18.7499C21.8594 18.6735 21.8289 18.6056 21.7796 18.5547C21.7304 18.5054 21.6641 18.4749 21.5894 18.4732H21.5877H21.5843H21.5096H21.1276L21.1259 18.4749ZM21.1225 19.205H20.6674H20.6623H20.6606C20.5876 19.2067 20.5214 19.2373 20.4721 19.2848C20.4229 19.3341 20.3906 19.4037 20.3906 19.4801C20.3906 19.5548 20.4195 19.621 20.467 19.6703L20.4704 19.6737C20.5197 19.7229 20.5893 19.7552 20.6657 19.7552H20.7404H21.1208H21.1225H21.5877C21.6607 19.7535 21.727 19.7229 21.7762 19.6737C21.8255 19.6244 21.8577 19.5548 21.8577 19.4784C21.8577 19.402 21.8272 19.3324 21.7779 19.2831C21.7304 19.2356 21.6624 19.205 21.5894 19.2016H21.5877H21.5826H21.1242H21.1208L21.1225 19.205ZM21.9443 13.3689C22.0038 13.4453 22.0377 13.5404 22.0377 13.644C22.0377 13.7696 21.9868 13.8817 21.9053 13.9649C21.89 13.9802 21.8713 13.9955 21.8543 14.0091C21.873 14.0227 21.89 14.0379 21.9053 14.0532C21.9885 14.1347 22.0394 14.2485 22.0394 14.3741C22.0394 14.4998 21.9885 14.6119 21.907 14.6951C21.8917 14.7104 21.873 14.7256 21.856 14.7392C21.8747 14.7528 21.8917 14.7681 21.907 14.7834C21.9902 14.8649 22.0411 14.9786 22.0411 15.1043C22.0411 15.2299 21.9902 15.3437 21.9087 15.4252C21.8934 15.4405 21.8764 15.4558 21.8577 15.4694C21.8764 15.483 21.8934 15.4982 21.9087 15.5135C21.9919 15.595 22.0428 15.7088 22.0428 15.8344C22.0428 15.9601 21.9919 16.0739 21.9104 16.1554C21.8951 16.1707 21.8781 16.1859 21.8594 16.1995C21.8781 16.2131 21.8951 16.2284 21.9104 16.2437C21.9936 16.3252 22.0445 16.4389 22.0445 16.5646C22.0445 16.6902 21.9936 16.8023 21.9121 16.8855C21.8968 16.9008 21.8781 16.9161 21.8611 16.9297C21.8798 16.9433 21.8968 16.9585 21.9121 16.9738C21.9953 17.0553 22.0462 17.1691 22.0462 17.2947C22.0462 17.4204 21.9953 17.5325 21.9138 17.6157C21.8985 17.631 21.8798 17.6462 21.8628 17.6598C21.8815 17.6734 21.8985 17.6887 21.9138 17.704C21.997 17.7855 22.0479 17.8992 22.0479 18.0249C22.0479 18.1505 21.997 18.2626 21.9155 18.3458C21.9002 18.3611 21.8832 18.3764 21.8645 18.39C21.8832 18.4036 21.9002 18.4188 21.9155 18.4341C21.9987 18.5156 22.0496 18.6294 22.0496 18.755C22.0496 18.8807 21.9987 18.9928 21.9172 19.076C21.9019 19.0913 21.8832 19.1065 21.8662 19.1201C21.8849 19.1337 21.9019 19.149 21.9172 19.1643C22.0004 19.2458 22.0513 19.3595 22.0513 19.4852C22.0513 19.5888 22.0156 19.6839 21.9579 19.7603H22.0819V13.3723H21.9579L21.9443 13.3689ZM32.5756 17.0519C32.7556 17.0689 32.883 17.0468 32.9662 16.9789C33.0494 16.911 33.0952 16.7887 33.1122 16.6087C33.1292 16.4288 33.1071 16.3014 33.0392 16.2182C32.9713 16.135 32.849 16.0891 32.669 16.0722C32.489 16.0552 32.3617 16.0773 32.2785 16.1469C32.1953 16.2148 32.1494 16.3371 32.1325 16.5154L32.1291 16.551V16.5527C32.1308 16.5629 32.1291 16.5731 32.1274 16.5816C32.1223 16.7259 32.146 16.8329 32.2055 16.9059C32.2734 16.9891 32.3956 17.0349 32.5739 17.0519H32.5756Z" fill="#5B5B5B"/>
<path d="M13.3121 22.2547C12.7602 22.9577 12.4902 23.5368 12.3731 24.0241C12.2559 24.5148 12.2933 24.9138 12.3561 25.2501C12.4189 25.5863 12.5055 25.8596 12.6346 26.1093C12.7636 26.3589 12.9351 26.5881 13.1694 26.836C13.4717 27.1586 13.8792 27.5169 14.3122 27.8973C14.5533 28.1095 14.8029 28.3286 15.0526 28.5578C15.4007 28.8787 15.7403 29.2098 16.0221 29.7345C16.2429 30.1438 16.428 30.6701 16.5519 31.3952C16.6759 30.6684 16.8609 30.1438 17.0817 29.7345C17.3636 29.2098 17.7032 28.877 18.0513 28.5578C18.3009 28.3269 18.5522 28.1078 18.7933 27.8956C19.2263 27.5152 19.6338 27.1569 19.9344 26.8343C20.167 26.5864 20.3402 26.3572 20.4693 26.1076C20.5983 25.8579 20.6849 25.5846 20.7477 25.2484C20.8106 24.9121 20.8479 24.5131 20.7307 24.0224C20.6136 23.5351 20.3436 22.956 19.7917 22.253H13.3104L13.3121 22.2547ZM19.0157 21.134V20.6756V20.6705V20.6688C19.014 20.5958 18.9835 20.5296 18.9342 20.4803C18.885 20.4311 18.8154 20.4005 18.739 20.4005C18.6626 20.4005 18.5929 20.4311 18.5437 20.4803C18.4945 20.5279 18.4639 20.5958 18.4622 20.6688V20.6705V20.6756V21.134V21.1391V21.5925V21.5976V21.5993C18.4639 21.6723 18.4945 21.7385 18.5437 21.7878C18.5929 21.837 18.6626 21.8693 18.739 21.8693C18.8154 21.8693 18.885 21.8387 18.9342 21.7895C18.9835 21.7402 19.0157 21.6706 19.0157 21.5942V21.5195V21.1374V21.134ZM19.7459 21.1323V20.6773C19.7459 20.6009 19.7153 20.5313 19.6644 20.482C19.6151 20.4328 19.5455 20.4022 19.4691 20.4022C19.3927 20.4022 19.3231 20.4328 19.2738 20.482C19.2246 20.5296 19.194 20.5975 19.1923 20.6705V20.6722V20.6773V21.1323V21.134V21.1357V21.5908C19.1923 21.6672 19.2229 21.7368 19.2738 21.7861C19.3231 21.8353 19.3927 21.8676 19.4691 21.8676C19.5455 21.8676 19.6134 21.837 19.6644 21.7878C19.7136 21.7385 19.7442 21.6706 19.7459 21.5959V21.5925V21.5178V21.1374V21.1357V21.134V21.1323ZM18.2873 21.1307V20.6756V20.6705V20.6688C18.2856 20.5958 18.255 20.5296 18.2075 20.4803C18.1582 20.4311 18.0886 20.3988 18.0122 20.3988C17.9358 20.3988 17.8662 20.4294 17.8169 20.4786C17.7694 20.5262 17.7388 20.5941 17.7354 20.6671V20.6688V20.6739V21.1323V21.1374V21.5908V21.5959V21.5976C17.7371 21.6706 17.7677 21.7368 17.8169 21.7861C17.8662 21.8353 17.9358 21.8676 18.0122 21.8676C18.0886 21.8676 18.1565 21.837 18.2075 21.7878C18.255 21.7402 18.2856 21.6723 18.289 21.5993V21.5976V21.5925V21.134V21.1307H18.2873ZM17.5571 21.1307V20.6756V20.6705V20.6688C17.5554 20.5958 17.5249 20.5296 17.4756 20.4803C17.4264 20.4311 17.3568 20.3988 17.2804 20.3988C17.204 20.3988 17.1343 20.4294 17.0851 20.4786C17.0375 20.5262 17.007 20.5907 17.0053 20.6637V20.6671V20.6739V21.1323V21.1391V21.5908V21.5959V21.5976C17.007 21.6706 17.0375 21.7368 17.0868 21.7861C17.136 21.8353 17.2057 21.8676 17.2821 21.8676C17.3585 21.8676 17.4264 21.837 17.4773 21.7878C17.5249 21.7402 17.5554 21.6723 17.5588 21.5993V21.5976V21.5925V21.134V21.1307H17.5571ZM16.827 21.1307V20.6756V20.6688V20.6654C16.8236 20.5958 16.7964 20.5312 16.7506 20.4854L16.7472 20.482C16.6979 20.4328 16.6283 20.4005 16.5519 20.4005C16.4772 20.4005 16.411 20.4294 16.3617 20.4769L16.3583 20.4803C16.3091 20.5296 16.2768 20.5992 16.2768 20.6756V20.7503V21.1323V21.5908V21.5959V21.5976C16.2785 21.6706 16.3091 21.7368 16.3583 21.7861C16.4076 21.8353 16.4772 21.8676 16.5536 21.8676C16.63 21.8676 16.6979 21.837 16.7489 21.7878C16.7964 21.7402 16.827 21.6723 16.8304 21.5993V21.5976V21.5925V21.134V21.1307H16.827ZM15.3684 21.134V20.6756V20.6705V20.6688C15.3667 20.5958 15.3361 20.5296 15.2869 20.4803C15.2376 20.4311 15.168 20.3988 15.0916 20.3988C15.0152 20.3988 14.9456 20.4294 14.8963 20.4786C14.8471 20.5262 14.8165 20.5941 14.8148 20.6671V20.6688V20.6739V21.1323V21.1374V21.5908V21.5942V21.5959C14.8165 21.6689 14.8471 21.7368 14.8963 21.7861C14.9456 21.8353 15.0152 21.8676 15.0916 21.8676C15.168 21.8676 15.2359 21.837 15.2869 21.7878C15.3361 21.7385 15.3684 21.6689 15.3684 21.5925V21.5178V21.1357V21.134ZM16.0985 21.1323V20.6773C16.0985 20.6009 16.068 20.5313 16.017 20.482C15.9678 20.4328 15.8982 20.4005 15.8218 20.4005C15.7453 20.4005 15.6757 20.4311 15.6265 20.4803C15.5772 20.5279 15.5467 20.5958 15.545 20.6688V20.6705V20.6756V21.1307V21.1323V21.134V21.5891C15.545 21.6655 15.5755 21.7351 15.6265 21.7844C15.6757 21.8336 15.7453 21.8659 15.8218 21.8659C15.8982 21.8659 15.9678 21.8353 16.017 21.7861C16.0646 21.7385 16.0951 21.6706 16.0985 21.5976V21.5959V21.5908V21.1357V21.134V21.1323ZM14.6399 21.134V20.6756V20.6705V20.6688C14.6382 20.5958 14.6077 20.5296 14.5584 20.4803C14.5092 20.4311 14.4396 20.3988 14.3632 20.3988C14.2884 20.3988 14.2222 20.4277 14.173 20.4752L14.1696 20.4786C14.122 20.5262 14.0915 20.5941 14.0881 20.6671V20.6688V20.6739V21.1323V21.1374V21.5908V21.5959V21.5976C14.0898 21.6706 14.1203 21.7368 14.1696 21.7861C14.2188 21.8353 14.2884 21.8676 14.3649 21.8676C14.4413 21.8676 14.5092 21.837 14.5601 21.7878C14.6094 21.7385 14.6399 21.6723 14.6416 21.5976V21.5959V21.5925V21.5178V21.1357L14.6399 21.134ZM13.9098 21.1307V20.6756V20.6705V20.6688C13.9081 20.5958 13.8775 20.5296 13.83 20.4803C13.7807 20.4311 13.7111 20.3988 13.6347 20.3988C13.56 20.3988 13.4938 20.4277 13.4445 20.4752L13.4411 20.4786C13.3919 20.5279 13.3596 20.5975 13.3596 20.6739V20.7486V21.129V21.1307V21.5959C13.3613 21.6689 13.3919 21.7351 13.4411 21.7844C13.4904 21.8336 13.56 21.8659 13.6364 21.8659C13.7128 21.8659 13.7824 21.8353 13.8317 21.7861C13.8792 21.7385 13.9098 21.6706 13.9132 21.5976V21.5959V21.5908V21.1323V21.129L13.9098 21.1307ZM19.7459 21.9525C19.6695 22.0119 19.5744 22.0459 19.4708 22.0459C19.3452 22.0459 19.2331 21.9949 19.1499 21.9134C19.1346 21.8982 19.1193 21.8795 19.1057 21.8625C19.0922 21.8812 19.0769 21.8982 19.0616 21.9134C18.9801 21.9966 18.8663 22.0476 18.7407 22.0476C18.615 22.0476 18.5029 21.9966 18.4197 21.9151C18.4045 21.8999 18.3892 21.8812 18.3756 21.8642C18.362 21.8829 18.3467 21.8999 18.3314 21.9151C18.2499 21.9983 18.1362 22.0493 18.0105 22.0493C17.8849 22.0493 17.7711 21.9983 17.6896 21.9168C17.6743 21.9016 17.659 21.8846 17.6454 21.8659C17.6319 21.8846 17.6166 21.9016 17.6013 21.9168C17.5198 22 17.406 22.051 17.2804 22.051C17.1547 22.051 17.0409 22 16.9594 21.9185C16.9442 21.9033 16.9289 21.8863 16.9153 21.8676C16.9017 21.8863 16.8864 21.9033 16.8711 21.9185C16.7896 22.0017 16.6759 22.0527 16.5502 22.0527C16.4246 22.0527 16.3125 22.0017 16.2293 21.9202C16.214 21.905 16.1987 21.8863 16.1851 21.8693C16.1716 21.888 16.1563 21.905 16.141 21.9202C16.0595 22.0034 15.9457 22.0544 15.8201 22.0544C15.6944 22.0544 15.5823 22.0034 15.4991 21.9219C15.4839 21.9066 15.4686 21.888 15.455 21.871C15.4414 21.8897 15.4261 21.9066 15.4108 21.9219C15.3293 22.0051 15.2156 22.0561 15.0899 22.0561C14.9643 22.0561 14.8522 22.0051 14.769 21.9236C14.7537 21.9083 14.7384 21.8914 14.7248 21.8727C14.7113 21.8914 14.696 21.9083 14.6807 21.9236C14.5992 22.0068 14.4854 22.0578 14.3598 22.0578C14.2341 22.0578 14.122 22.0068 14.0388 21.9253C14.0236 21.91 14.0083 21.8914 13.9947 21.8744C13.9811 21.8931 13.9658 21.91 13.9505 21.9253C13.869 22.0085 13.7553 22.0595 13.6296 22.0595C13.526 22.0595 13.4309 22.0238 13.3545 21.9661V22.09H19.7425V21.9661L19.7459 21.9525ZM16.0629 32.5838C16.0459 32.7638 16.068 32.8912 16.1359 32.9744C16.2038 33.0576 16.3261 33.1034 16.5061 33.1204C16.6861 33.1374 16.8134 33.1153 16.8966 33.0474C16.9798 32.9795 17.0257 32.8572 17.0426 32.6772C17.0596 32.4972 17.0375 32.3699 16.9679 32.2867C16.9 32.2035 16.7777 32.1576 16.5995 32.1406L16.5638 32.1372H16.5621C16.5519 32.1389 16.5417 32.1372 16.5332 32.1355C16.3889 32.1304 16.2819 32.1542 16.2089 32.2137C16.1257 32.2816 16.0799 32.4038 16.0629 32.5821V32.5838Z" fill="#5B5B5B"/>
<path d="M10.8711 13.3231C10.1681 12.7712 9.58911 12.5012 9.10178 12.3841C8.61105 12.2669 8.21202 12.3043 7.87581 12.3671C7.5396 12.4299 7.26622 12.5165 7.01661 12.6456C6.767 12.7746 6.53776 12.9461 6.28985 13.1804C5.96723 13.4827 5.60895 13.8902 5.22859 14.3232C5.01634 14.5643 4.79729 14.8139 4.56806 15.0635C4.24713 15.4116 3.91601 15.7512 3.39133 16.0331C2.9821 16.2539 2.45571 16.4389 1.73066 16.5629C2.45741 16.6869 2.9821 16.8719 3.39133 17.0927C3.91601 17.3746 4.24883 17.7142 4.56806 18.0623C4.79899 18.3119 5.01803 18.5632 5.23029 18.8043C5.61064 19.2373 5.96893 19.6448 6.29155 19.9454C6.53946 20.178 6.7687 20.3512 7.01831 20.4802C7.26792 20.6093 7.5413 20.6959 7.87751 20.7587C8.21371 20.8215 8.61275 20.8589 9.10348 20.7417C9.59081 20.6246 10.1698 20.3546 10.8728 19.8027V13.3214L10.8711 13.3231ZM11.9918 19.0267H12.4503H12.4554H12.4571C12.5301 19.025 12.5963 18.9945 12.6456 18.9452C12.6948 18.896 12.7254 18.8264 12.7254 18.7499C12.7254 18.6735 12.6948 18.6039 12.6456 18.5547C12.598 18.5054 12.5301 18.4749 12.4571 18.4732H12.4554H12.4503H11.9918H11.9867H11.5333H11.5283H11.5266C11.4535 18.4749 11.3873 18.5054 11.3381 18.5547C11.2888 18.6039 11.2566 18.6735 11.2566 18.7499C11.2566 18.8264 11.2871 18.896 11.3364 18.9452C11.3856 18.9945 11.4552 19.0267 11.5317 19.0267H11.6064H11.9884H11.9918ZM11.9935 19.7569H12.4486C12.525 19.7569 12.5946 19.7263 12.6439 19.6754C12.6931 19.6261 12.7237 19.5565 12.7237 19.4801C12.7237 19.4037 12.6931 19.3341 12.6439 19.2848C12.5963 19.2356 12.5284 19.205 12.4554 19.2033H12.4537H12.4486H11.9935H11.9918H11.9901H11.535C11.4586 19.2033 11.389 19.2339 11.3398 19.2848C11.2905 19.3341 11.2583 19.4037 11.2583 19.4801C11.2583 19.5565 11.2888 19.6244 11.3381 19.6754C11.3873 19.7246 11.4552 19.7552 11.53 19.7569H11.5333H11.6081H11.9884H11.9901H11.9918H11.9935ZM11.9952 18.2983H12.4503H12.4554H12.4571C12.5301 18.2966 12.5963 18.266 12.6456 18.2185C12.6948 18.1692 12.7271 18.0996 12.7271 18.0232C12.7271 17.9468 12.6965 17.8772 12.6473 17.8279C12.5997 17.7804 12.5318 17.7498 12.4588 17.7464H12.4571H12.452H11.9935H11.9884H11.535H11.53H11.5283C11.4552 17.7481 11.389 17.7787 11.3398 17.8279C11.2905 17.8772 11.2583 17.9468 11.2583 18.0232C11.2583 18.0996 11.2888 18.1675 11.3381 18.2185C11.3856 18.266 11.4535 18.2966 11.5266 18.3H11.5283H11.5333H11.9918H11.9952V18.2983ZM11.9952 17.5681H12.4503H12.4554H12.4571C12.5301 17.5664 12.5963 17.5359 12.6456 17.4866C12.6948 17.4374 12.7271 17.3678 12.7271 17.2913C12.7271 17.2149 12.6965 17.1453 12.6473 17.0961C12.5997 17.0485 12.5352 17.018 12.4622 17.0163H12.4588H12.452H11.9935H11.9867H11.535H11.53H11.5283C11.4552 17.018 11.389 17.0485 11.3398 17.0978C11.2905 17.147 11.2583 17.2166 11.2583 17.293C11.2583 17.3695 11.2888 17.4374 11.3381 17.4883C11.3856 17.5359 11.4535 17.5664 11.5266 17.5698H11.5283H11.5333H11.9918H11.9952V17.5681ZM11.9952 16.838H12.4503H12.4571H12.4605C12.5301 16.8346 12.5946 16.8074 12.6405 16.7616L12.6439 16.7582C12.6931 16.7089 12.7254 16.6393 12.7254 16.5629C12.7254 16.4882 12.6965 16.422 12.649 16.3727L12.6456 16.3693C12.5963 16.3201 12.5267 16.2878 12.4503 16.2878H12.3756H11.9935H11.535H11.53H11.5283C11.4552 16.2895 11.389 16.3201 11.3398 16.3693C11.2905 16.4186 11.2583 16.4882 11.2583 16.5646C11.2583 16.641 11.2888 16.7089 11.3381 16.7599C11.3856 16.8074 11.4535 16.838 11.5266 16.8414H11.5283H11.5333H11.9918H11.9952V16.838ZM11.9918 15.3794H12.4503H12.4554H12.4571C12.5301 15.3777 12.5963 15.3471 12.6456 15.2979C12.6948 15.2486 12.7271 15.179 12.7271 15.1026C12.7271 15.0262 12.6965 14.9566 12.6473 14.9073C12.5997 14.8581 12.5318 14.8275 12.4588 14.8258H12.4571H12.452H11.9935H11.9884H11.535H11.5317H11.53C11.4569 14.8275 11.389 14.8581 11.3398 14.9073C11.2905 14.9566 11.2583 15.0262 11.2583 15.1026C11.2583 15.179 11.2888 15.2469 11.3381 15.2979C11.3873 15.3471 11.4569 15.3794 11.5333 15.3794H11.6081H11.9901H11.9918ZM11.9935 16.1095H12.4486C12.525 16.1095 12.5946 16.079 12.6439 16.028C12.6931 15.9788 12.7254 15.9092 12.7254 15.8327C12.7254 15.7563 12.6948 15.6867 12.6456 15.6375C12.598 15.5882 12.5301 15.5577 12.4571 15.556H12.4554H12.4503H11.9952H11.9935H11.9918H11.5367C11.4603 15.556 11.3907 15.5865 11.3415 15.6375C11.2922 15.6867 11.26 15.7563 11.26 15.8327C11.26 15.9092 11.2905 15.9788 11.3398 16.028C11.3873 16.0756 11.4552 16.1061 11.5283 16.1095H11.53H11.535H11.9901H11.9918H11.9935ZM11.9918 14.6509H12.4503H12.4554H12.4571C12.5301 14.6492 12.5963 14.6187 12.6456 14.5694C12.6948 14.5202 12.7271 14.4506 12.7271 14.3741C12.7271 14.2994 12.6982 14.2332 12.6506 14.184L12.6473 14.1806C12.5997 14.133 12.5318 14.1025 12.4588 14.0991H12.4571H12.452H11.9935H11.9884H11.535H11.53H11.5283C11.4552 14.1008 11.389 14.1313 11.3398 14.1806C11.2905 14.2298 11.2583 14.2994 11.2583 14.3758C11.2583 14.4523 11.2888 14.5202 11.3381 14.5711C11.3873 14.6204 11.4535 14.6509 11.5283 14.6526H11.53H11.5333H11.6081H11.9901L11.9918 14.6509ZM11.9952 13.9208H12.4503H12.4554H12.4571C12.5301 13.9191 12.5963 13.8885 12.6456 13.841C12.6948 13.7917 12.7271 13.7221 12.7271 13.6457C12.7271 13.571 12.6982 13.5048 12.6506 13.4555L12.6473 13.4521C12.598 13.4029 12.5284 13.3706 12.452 13.3706H12.3773H11.9969H11.9952H11.53C11.4569 13.3723 11.3907 13.4029 11.3415 13.4521C11.2922 13.5014 11.26 13.571 11.26 13.6474C11.26 13.7238 11.2905 13.7934 11.3398 13.8427C11.3873 13.8902 11.4552 13.9208 11.5283 13.9242H11.53H11.535H11.9935H11.9969L11.9952 13.9208ZM11.1734 19.7569C11.1139 19.6805 11.08 19.5854 11.08 19.4818C11.08 19.3561 11.1309 19.2441 11.2124 19.1609C11.2277 19.1456 11.2464 19.1303 11.2634 19.1167C11.2447 19.1031 11.2277 19.0879 11.2124 19.0726C11.1292 18.9911 11.0783 18.8773 11.0783 18.7516C11.0783 18.626 11.1292 18.5139 11.2107 18.4307C11.226 18.4154 11.2447 18.4002 11.2617 18.3866C11.243 18.373 11.226 18.3577 11.2107 18.3424C11.1275 18.2609 11.0766 18.1472 11.0766 18.0215C11.0766 17.8958 11.1275 17.7821 11.209 17.7006C11.2243 17.6853 11.2413 17.67 11.26 17.6564C11.2413 17.6428 11.2243 17.6276 11.209 17.6123C11.1258 17.5308 11.0749 17.417 11.0749 17.2913C11.0749 17.1657 11.1258 17.0519 11.2073 16.9704C11.2226 16.9551 11.2396 16.9399 11.2583 16.9263C11.2396 16.9127 11.2226 16.8974 11.2073 16.8821C11.1241 16.8006 11.0732 16.6869 11.0732 16.5612C11.0732 16.4355 11.1241 16.3235 11.2056 16.2403C11.2209 16.225 11.2396 16.2097 11.2566 16.1961C11.2379 16.1825 11.2209 16.1673 11.2056 16.152C11.1224 16.0705 11.0715 15.9567 11.0715 15.831C11.0715 15.7054 11.1224 15.5933 11.2039 15.5101C11.2192 15.4948 11.2379 15.4796 11.2549 15.466C11.2362 15.4524 11.2192 15.4371 11.2039 15.4218C11.1207 15.3403 11.0698 15.2266 11.0698 15.1009C11.0698 14.9752 11.1207 14.8632 11.2022 14.78C11.2175 14.7647 11.2345 14.7494 11.2532 14.7358C11.2345 14.7222 11.2175 14.707 11.2022 14.6917C11.119 14.6102 11.0681 14.4964 11.0681 14.3707C11.0681 14.2451 11.119 14.133 11.2005 14.0498C11.2158 14.0345 11.2345 14.0193 11.2515 14.0057C11.2328 13.9921 11.2158 13.9768 11.2005 13.9615C11.1173 13.88 11.0664 13.7663 11.0664 13.6406C11.0664 13.537 11.102 13.4419 11.1598 13.3655H11.0358V19.7535H11.1598L11.1734 19.7569ZM0.542043 16.0739C0.362052 16.0569 0.234703 16.079 0.151499 16.1469C0.0682963 16.2148 0.0224495 16.3371 0.00546931 16.517C-0.0115109 16.697 0.0105621 16.8244 0.0784831 16.9076C0.146404 16.9908 0.268663 17.0366 0.448654 17.0536C0.628644 17.0706 0.755994 17.0485 0.839197 16.9789C0.9224 16.911 0.968247 16.7887 0.985227 16.6104L0.988624 16.5748V16.5731C0.986926 16.5629 0.988623 16.5527 0.990321 16.5442C0.995415 16.3999 0.971644 16.2929 0.912213 16.2199C0.844292 16.1367 0.722035 16.0908 0.543742 16.0739H0.542043Z" fill="#5B5B5B"/>
</svg>
